<svg width="343" height="237" viewBox="0 0 343 237" fill="none" xmlns="http://www.w3.org/2000/svg">
<g clip-path="url(#clip0_8_88)">
<path d="M308.119 152.571H225.465C224.755 152.57 224.074 152.287 223.571 151.785C223.069 151.282 222.786 150.601 222.785 149.891V29.4843C222.786 28.7739 223.069 28.0929 223.571 27.5906C224.074 27.0883 224.755 26.8055 225.465 26.8043H308.119C308.83 26.8043 309.512 27.0865 310.016 27.589C310.519 28.0914 310.802 28.7731 310.803 29.4843V149.891C310.802 150.602 310.519 151.284 310.016 151.786C309.512 152.289 308.83 152.571 308.119 152.571ZM225.465 26.9187C224.785 26.9187 224.132 27.189 223.651 27.6701C223.17 28.1513 222.899 28.8038 222.899 29.4843V149.891C222.899 150.571 223.17 151.224 223.651 151.705C224.132 152.186 224.785 152.457 225.465 152.457H308.119C308.8 152.457 309.453 152.186 309.935 151.705C310.417 151.224 310.688 150.572 310.689 149.891V29.4843C310.688 28.8034 310.417 28.1509 309.935 27.6698C309.453 27.1888 308.8 26.9187 308.119 26.9187H225.465Z" fill="#E0E0E0"/>
<path d="M212.802 152.571H130.139C129.429 152.57 128.748 152.287 128.245 151.785C127.743 151.282 127.46 150.601 127.459 149.891V29.4843C127.46 28.7739 127.743 28.0929 128.245 27.5906C128.748 27.0883 129.429 26.8055 130.139 26.8043H212.802C213.512 26.8055 214.193 27.0883 214.696 27.5906C215.198 28.0929 215.481 28.7739 215.482 29.4843V149.891C215.481 150.601 215.198 151.282 214.696 151.785C214.193 152.287 213.512 152.57 212.802 152.571ZM130.139 26.9187C129.463 26.9259 128.817 27.1992 128.341 27.6795C127.865 28.1597 127.597 28.8082 127.596 29.4843V149.891C127.597 150.571 127.868 151.223 128.349 151.704C128.83 152.185 129.482 152.455 130.162 152.457H212.802C213.482 152.455 214.134 152.185 214.615 151.704C215.096 151.223 215.366 150.571 215.368 149.891V29.4843C215.366 28.8042 215.096 28.1523 214.615 27.6714C214.134 27.1906 213.482 26.9199 212.802 26.9187H130.139Z" fill="#E0E0E0"/>
<path d="M117.535 152.571H34.8808C34.1696 152.571 33.4875 152.289 32.9842 151.786C32.4809 151.284 32.1975 150.602 32.1963 149.891V29.4843C32.1975 28.7731 32.4809 28.0914 32.9842 27.589C33.4875 27.0865 34.1696 26.8043 34.8808 26.8043H117.535C118.245 26.8055 118.926 27.0883 119.428 27.5906C119.931 28.0929 120.213 28.7739 120.215 29.4843V149.891C120.213 150.601 119.931 151.282 119.428 151.785C118.926 152.287 118.245 152.57 117.535 152.571ZM34.8808 26.9187C34.2 26.9187 33.5469 27.1888 33.065 27.6698C32.5832 28.1509 32.3118 28.8034 32.3106 29.4843V149.891C32.3118 150.572 32.5832 151.224 33.065 151.705C33.5469 152.186 34.2 152.457 34.8808 152.457H117.535C118.215 152.457 118.868 152.186 119.349 151.705C119.83 151.224 120.1 150.571 120.1 149.891V29.4843C120.1 28.8038 119.83 28.1513 119.349 27.6701C118.868 27.189 118.215 26.9187 117.535 26.9187H34.8808Z" fill="#E0E0E0"/>
<path d="M343 180.5H0V180.555H343V180.5Z" fill="#E0E0E0"/>
<path d="M113.158 55.6025C115.301 53.4821 118.196 52.2962 121.211 52.3041C124.225 52.312 127.114 53.5131 129.246 55.6448C131.378 57.7765 132.579 60.6654 132.587 63.68C132.595 66.6947 131.409 69.5898 129.288 71.7327L122.844 78.1765C122.632 78.3895 122.38 78.5584 122.102 78.6737C121.824 78.789 121.526 78.8483 121.226 78.8483C120.925 78.8483 120.627 78.789 120.349 78.6737C120.071 78.5584 119.819 78.3895 119.607 78.1765L113.158 71.7281C111.021 69.5893 109.82 66.6892 109.82 63.6653C109.82 60.6415 111.021 57.7414 113.158 55.6025ZM121.226 68.9704C122.273 68.9704 123.297 68.6598 124.168 68.0779C125.039 67.496 125.717 66.6688 126.118 65.7011C126.519 64.7334 126.624 63.6686 126.42 62.6413C126.215 61.614 125.711 60.6703 124.97 59.9297C124.23 59.1891 123.286 58.6847 122.259 58.4803C121.231 58.276 120.167 58.3809 119.199 58.7817C118.231 59.1825 117.404 59.8613 116.822 60.7322C116.24 61.6031 115.93 62.627 115.93 63.6745C115.932 65.0775 116.491 66.4221 117.484 67.4133C118.477 68.4045 119.823 68.9613 121.226 68.9613V68.9704Z" fill="#E6E6E6"/>
<path d="M303.02 110.972V89.2486H289.57V94.2016H280.606V39.9298H263.365V61.2919H258.192V50.6268H244.742V102.644H225.772V84.2637H213.881V44.4163H199.201V70.9827H185.408V128.213H174.72V100.344H163.684V82.4115H151.958V68.6458L138.878 75.5424V112.376H125.085V104.78H106.655V158.164L321.149 158.269V110.972H303.02Z" fill="#EBEBEB"/>
<path d="M164.58 158.196V78.7666H149.946V158.269C154.579 158.155 164.58 158.196 164.58 158.196Z" fill="#E6E6E6"/>
<path d="M151.236 158.269V114.585H121.075V158.173L151.236 158.269Z" fill="#FAFAFA"/>
<path d="M187.882 158.205V94.0735H170.796V158.196L187.882 158.205Z" fill="#E0E0E0"/>
<path d="M174.166 96.5889H172.095V100.86H174.166V96.5889Z" fill="#FAFAFA"/>
<path d="M178.305 96.5889H176.233V100.86H178.305V96.5889Z" fill="#FAFAFA"/>
<path d="M182.449 96.5889H180.377V100.86H182.449V96.5889Z" fill="#FAFAFA"/>
<path d="M186.592 96.5889H184.521V100.86H186.592V96.5889Z" fill="#FAFAFA"/>
<path d="M174.166 103.755H172.095V108.027H174.166V103.755Z" fill="#FAFAFA"/>
<path d="M178.305 103.755H176.233V108.027H178.305V103.755Z" fill="#FAFAFA"/>
<path d="M182.449 103.755H180.377V108.027H182.449V103.755Z" fill="#FAFAFA"/>
<path d="M186.592 103.755H184.521V108.027H186.592V103.755Z" fill="#FAFAFA"/>
<path d="M174.166 110.917H172.095V115.189H174.166V110.917Z" fill="#FAFAFA"/>
<path d="M178.305 110.917H176.233V115.189H178.305V110.917Z" fill="#FAFAFA"/>
<path d="M182.449 110.917H180.377V115.189H182.449V110.917Z" fill="#FAFAFA"/>
<path d="M186.592 110.917H184.521V115.189H186.592V110.917Z" fill="#FAFAFA"/>
<path d="M174.166 118.079H172.095V122.35H174.166V118.079Z" fill="#FAFAFA"/>
<path d="M178.305 118.079H176.233V122.35H178.305V118.079Z" fill="#FAFAFA"/>
<path d="M182.449 118.079H180.377V122.35H182.449V118.079Z" fill="#FAFAFA"/>
<path d="M186.592 118.079H184.521V122.35H186.592V118.079Z" fill="#FAFAFA"/>
<path d="M174.166 125.241H172.095V129.512H174.166V125.241Z" fill="#FAFAFA"/>
<path d="M178.305 125.241H176.233V129.512H178.305V125.241Z" fill="#FAFAFA"/>
<path d="M182.449 125.241H180.377V129.512H182.449V125.241Z" fill="#FAFAFA"/>
<path d="M186.592 125.241H184.521V129.512H186.592V125.241Z" fill="#FAFAFA"/>
<path d="M174.166 132.403H172.095V136.674H174.166V132.403Z" fill="#FAFAFA"/>
<path d="M178.305 132.403H176.233V136.674H178.305V132.403Z" fill="#FAFAFA"/>
<path d="M182.449 132.403H180.377V136.674H182.449V132.403Z" fill="#FAFAFA"/>
<path d="M186.592 132.403H184.521V136.674H186.592V132.403Z" fill="#FAFAFA"/>
<path d="M174.166 139.564H172.095V143.836H174.166V139.564Z" fill="#FAFAFA"/>
<path d="M178.305 139.564H176.233V143.836H178.305V139.564Z" fill="#FAFAFA"/>
<path d="M182.449 139.564H180.377V143.836H182.449V139.564Z" fill="#FAFAFA"/>
<path d="M186.592 139.564H184.521V143.836H186.592V139.564Z" fill="#FAFAFA"/>
<path d="M174.166 146.731H172.095V151.002H174.166V146.731Z" fill="#FAFAFA"/>
<path d="M178.305 146.731H176.233V151.002H178.305V146.731Z" fill="#FAFAFA"/>
<path d="M182.449 146.731H180.377V151.002H182.449V146.731Z" fill="#FAFAFA"/>
<path d="M186.592 146.731H184.521V151.002H186.592V146.731Z" fill="#FAFAFA"/>
<path d="M247.258 158.237V84.9406H211.833V158.26C211.833 158.26 246.988 158.269 247.258 158.237Z" fill="#F5F5F5"/>
<path d="M218.784 87.8629H214.489V92.7838H218.784V87.8629Z" fill="#E6E6E6"/>
<path d="M227.382 87.8629H223.087V92.7838H227.382V87.8629Z" fill="#E6E6E6"/>
<path d="M235.97 87.8629H231.676V92.7838H235.97V87.8629Z" fill="#E6E6E6"/>
<path d="M244.564 87.8629H240.27V92.7838H244.564V87.8629Z" fill="#E6E6E6"/>
<path d="M218.784 96.1178H214.489V101.039H218.784V96.1178Z" fill="#E6E6E6"/>
<path d="M227.382 96.1178H223.087V101.039H227.382V96.1178Z" fill="#E6E6E6"/>
<path d="M235.97 96.1178H231.676V101.039H235.97V96.1178Z" fill="#E6E6E6"/>
<path d="M244.564 96.1178H240.27V101.039H244.564V96.1178Z" fill="#E6E6E6"/>
<path d="M218.784 104.373H214.489V109.294H218.784V104.373Z" fill="#E6E6E6"/>
<path d="M227.382 104.373H223.087V109.294H227.382V104.373Z" fill="#E6E6E6"/>
<path d="M235.97 104.373H231.676V109.294H235.97V104.373Z" fill="#E6E6E6"/>
<path d="M244.564 104.373H240.27V109.294H244.564V104.373Z" fill="#E6E6E6"/>
<path d="M218.784 112.623H214.489V117.544H218.784V112.623Z" fill="#E6E6E6"/>
<path d="M227.382 112.623H223.087V117.544H227.382V112.623Z" fill="#E6E6E6"/>
<path d="M235.97 112.623H231.676V117.544H235.97V112.623Z" fill="#E6E6E6"/>
<path d="M244.564 112.623H240.27V117.544H244.564V112.623Z" fill="#E6E6E6"/>
<path d="M218.784 120.882H214.489V125.803H218.784V120.882Z" fill="#E6E6E6"/>
<path d="M227.382 120.882H223.087V125.803H227.382V120.882Z" fill="#E6E6E6"/>
<path d="M235.97 120.882H231.676V125.803H235.97V120.882Z" fill="#E6E6E6"/>
<path d="M244.564 120.882H240.27V125.803H244.564V120.882Z" fill="#E6E6E6"/>
<path d="M218.784 129.133H214.489V134.054H218.784V129.133Z" fill="#E6E6E6"/>
<path d="M227.382 129.133H223.087V134.054H227.382V129.133Z" fill="#E6E6E6"/>
<path d="M235.97 129.133H231.676V134.054H235.97V129.133Z" fill="#E6E6E6"/>
<path d="M244.564 129.133H240.27V134.054H244.564V129.133Z" fill="#E6E6E6"/>
<path d="M218.784 137.388H214.489V142.308H218.784V137.388Z" fill="#E6E6E6"/>
<path d="M227.382 137.388H223.087V142.308H227.382V137.388Z" fill="#E6E6E6"/>
<path d="M235.97 137.388H231.676V142.308H235.97V137.388Z" fill="#E6E6E6"/>
<path d="M244.564 137.388H240.27V142.308H244.564V137.388Z" fill="#E6E6E6"/>
<path d="M218.784 145.642H214.489V150.563H218.784V145.642Z" fill="#E6E6E6"/>
<path d="M227.382 145.642H223.087V150.563H227.382V145.642Z" fill="#E6E6E6"/>
<path d="M235.97 145.642H231.676V150.563H235.97V145.642Z" fill="#E6E6E6"/>
<path d="M244.564 145.642H240.27V150.563H244.564V145.642Z" fill="#E6E6E6"/>
<path d="M156.586 84.1631H152.63V88.6998H156.586V84.1631Z" fill="#FAFAFA"/>
<path d="M156.586 91.7686H152.63V96.3053H156.586V91.7686Z" fill="#FAFAFA"/>
<path d="M156.586 99.3785H152.63V103.915H156.586V99.3785Z" fill="#FAFAFA"/>
<path d="M156.586 106.979H152.63V111.516H156.586V106.979Z" fill="#FAFAFA"/>
<path d="M156.586 114.585H152.63V119.122H156.586V114.585Z" fill="#FAFAFA"/>
<path d="M156.586 122.195H152.63V126.732H156.586V122.195Z" fill="#FAFAFA"/>
<path d="M156.586 129.8H152.63V134.337H156.586V129.8Z" fill="#FAFAFA"/>
<path d="M156.586 137.406H152.63V141.943H156.586V137.406Z" fill="#FAFAFA"/>
<path d="M161.878 84.1631H157.922V88.6998H161.878V84.1631Z" fill="#FAFAFA"/>
<path d="M161.878 91.7686H157.922V96.3053H161.878V91.7686Z" fill="#FAFAFA"/>
<path d="M161.878 99.3785H157.922V103.915H161.878V99.3785Z" fill="#FAFAFA"/>
<path d="M161.878 106.979H157.922V111.516H161.878V106.979Z" fill="#FAFAFA"/>
<path d="M161.878 114.585H157.922V119.122H161.878V114.585Z" fill="#FAFAFA"/>
<path d="M161.878 122.195H157.922V126.732H161.878V122.195Z" fill="#FAFAFA"/>
<path d="M161.878 129.8H157.922V134.337H161.878V129.8Z" fill="#FAFAFA"/>
<path d="M161.878 137.406H157.922V141.943H161.878V137.406Z" fill="#FAFAFA"/>
<path d="M206.856 49.6893H202.562V54.6102H206.856V49.6893Z" fill="#FAFAFA"/>
<path d="M206.856 57.9396H202.562V62.8605H206.856V57.9396Z" fill="#FAFAFA"/>
<path d="M206.856 65.632H202.562V70.5529H206.856V65.632Z" fill="#FAFAFA"/>
<path d="M206.856 73.8822H202.562V78.8031H206.856V73.8822Z" fill="#FAFAFA"/>
<path d="M206.856 82.1326H202.562V87.0535H206.856V82.1326Z" fill="#FAFAFA"/>
<path d="M206.856 90.392H202.562V95.3129H206.856V90.392Z" fill="#FAFAFA"/>
<path d="M206.856 98.6422H202.562V103.563H206.856V98.6422Z" fill="#FAFAFA"/>
<path d="M206.856 106.902H202.562V111.823H206.856V106.902Z" fill="#FAFAFA"/>
<path d="M271.372 42.532H267.078V47.453H271.372V42.532Z" fill="#FAFAFA"/>
<path d="M271.372 50.7823H267.078V55.7033H271.372V50.7823Z" fill="#FAFAFA"/>
<path d="M271.372 59.0417H267.078V63.9627H271.372V59.0417Z" fill="#FAFAFA"/>
<path d="M271.372 67.2921H267.078V72.213H271.372V67.2921Z" fill="#FAFAFA"/>
<path d="M271.372 75.5515H267.078V80.4724H271.372V75.5515Z" fill="#FAFAFA"/>
<path d="M271.372 83.8018H267.078V88.7227H271.372V83.8018Z" fill="#FAFAFA"/>
<path d="M271.372 92.0566H267.078V96.9776H271.372V92.0566Z" fill="#FAFAFA"/>
<path d="M271.372 100.312H267.078V105.232H271.372V100.312Z" fill="#FAFAFA"/>
<path d="M302.142 80.4496H276.275V158.269H302.142V80.4496Z" fill="#E6E6E6"/>
<path d="M287.686 84.2866H280.103V89.2075H287.686V84.2866Z" fill="#FAFAFA"/>
<path d="M287.686 92.546H280.103V97.4669H287.686V92.546Z" fill="#FAFAFA"/>
<path d="M287.686 100.796H280.103V105.717H287.686V100.796Z" fill="#FAFAFA"/>
<path d="M287.686 109.051H280.103V113.972H287.686V109.051Z" fill="#FAFAFA"/>
<path d="M287.686 117.306H280.103V122.227H287.686V117.306Z" fill="#FAFAFA"/>
<path d="M287.686 125.556H280.103V130.477H287.686V125.556Z" fill="#FAFAFA"/>
<path d="M287.686 133.816H280.103V138.737H287.686V133.816Z" fill="#FAFAFA"/>
<path d="M287.686 142.066H280.103V146.987H287.686V142.066Z" fill="#FAFAFA"/>
<path d="M297.829 84.2866H290.247V89.2075H297.829V84.2866Z" fill="#FAFAFA"/>
<path d="M297.829 92.546H290.247V97.4669H297.829V92.546Z" fill="#FAFAFA"/>
<path d="M297.829 100.796H290.247V105.717H297.829V100.796Z" fill="#FAFAFA"/>
<path d="M297.829 109.051H290.247V113.972H297.829V109.051Z" fill="#FAFAFA"/>
<path d="M297.829 117.306H290.247V122.227H297.829V117.306Z" fill="#FAFAFA"/>
<path d="M297.829 125.556H290.247V130.477H297.829V125.556Z" fill="#FAFAFA"/>
<path d="M297.829 133.816H290.247V138.737H297.829V133.816Z" fill="#FAFAFA"/>
<path d="M297.829 142.066H290.247V146.987H297.829V142.066Z" fill="#FAFAFA"/>
<path d="M262.171 158.237V104.373H250.889V158.237H262.171Z" fill="#E0E0E0"/>
<path d="M253.111 106.55H251.744V110.217H253.111V106.55Z" fill="#FAFAFA"/>
<path d="M255.846 106.55H254.479V110.217H255.846V106.55Z" fill="#FAFAFA"/>
<path d="M258.576 106.55H257.209V110.217H258.576V106.55Z" fill="#FAFAFA"/>
<path d="M261.316 106.55H259.948V110.217H261.316V106.55Z" fill="#FAFAFA"/>
<path d="M253.111 112.705H251.744V116.373H253.111V112.705Z" fill="#FAFAFA"/>
<path d="M255.846 112.705H254.479V116.373H255.846V112.705Z" fill="#FAFAFA"/>
<path d="M258.576 112.705H257.209V116.373H258.576V112.705Z" fill="#FAFAFA"/>
<path d="M261.316 112.705H259.948V116.373H261.316V112.705Z" fill="#FAFAFA"/>
<path d="M253.111 118.856H251.744V122.524H253.111V118.856Z" fill="#FAFAFA"/>
<path d="M255.846 118.856H254.479V122.524H255.846V118.856Z" fill="#FAFAFA"/>
<path d="M258.576 118.856H257.209V122.524H258.576V118.856Z" fill="#FAFAFA"/>
<path d="M261.316 118.856H259.948V122.524H261.316V118.856Z" fill="#FAFAFA"/>
<path d="M253.111 125.012H251.744V128.68H253.111V125.012Z" fill="#FAFAFA"/>
<path d="M255.846 125.012H254.479V128.68H255.846V125.012Z" fill="#FAFAFA"/>
<path d="M258.576 125.012H257.209V128.68H258.576V125.012Z" fill="#FAFAFA"/>
<path d="M261.316 125.012H259.948V128.68H261.316V125.012Z" fill="#FAFAFA"/>
<path d="M253.111 131.172H251.744V134.84H253.111V131.172Z" fill="#FAFAFA"/>
<path d="M255.846 131.172H254.479V134.84H255.846V131.172Z" fill="#FAFAFA"/>
<path d="M258.576 131.172H257.209V134.84H258.576V131.172Z" fill="#FAFAFA"/>
<path d="M261.316 131.172H259.948V134.84H261.316V131.172Z" fill="#FAFAFA"/>
<path d="M253.111 137.323H251.744V140.991H253.111V137.323Z" fill="#FAFAFA"/>
<path d="M255.846 137.323H254.479V140.991H255.846V137.323Z" fill="#FAFAFA"/>
<path d="M258.576 137.323H257.209V140.991H258.576V137.323Z" fill="#FAFAFA"/>
<path d="M261.316 137.323H259.948V140.991H261.316V137.323Z" fill="#FAFAFA"/>
<path d="M253.111 143.479H251.744V147.147H253.111V143.479Z" fill="#FAFAFA"/>
<path d="M255.846 143.479H254.479V147.147H255.846V143.479Z" fill="#FAFAFA"/>
<path d="M258.576 143.479H257.209V147.147H258.576V143.479Z" fill="#FAFAFA"/>
<path d="M261.316 143.479H259.948V147.147H261.316V143.479Z" fill="#FAFAFA"/>
<path d="M253.111 149.63H251.744V153.298H253.111V149.63Z" fill="#FAFAFA"/>
<path d="M255.846 149.63H254.479V153.298H255.846V149.63Z" fill="#FAFAFA"/>
<path d="M258.576 149.63H257.209V153.298H258.576V149.63Z" fill="#FAFAFA"/>
<path d="M261.316 149.63H259.948V153.298H261.316V149.63Z" fill="#FAFAFA"/>
<path d="M127.015 116.41H123.356V119.488H127.015V116.41Z" fill="#E6E6E6"/>
<path d="M134.328 116.41H130.669V119.488H134.328V116.41Z" fill="#E6E6E6"/>
<path d="M141.636 116.41H137.978V119.488H141.636V116.41Z" fill="#E6E6E6"/>
<path d="M148.954 116.41H145.295V119.488H148.954V116.41Z" fill="#E6E6E6"/>
<path d="M127.015 121.573H123.356V124.651H127.015V121.573Z" fill="#E6E6E6"/>
<path d="M134.328 121.573H130.669V124.651H134.328V121.573Z" fill="#E6E6E6"/>
<path d="M141.636 121.573H137.978V124.651H141.636V121.573Z" fill="#E6E6E6"/>
<path d="M148.954 121.573H145.295V124.651H148.954V121.573Z" fill="#E6E6E6"/>
<path d="M127.015 126.732H123.356V129.81H127.015V126.732Z" fill="#E6E6E6"/>
<path d="M134.328 126.732H130.669V129.81H134.328V126.732Z" fill="#E6E6E6"/>
<path d="M141.636 126.732H137.978V129.81H141.636V126.732Z" fill="#E6E6E6"/>
<path d="M148.954 126.732H145.295V129.81H148.954V126.732Z" fill="#E6E6E6"/>
<path d="M127.015 131.895H123.356V134.973H127.015V131.895Z" fill="#E6E6E6"/>
<path d="M134.328 131.895H130.669V134.973H134.328V131.895Z" fill="#E6E6E6"/>
<path d="M141.636 131.895H137.978V134.973H141.636V131.895Z" fill="#E6E6E6"/>
<path d="M148.954 131.895H145.295V134.973H148.954V131.895Z" fill="#E6E6E6"/>
<path d="M127.015 137.054H123.356V140.132H127.015V137.054Z" fill="#E6E6E6"/>
<path d="M134.328 137.054H130.669V140.132H134.328V137.054Z" fill="#E6E6E6"/>
<path d="M141.636 137.054H137.978V140.132H141.636V137.054Z" fill="#E6E6E6"/>
<path d="M148.954 137.054H145.295V140.132H148.954V137.054Z" fill="#E6E6E6"/>
<path d="M127.015 142.212H123.356V145.29H127.015V142.212Z" fill="#E6E6E6"/>
<path d="M134.328 142.212H130.669V145.29H134.328V142.212Z" fill="#E6E6E6"/>
<path d="M141.636 142.212H137.978V145.29H141.636V142.212Z" fill="#E6E6E6"/>
<path d="M148.954 142.212H145.295V145.29H148.954V142.212Z" fill="#E6E6E6"/>
<path d="M127.015 147.376H123.356V150.454H127.015V147.376Z" fill="#E6E6E6"/>
<path d="M134.328 147.376H130.669V150.454H134.328V147.376Z" fill="#E6E6E6"/>
<path d="M141.636 147.376H137.978V150.454H141.636V147.376Z" fill="#E6E6E6"/>
<path d="M148.954 147.376H145.295V150.454H148.954V147.376Z" fill="#E6E6E6"/>
<path d="M324.414 193.937H298.927V194.129H324.414V193.937Z" fill="#EBEBEB"/>
<path d="M233.089 196.022H226.398V196.214H233.089V196.022Z" fill="#EBEBEB"/>
<path d="M51.8204 188.083H18.5859V188.275H51.8204V188.083Z" fill="#EBEBEB"/>
<path d="M63.551 188.083H58.6758V188.275H63.551V188.083Z" fill="#EBEBEB"/>
<path d="M151.469 191.33H79.3887V191.522H151.469V191.33Z" fill="#EBEBEB"/>
<path d="M333 220.5C333 229.625 271.887 237 196.5 237C121.113 237 60 229.625 60 220.5C60 211.375 121.113 204 196.5 204C271.887 204 333 211.402 333 220.5Z" fill="#F5F5F5"/>
<path d="M26.4292 38.3748H90.616C92.2058 38.3748 93.7308 39.0048 94.8572 40.1268C95.9835 41.2489 96.6193 42.7715 96.6253 44.3613V177.875C96.6253 179.937 95.8062 181.915 94.3482 183.373C92.8901 184.831 90.9126 185.65 88.8507 185.65H28.2083C26.1463 185.65 24.1688 184.831 22.7107 183.373C21.2527 181.915 20.4336 179.937 20.4336 177.875V44.3613C20.4396 42.7739 21.0735 41.2533 22.1969 40.1317C23.3203 39.01 24.8418 38.3784 26.4292 38.3748Z" fill="#263238"/>
<path d="M74.321 41.6813L73.0999 44.0915H43.2818L41.5073 41.6813H27.4123C26.8774 41.6777 26.3471 41.7798 25.8519 41.9817C25.3566 42.1836 24.906 42.4813 24.5261 42.8578C24.1462 43.2343 23.8444 43.6821 23.6381 44.1756C23.4318 44.6691 23.3249 45.1984 23.3237 45.7333V175.662C23.3285 176.467 23.492 177.264 23.805 178.007C24.1179 178.749 24.5741 179.423 25.1475 179.989C25.7208 180.555 26.4001 181.003 27.1466 181.306C27.893 181.61 28.692 181.763 29.4977 181.758H87.547C88.3524 181.763 89.1509 181.609 89.8968 181.305C90.6427 181.001 91.3215 180.554 91.8944 179.988C92.4673 179.421 92.923 178.748 93.2357 178.006C93.5483 177.264 93.7117 176.467 93.7165 175.662V45.7333C93.7153 45.1992 93.6087 44.6706 93.403 44.1777C93.1972 43.6849 92.8962 43.2374 92.5173 42.8611C92.1384 42.4847 91.6889 42.1867 91.1947 41.9843C90.7005 41.7819 90.1711 41.6789 89.6371 41.6813H74.321Z" fill="white"/>
<path d="M58.4883 41.4527C58.4919 41.6958 58.4231 41.9346 58.2907 42.1385C58.1582 42.3425 57.9681 42.5024 57.7445 42.598C57.5209 42.6936 57.2739 42.7204 57.0349 42.6752C56.796 42.63 56.5759 42.5148 56.4026 42.3441C56.2294 42.1735 56.1108 41.9551 56.062 41.7169C56.0132 41.4786 56.0364 41.2313 56.1286 41.0062C56.2208 40.7812 56.3779 40.5887 56.5798 40.4532C56.7818 40.3177 57.0194 40.2453 57.2626 40.2453C57.5845 40.2453 57.8936 40.3719 58.1229 40.5978C58.3522 40.8237 58.4835 41.1308 58.4883 41.4527Z" fill="white"/>
<path d="M60.2994 41.4527C60.2994 41.5739 60.2634 41.6924 60.1961 41.7931C60.1288 41.8939 60.0331 41.9725 59.9211 42.0188C59.8091 42.0652 59.6859 42.0774 59.567 42.0537C59.4481 42.0301 59.3389 41.9717 59.2532 41.886C59.1675 41.8003 59.1092 41.6911 59.0855 41.5722C59.0619 41.4533 59.074 41.3301 59.1204 41.2182C59.1668 41.1062 59.2453 41.0105 59.3461 40.9431C59.4469 40.8758 59.5653 40.8398 59.6866 40.8398C59.8491 40.8398 60.005 40.9044 60.1199 41.0193C60.2348 41.1343 60.2994 41.2901 60.2994 41.4527Z" fill="white"/>
<path d="M89.6371 41.6813H74.321L73.0999 44.0915H43.2818L41.5073 41.6813H27.4123C26.8774 41.6777 26.3471 41.7798 25.8519 41.9817C25.3566 42.1836 24.906 42.4813 24.5261 42.8578C24.1462 43.2343 23.8444 43.6821 23.6381 44.1756C23.4318 44.6691 23.3249 45.1984 23.3237 45.7333V78.9768H93.7165V45.7333C93.7153 45.1992 93.6087 44.6706 93.403 44.1777C93.1972 43.6849 92.8962 43.2374 92.5173 42.8611C92.1384 42.4847 91.6889 42.1867 91.1947 41.9843C90.7005 41.7819 90.1711 41.6789 89.6371 41.6813Z" fill="url(#paint0_linear_8_88)"/>
<path d="M53.9784 74.11C53.3917 74.11 52.8454 74.0147 52.3394 73.824C51.8407 73.626 51.4044 73.351 51.0304 72.999C50.6637 72.6397 50.3777 72.218 50.1724 71.734C49.967 71.25 49.8644 70.722 49.8644 70.15C49.8644 69.578 49.967 69.05 50.1724 68.566C50.3777 68.082 50.6674 67.664 51.0414 67.312C51.4154 66.9527 51.8517 66.6777 52.3504 66.487C52.849 66.289 53.3954 66.19 53.9894 66.19C54.62 66.19 55.1957 66.3 55.7164 66.52C56.237 66.7327 56.677 67.0517 57.0364 67.477L56.1124 68.346C55.8337 68.0453 55.522 67.8217 55.1774 67.675C54.8327 67.521 54.4587 67.444 54.0554 67.444C53.652 67.444 53.2817 67.51 52.9444 67.642C52.6144 67.774 52.3247 67.961 52.0754 68.203C51.8334 68.445 51.6427 68.731 51.5034 69.061C51.3714 69.391 51.3054 69.754 51.3054 70.15C51.3054 70.546 51.3714 70.909 51.5034 71.239C51.6427 71.569 51.8334 71.855 52.0754 72.097C52.3247 72.339 52.6144 72.526 52.9444 72.658C53.2817 72.79 53.652 72.856 54.0554 72.856C54.4587 72.856 54.8327 72.7827 55.1774 72.636C55.522 72.482 55.8337 72.251 56.1124 71.943L57.0364 72.823C56.677 73.241 56.237 73.56 55.7164 73.78C55.1957 74 54.6164 74.11 53.9784 74.11ZM61.8398 74V72.812L61.7628 72.559V70.48C61.7628 70.0767 61.6418 69.765 61.3998 69.545C61.1578 69.3177 60.7912 69.204 60.2998 69.204C59.9698 69.204 59.6435 69.2553 59.3208 69.358C59.0055 69.4607 58.7378 69.6037 58.5178 69.787L57.9788 68.786C58.2942 68.544 58.6682 68.3643 59.1008 68.247C59.5408 68.1223 59.9955 68.06 60.4648 68.06C61.3155 68.06 61.9718 68.2653 62.4338 68.676C62.9032 69.0793 63.1378 69.7063 63.1378 70.557V74H61.8398ZM59.9918 74.077C59.5518 74.077 59.1668 74.0037 58.8368 73.857C58.5068 73.703 58.2502 73.494 58.0668 73.23C57.8908 72.9587 57.8028 72.6543 57.8028 72.317C57.8028 71.987 57.8798 71.69 58.0338 71.426C58.1952 71.162 58.4555 70.953 58.8148 70.799C59.1742 70.645 59.6508 70.568 60.2448 70.568H61.9498V71.481H60.3438C59.8745 71.481 59.5592 71.558 59.3978 71.712C59.2365 71.8587 59.1558 72.042 59.1558 72.262C59.1558 72.5113 59.2548 72.7093 59.4528 72.856C59.6508 73.0027 59.9258 73.076 60.2778 73.076C60.6152 73.076 60.9158 72.999 61.1798 72.845C61.4512 72.691 61.6455 72.4637 61.7628 72.163L61.9938 72.988C61.8618 73.3327 61.6235 73.6003 61.2788 73.791C60.9415 73.9817 60.5125 74.077 59.9918 74.077ZM64.9025 74V68.126H66.2115V69.743L66.0575 69.27C66.2335 68.874 66.5085 68.5733 66.8825 68.368C67.2638 68.1627 67.7368 68.06 68.3015 68.06V69.369C68.2428 69.3543 68.1878 69.347 68.1365 69.347C68.0852 69.3397 68.0338 69.336 67.9825 69.336C67.4618 69.336 67.0475 69.49 66.7395 69.798C66.4315 70.0987 66.2775 70.5497 66.2775 71.151V74H64.9025Z" fill="white"/>
<path d="M66.1168 58.7124V56.2931C66.1145 56.1956 66.0898 56.0999 66.0446 56.0134C65.9994 55.927 65.9349 55.8521 65.8561 55.7946L65.8012 55.7626L64.0862 54.8479C64.0734 54.839 64.0638 54.8261 64.0588 54.8113C64.0544 54.7999 64.0524 54.7878 64.0528 54.7756C64.0532 54.7634 64.0561 54.7514 64.0612 54.7403C64.0663 54.7292 64.0736 54.7193 64.0826 54.7111C64.0916 54.7028 64.1022 54.6965 64.1137 54.6924L64.3195 54.6192C64.3283 54.6155 64.3361 54.6099 64.3424 54.6028C64.3488 54.5957 64.3534 54.5872 64.3561 54.5781C64.3563 54.565 64.3517 54.5522 64.3434 54.5422C64.335 54.5321 64.3233 54.5254 64.3103 54.5232C63.4963 54.4089 60.327 53.9973 58.6623 54.1985C58.3087 54.2329 57.9604 54.3081 57.6241 54.4226C56.7051 54.7682 55.8491 55.2626 55.0905 55.8861L54.839 56.0919C53.7022 56.0845 52.5768 56.3183 51.537 56.7779C51.4467 56.8185 51.3656 56.8772 51.2987 56.9504C51.2319 57.0235 51.1807 57.1095 51.1483 57.2032L50.9562 57.7794C50.9289 57.8526 50.915 57.93 50.915 58.0081V59.2246C50.9146 59.3518 50.9554 59.4758 51.0312 59.578C51.107 59.6802 51.2139 59.7552 51.3358 59.7917L51.4318 59.8237C51.4943 59.8418 51.5589 59.851 51.6239 59.8511H52.2779V59.7963H52.5614C52.6292 60.0186 52.7501 60.2211 52.9136 60.3862C53.0858 60.5637 53.3027 60.6914 53.5415 60.7557C53.7803 60.82 54.0321 60.8186 54.2701 60.7516C54.5082 60.6846 54.7237 60.5545 54.8938 60.375C55.064 60.1956 55.1825 59.9735 55.2368 59.7322H55.5204V59.7963L62.0374 59.6408H62.1975C62.1975 59.6408 62.1975 59.5996 62.1975 59.5813H62.4719C62.4803 59.9452 62.633 60.2908 62.8963 60.5421C63.1596 60.7934 63.512 60.9298 63.8759 60.9213C64.2397 60.9128 64.5853 60.7601 64.8366 60.4968C65.0879 60.2335 65.2243 59.8812 65.2159 59.5173H65.4903H65.5177L65.6457 59.4578L65.7418 59.4167C65.8521 59.3673 65.9458 59.287 66.0115 59.1856C66.0772 59.0841 66.1122 58.9659 66.1122 58.845V58.781L66.1168 58.7124Z" fill="white"/>
<path d="M83.6416 125.218L30.6641 126.457V117.397H84.1492L83.6416 125.218Z" fill="#263238"/>
<path d="M28.6245 119.721V124.317C28.6232 124.797 28.7763 125.265 29.0612 125.651C29.3462 126.037 29.7479 126.321 30.2069 126.462L30.5819 126.576C30.8126 126.649 31.0536 126.683 31.2953 126.677L33.7695 126.617C33.505 125.696 33.4552 124.726 33.6241 123.783C33.7929 122.839 34.1759 121.947 34.7435 121.174C35.3111 120.402 36.0483 119.77 36.8984 119.327C37.7485 118.884 38.6888 118.641 39.6472 118.619C40.6055 118.596 41.5563 118.793 42.4264 119.195C43.2966 119.598 44.063 120.194 44.6666 120.938C45.2703 121.683 45.6952 122.556 45.9087 123.491C46.1221 124.425 46.1185 125.396 45.898 126.329L71.0742 125.73C71.0338 125.436 71.014 125.14 71.0147 124.843C70.9961 124.006 71.1454 123.173 71.4537 122.394C71.7621 121.616 72.2233 120.907 72.8102 120.309C73.397 119.712 74.0976 119.238 74.8706 118.916C75.6435 118.594 76.4732 118.43 77.3107 118.433C78.1481 118.437 78.9764 118.608 79.7465 118.937C80.5166 119.266 81.213 119.746 81.7946 120.349C82.3762 120.951 82.8312 121.664 83.1327 122.446C83.4343 123.227 83.5762 124.061 83.5503 124.898C83.5503 125.021 83.5503 125.14 83.5503 125.259L83.6509 125.218L84.5107 124.834C84.9223 124.642 85.2703 124.337 85.5135 123.953C85.7567 123.57 85.8848 123.125 85.8826 122.671V113.313C85.8836 112.881 85.7659 112.457 85.5426 112.087C85.3192 111.717 84.9987 111.415 84.6158 111.214L78.1446 107.812C78.0719 107.771 78.0155 107.706 77.9845 107.629C77.9663 107.585 77.9572 107.539 77.9579 107.492C77.9585 107.445 77.9687 107.398 77.988 107.355C78.0073 107.313 78.0353 107.274 78.07 107.242C78.1048 107.211 78.1458 107.187 78.1903 107.171L78.9815 106.888C79.0137 106.876 79.0421 106.856 79.0638 106.829C79.0855 106.803 79.0997 106.771 79.105 106.737C79.1082 106.713 79.1065 106.689 79.1002 106.665C79.0939 106.642 79.0829 106.62 79.068 106.601C79.0531 106.581 79.0346 106.565 79.0134 106.554C78.9923 106.542 78.969 106.534 78.9449 106.531C75.8716 106.101 63.9124 104.537 57.624 105.306C50.389 106.211 43.4467 112.504 43.4467 112.504C38.1096 112.303 33.1293 114.164 30.9844 115.093C30.6419 115.242 30.3346 115.462 30.0825 115.737C29.8304 116.013 29.6391 116.339 29.5209 116.693L28.7846 118.866C28.6861 119.14 28.6321 119.429 28.6245 119.721Z" fill="url(#paint1_linear_8_88)"/>
<path d="M71.0788 125.73C71.0422 125.454 71.0238 125.176 71.0239 124.898C71.0239 124.756 71.0239 124.614 71.0239 124.477L66.4506 122.611C66.1836 122.504 65.8963 122.457 65.6091 122.474L49.7717 123.517C49.5132 123.531 49.2607 123.599 49.0308 123.718L46.0215 125.268C46.0011 125.626 45.9506 125.98 45.8706 126.329L71.0788 125.73Z" fill="#263238"/>
<path d="M85.901 122.671V122.433L83.3262 123.219C83.4736 123.767 83.549 124.331 83.5503 124.898C83.5503 125.021 83.5503 125.14 83.5503 125.259L83.6509 125.218L84.5152 124.834C84.9291 124.644 85.2797 124.339 85.5253 123.955C85.771 123.572 85.9013 123.126 85.901 122.671Z" fill="#263238"/>
<path d="M29.3564 125.968C29.6015 126.196 29.8957 126.365 30.2162 126.462L30.5912 126.576C30.8219 126.649 31.063 126.683 31.3047 126.677L33.7789 126.617C33.6879 126.304 33.6222 125.985 33.5822 125.661L29.3564 125.968Z" fill="#263238"/>
<path d="M77.2892 118.038C77.0048 118.038 76.7207 118.056 76.4386 118.093C74.6365 118.321 72.9986 119.255 71.8841 120.689C70.7695 122.123 70.2694 123.941 70.4933 125.744H71.0878C71.0474 125.45 71.0276 125.153 71.0283 124.857C71.0097 124.019 71.1589 123.187 71.4673 122.408C71.7757 121.63 72.2369 120.921 72.8237 120.323C73.4106 119.726 74.1112 119.252 74.8842 118.93C75.6571 118.607 76.4868 118.443 77.3243 118.447C78.1617 118.451 78.99 118.622 79.7601 118.951C80.5302 119.28 81.2266 119.76 81.8082 120.363C82.3898 120.965 82.8448 121.678 83.1463 122.459C83.4479 123.241 83.5898 124.074 83.5638 124.911C83.5638 125.035 83.5638 125.154 83.5638 125.273L83.6645 125.232L84.1584 125.007V124.911C84.1584 123.092 83.4356 121.347 82.1491 120.061C80.8626 118.774 79.1178 118.051 77.2984 118.051L77.2892 118.038Z" fill="#263238"/>
<path d="M39.7881 118.038C39.2017 118.039 38.6177 118.114 38.0502 118.262C36.2905 118.722 34.7855 119.862 33.8661 121.431C32.9468 123.001 32.6883 124.871 33.1476 126.631H33.7604C33.4959 125.71 33.4462 124.74 33.615 123.796C33.7838 122.853 34.1668 121.96 34.7344 121.188C35.3021 120.415 36.0393 119.783 36.8893 119.34C37.7394 118.897 38.6798 118.655 39.6381 118.632C40.5964 118.61 41.5472 118.807 42.4174 119.209C43.2875 119.611 44.0539 120.208 44.6576 120.952C45.2612 121.697 45.6861 122.57 45.8996 123.504C46.1131 124.439 46.1094 125.41 45.8889 126.343H46.4926C46.5932 125.875 46.6438 125.399 46.6435 124.921C46.6435 123.101 45.9208 121.356 44.6343 120.07C43.3478 118.783 41.6029 118.061 39.7835 118.061L39.7881 118.038Z" fill="#263238"/>
<path d="M45.8112 112.394C45.7388 112.448 45.6884 112.526 45.6694 112.614C45.65 112.713 45.6696 112.816 45.7241 112.901C45.7786 112.986 45.8639 113.047 45.9621 113.071L48.5917 113.675C48.826 113.726 49.067 113.738 49.3052 113.711L68.6641 111.306C69.1349 111.246 69.5709 111.027 69.8989 110.684L72.3914 108.045C72.4752 107.958 72.5268 107.845 72.5377 107.725C72.5447 107.654 72.5376 107.583 72.517 107.515C72.4964 107.447 72.4626 107.384 72.4176 107.329C72.3726 107.275 72.3172 107.229 72.2546 107.196C72.1921 107.163 72.1235 107.142 72.0529 107.135C67.3973 106.678 61.5114 106.261 57.8116 106.714C52.9593 107.322 48.1298 110.602 45.8112 112.394Z" fill="#263238"/>
<g opacity="0.3">
<path d="M58.5385 114.617C58.509 114.606 58.4819 114.59 58.4588 114.569C58.4357 114.547 58.417 114.522 58.4038 114.493C58.3906 114.465 58.3832 114.434 58.382 114.403C58.3808 114.371 58.3858 114.34 58.3967 114.311C58.4228 114.235 58.4713 114.169 58.5359 114.121C58.6005 114.074 58.678 114.047 58.758 114.045L61.0676 113.949C61.0974 113.941 61.1292 113.941 61.159 113.949C61.2187 113.971 61.2675 114.015 61.2948 114.073C61.3222 114.13 61.326 114.196 61.3054 114.256C61.278 114.331 61.2284 114.397 61.1632 114.444C61.098 114.492 61.02 114.518 60.9395 114.521L58.63 114.617C58.5997 114.621 58.5688 114.621 58.5385 114.617Z" fill="black"/>
</g>
<path d="M75.7068 107.999C75.6103 108.088 75.552 108.21 75.5443 108.341C75.5366 108.471 75.5802 108.6 75.6657 108.699L76.2145 109.294C76.278 109.361 76.3586 109.41 76.4477 109.435L83.1568 111.297C83.273 111.328 83.3931 111.344 83.5135 111.342H84.8443C84.775 111.296 84.7032 111.253 84.6294 111.214L78.1581 107.807C78.117 107.788 78.0803 107.761 78.0503 107.727C78.0203 107.694 77.9977 107.654 77.9839 107.611C77.9701 107.568 77.9655 107.522 77.9703 107.477C77.9751 107.432 77.9892 107.389 78.0118 107.35L75.9081 107.876C75.8321 107.9 75.7632 107.943 75.7068 107.999Z" fill="#263238"/>
<path d="M43.4468 112.504L43.8126 112.609C43.9524 112.647 44.0991 112.651 44.2406 112.62C44.3821 112.59 44.5144 112.527 44.6267 112.435C46.7487 110.638 50.4348 107.862 54.4136 106.604C54.4228 106.602 54.4312 106.597 54.4383 106.591C54.4455 106.584 54.4511 106.577 54.4548 106.568C54.4597 106.559 54.4628 106.55 54.4641 106.541C54.4654 106.531 54.4647 106.521 54.4621 106.512C54.4596 106.502 54.4552 106.494 54.4492 106.486C54.4432 106.478 54.4358 106.472 54.4274 106.467L53.9334 106.216C48.1848 108.201 43.4468 112.504 43.4468 112.504Z" fill="#263238"/>
<path d="M77.294 130.121C80.1785 130.121 82.5168 127.782 82.5168 124.898C82.5168 122.013 80.1785 119.675 77.294 119.675C74.4096 119.675 72.0713 122.013 72.0713 124.898C72.0713 127.782 74.4096 130.121 77.294 130.121Z" fill="#263238"/>
<path opacity="0.4" d="M77.2941 128.099C79.0622 128.099 80.4954 126.666 80.4954 124.898C80.4954 123.13 79.0622 121.696 77.2941 121.696C75.5261 121.696 74.0928 123.13 74.0928 124.898C74.0928 126.666 75.5261 128.099 77.2941 128.099Z" fill="white"/>
<g opacity="0.3">
<path d="M77.5498 122.273C77.5498 122.131 77.4351 122.016 77.2937 122.016C77.1523 122.016 77.0376 122.131 77.0376 122.273V123.914C77.0376 124.056 77.1523 124.171 77.2937 124.171C77.4351 124.171 77.5498 124.056 77.5498 123.914V122.273Z" fill="white"/>
</g>
<g opacity="0.3">
<path d="M77.5498 125.881C77.5498 125.74 77.4351 125.625 77.2937 125.625C77.1523 125.625 77.0376 125.74 77.0376 125.881V127.523C77.0376 127.664 77.1523 127.779 77.2937 127.779C77.4351 127.779 77.5498 127.664 77.5498 127.523V125.881Z" fill="white"/>
</g>
<g opacity="0.3">
<path d="M78.2726 124.628C78.213 124.661 78.1428 124.67 78.0769 124.652C78.0111 124.634 77.9549 124.591 77.9205 124.532C77.8874 124.473 77.879 124.403 77.8969 124.338C77.9149 124.273 77.9579 124.218 78.0165 124.184L79.4388 123.356C79.4977 123.323 79.5673 123.315 79.6324 123.333C79.6975 123.351 79.7528 123.394 79.7864 123.453C79.8036 123.481 79.8148 123.513 79.8195 123.546C79.8242 123.579 79.8222 123.613 79.8137 123.646C79.8052 123.678 79.7903 123.708 79.7699 123.735C79.7495 123.761 79.724 123.784 79.6949 123.8L78.2726 124.628Z" fill="white"/>
</g>
<g opacity="0.3">
<path d="M75.1491 126.425C75.0895 126.458 75.0192 126.467 74.9534 126.449C74.8875 126.431 74.8314 126.388 74.7969 126.329C74.7639 126.27 74.7554 126.201 74.7734 126.136C74.7914 126.07 74.8344 126.015 74.893 125.982L76.3107 125.154C76.3703 125.121 76.4405 125.112 76.5064 125.13C76.5722 125.148 76.6284 125.191 76.6628 125.25C76.6954 125.309 76.704 125.379 76.687 125.444C76.67 125.51 76.6286 125.566 76.5714 125.602L75.1491 126.425Z" fill="white"/>
</g>
<g opacity="0.3">
<path d="M79.4386 126.43L78.0163 125.607C77.9574 125.572 77.9143 125.516 77.8964 125.45C77.8784 125.384 77.887 125.314 77.9203 125.254C77.9373 125.225 77.9599 125.2 77.9869 125.179C78.0138 125.159 78.0446 125.144 78.0773 125.135C78.11 125.127 78.1441 125.125 78.1776 125.13C78.2111 125.134 78.2433 125.146 78.2724 125.163L79.6947 125.986C79.7529 126.021 79.795 126.078 79.8121 126.144C79.8292 126.209 79.8199 126.279 79.7862 126.338C79.7696 126.367 79.7474 126.393 79.7209 126.413C79.6944 126.434 79.664 126.449 79.6317 126.457C79.5993 126.466 79.5655 126.468 79.5324 126.463C79.4992 126.458 79.4674 126.447 79.4386 126.43Z" fill="white"/>
</g>
<g opacity="0.3">
<path d="M76.6628 124.532C76.6284 124.591 76.5722 124.634 76.5064 124.652C76.4405 124.67 76.3703 124.661 76.3107 124.628L74.893 123.8C74.8344 123.767 74.7914 123.711 74.7734 123.646C74.7554 123.581 74.7639 123.512 74.7969 123.453C74.8314 123.394 74.8875 123.351 74.9534 123.333C75.0192 123.315 75.0895 123.323 75.1491 123.357L76.5714 124.184C76.6292 124.219 76.6712 124.274 76.6883 124.339C76.7054 124.404 76.6963 124.474 76.6628 124.532Z" fill="white"/>
</g>
<path d="M76.8643 124.893C76.8655 124.78 76.9113 124.672 76.9918 124.592C77.0723 124.513 77.1809 124.468 77.2941 124.468C77.3792 124.468 77.4623 124.493 77.533 124.54C77.6037 124.588 77.6588 124.655 77.6913 124.733C77.7239 124.812 77.7324 124.898 77.7158 124.982C77.6992 125.065 77.6583 125.142 77.5981 125.202C77.538 125.262 77.4614 125.303 77.378 125.319C77.2946 125.336 77.2082 125.327 77.1296 125.295C77.0511 125.262 76.9839 125.207 76.9367 125.137C76.8895 125.066 76.8643 124.983 76.8643 124.898V124.893Z" fill="#263238"/>
<path d="M39.8018 130.121C42.6863 130.121 45.0246 127.782 45.0246 124.898C45.0246 122.013 42.6863 119.675 39.8018 119.675C36.9174 119.675 34.5791 122.013 34.5791 124.898C34.5791 127.782 36.9174 130.121 39.8018 130.121Z" fill="#263238"/>
<path opacity="0.4" d="M39.8019 128.099C41.57 128.099 43.0033 126.666 43.0033 124.898C43.0033 123.13 41.57 121.696 39.8019 121.696C38.0339 121.696 36.6006 123.13 36.6006 124.898C36.6006 126.666 38.0339 128.099 39.8019 128.099Z" fill="white"/>
<g opacity="0.3">
<path d="M40.0576 122.273C40.0576 122.131 39.943 122.016 39.8015 122.016C39.6601 122.016 39.5454 122.131 39.5454 122.273V123.914C39.5454 124.056 39.6601 124.171 39.8015 124.171C39.943 124.171 40.0576 124.056 40.0576 123.914V122.273Z" fill="white"/>
</g>
<g opacity="0.3">
<path d="M40.0576 125.881C40.0576 125.74 39.943 125.625 39.8015 125.625C39.6601 125.625 39.5454 125.74 39.5454 125.881V127.523C39.5454 127.664 39.6601 127.779 39.8015 127.779C39.943 127.779 40.0576 127.664 40.0576 127.523V125.881Z" fill="white"/>
</g>
<g opacity="0.3">
<path d="M40.7804 124.628C40.7215 124.661 40.6519 124.669 40.5869 124.651C40.5218 124.633 40.4664 124.59 40.4328 124.532C40.3994 124.473 40.3902 124.404 40.4074 124.339C40.4245 124.274 40.4665 124.219 40.5243 124.184L41.9466 123.356C42.0055 123.323 42.0751 123.315 42.1402 123.333C42.2053 123.351 42.2606 123.394 42.2942 123.453C42.3272 123.511 42.3357 123.581 42.3177 123.646C42.2997 123.711 42.2567 123.767 42.1981 123.8L40.7804 124.628Z" fill="white"/>
</g>
<g opacity="0.3">
<path d="M37.3095 126.329C37.2924 126.3 37.2811 126.269 37.2764 126.235C37.2717 126.202 37.2737 126.169 37.2822 126.136C37.2907 126.104 37.3056 126.073 37.326 126.047C37.3464 126.02 37.3719 125.998 37.401 125.982L38.8233 125.154C38.8829 125.121 38.9531 125.112 39.019 125.13C39.0848 125.148 39.141 125.191 39.1754 125.25C39.2087 125.309 39.2173 125.38 39.1993 125.446C39.1814 125.511 39.1383 125.568 39.0794 125.602L37.6617 126.425C37.6021 126.458 37.5318 126.467 37.466 126.449C37.4001 126.431 37.344 126.388 37.3095 126.329Z" fill="white"/>
</g>
<g opacity="0.3">
<path d="M42.299 126.338C42.282 126.368 42.2594 126.393 42.2324 126.414C42.2055 126.434 42.1747 126.449 42.142 126.457C42.1092 126.466 42.0751 126.468 42.0416 126.463C42.0081 126.458 41.9759 126.447 41.9468 126.43L40.5245 125.607C40.4673 125.571 40.4259 125.514 40.4089 125.449C40.3919 125.383 40.4006 125.314 40.4331 125.254C40.4501 125.225 40.4727 125.2 40.4997 125.179C40.5266 125.159 40.5573 125.144 40.5901 125.135C40.6228 125.127 40.6569 125.125 40.6904 125.13C40.7239 125.134 40.7561 125.146 40.7852 125.163L42.2029 125.986C42.2619 126.021 42.3049 126.077 42.3229 126.143C42.3408 126.208 42.3323 126.279 42.299 126.338Z" fill="white"/>
</g>
<g opacity="0.3">
<path d="M39.1709 124.536C39.1365 124.594 39.0809 124.636 39.0158 124.653C38.9508 124.671 38.8816 124.661 38.8233 124.628L37.401 123.8C37.3719 123.784 37.3464 123.761 37.326 123.735C37.3056 123.708 37.2907 123.678 37.2822 123.646C37.2737 123.613 37.2717 123.58 37.2764 123.546C37.2811 123.513 37.2924 123.481 37.3095 123.453C37.344 123.394 37.4001 123.351 37.466 123.333C37.5318 123.315 37.6021 123.323 37.6617 123.357L39.0794 124.184C39.138 124.218 39.181 124.273 39.199 124.338C39.2169 124.403 39.2085 124.473 39.1754 124.532L39.1709 124.536Z" fill="white"/>
</g>
<path d="M39.7879 124.468C39.8715 124.473 39.9518 124.503 40.0188 124.553C40.0858 124.604 40.1366 124.672 40.165 124.751C40.1934 124.83 40.198 124.916 40.1785 124.997C40.1589 125.079 40.116 125.153 40.0549 125.21C39.9938 125.267 39.9173 125.306 39.8347 125.32C39.7522 125.335 39.6672 125.325 39.5902 125.292C39.5133 125.258 39.4477 125.203 39.4015 125.133C39.3554 125.063 39.3307 124.982 39.3306 124.898C39.3304 124.839 39.3424 124.781 39.3657 124.727C39.389 124.673 39.4231 124.624 39.466 124.584C39.5089 124.543 39.5596 124.512 39.6149 124.492C39.6703 124.472 39.7292 124.464 39.7879 124.468Z" fill="#263238"/>
<path opacity="0.3" d="M85.3522 115.047C85.4355 115.019 85.5047 114.961 85.5449 114.883C85.5851 114.805 85.5931 114.714 85.5671 114.631C85.5077 113.533 85.2744 112.554 84.6021 111.887C84.5812 111.814 84.5354 111.751 84.4727 111.708C84.4101 111.665 84.3345 111.646 84.2591 111.653L80.2803 112.028C80.2108 112.035 80.1452 112.064 80.0928 112.111C80.0336 112.172 80.0005 112.254 80.0005 112.339C80.0005 112.425 80.0336 112.507 80.0928 112.568L81.2316 113.798C81.2727 113.84 81.3228 113.871 81.3779 113.89L85.1875 115.042C85.2411 115.058 85.2978 115.059 85.3522 115.047Z" fill="black"/>
<path d="M45.6695 112.614C45.6478 112.713 45.6664 112.817 45.7212 112.903C45.7761 112.989 45.8628 113.049 45.9622 113.071L48.5919 113.675C48.8255 113.73 49.0673 113.743 49.3053 113.711L50.0096 113.625L50.8511 109.106C49.088 110.059 47.4055 111.154 45.8205 112.381C45.7425 112.436 45.6886 112.52 45.6695 112.614Z" fill="black"/>
<path d="M62.5999 106.559L61.0449 112.285L63.2447 112.015L64.0908 106.559H62.5999Z" fill="black"/>
<path d="M72.5421 107.734C72.5549 107.592 72.5112 107.45 72.4205 107.34C72.3298 107.229 72.1994 107.159 72.0573 107.144C71.4353 107.08 70.7768 107.021 70.1137 106.961L69.8667 110.73L69.8987 110.698L72.3912 108.059C72.4755 107.97 72.5285 107.856 72.5421 107.734Z" fill="black"/>
<path d="M49.9316 112.815C49.8071 112.816 49.6837 112.792 49.5686 112.744C49.4534 112.697 49.3488 112.627 49.2608 112.539C49.1728 112.451 49.1031 112.346 49.0557 112.231C49.0083 112.116 48.9843 111.993 48.9849 111.868C48.987 111.655 49.0614 111.448 49.1959 111.282C49.3304 111.116 49.5171 111 49.7258 110.954L50.9926 110.675L51.2898 112.792L49.9544 112.824L49.9316 112.815Z" fill="url(#paint2_linear_8_88)"/>
<path opacity="0.3" d="M50.9195 112.792L51.2899 112.783L50.9926 110.666L50.6313 110.743L50.9195 112.792Z" fill="black"/>
<path opacity="0.6" d="M61.493 122.803C61.478 122.8 61.4648 122.791 61.4563 122.778C61.4477 122.765 61.4445 122.75 61.4472 122.734C61.4472 122.67 62.8192 116.199 63.0205 115.317C63.2217 114.434 63.0205 111.658 63.0205 111.658C63.0204 111.643 63.026 111.628 63.0362 111.617C63.0464 111.606 63.0604 111.6 63.0753 111.598C63.1073 111.598 63.1348 111.621 63.1348 111.653C63.1348 111.768 63.3132 114.461 63.1348 115.349C62.9564 116.236 61.5799 122.702 61.5661 122.771C61.5601 122.785 61.5492 122.795 61.5357 122.801C61.5222 122.807 61.507 122.808 61.493 122.803Z" fill="black"/>
<path opacity="0.6" d="M49.0674 123.777C49.0579 123.777 49.0486 123.775 49.0406 123.77C49.0325 123.765 49.0259 123.758 49.0216 123.75C49.0216 123.75 47.2243 121.093 46.6115 119.986C45.9986 118.879 45.6282 113.044 45.6145 112.797C45.6132 112.782 45.6176 112.767 45.627 112.755C45.6363 112.743 45.6498 112.735 45.6648 112.733C45.6803 112.733 45.6953 112.738 45.7071 112.748C45.7189 112.758 45.7266 112.772 45.7288 112.788C45.7288 112.847 46.0901 118.815 46.7121 119.931C47.3341 121.047 49.0994 123.663 49.1131 123.686C49.1237 123.697 49.1296 123.712 49.1296 123.727C49.1296 123.742 49.1237 123.757 49.1131 123.768L49.0674 123.777Z" fill="black"/>
<path opacity="0.6" d="M31.6476 115.778C31.6358 115.778 31.6244 115.775 31.6146 115.768C31.6048 115.762 31.5972 115.753 31.5927 115.742C31.589 115.735 31.5868 115.728 31.5865 115.72C31.5861 115.712 31.5875 115.704 31.5906 115.697C31.5937 115.69 31.5984 115.684 31.6043 115.679C31.6102 115.674 31.6172 115.671 31.6247 115.669C33.8485 114.929 36.1168 114.33 38.4161 113.876C39.7104 113.67 44.1236 112.582 44.1694 112.568C44.1845 112.565 44.2001 112.568 44.2129 112.577C44.2257 112.586 44.2347 112.599 44.238 112.614C44.24 112.621 44.2406 112.628 44.2396 112.636C44.2386 112.643 44.2361 112.65 44.2322 112.657C44.2284 112.663 44.2232 112.669 44.2171 112.673C44.2111 112.678 44.2041 112.681 44.1968 112.682C44.1511 112.682 39.7332 113.784 38.4344 113.99C36.1511 114.439 33.8981 115.03 31.6887 115.76L31.6476 115.778Z" fill="black"/>
<path d="M75.3134 90.6984H44.3794V93.7671H75.3134V90.6984Z" fill="#263238"/>
<path opacity="0.7" d="M75.3134 90.6984H44.3794V93.7671H75.3134V90.6984Z" fill="white"/>
<path d="M74.8152 138.357H47.27V141.426H74.8152V138.357Z" fill="#263238"/>
<path opacity="0.7" d="M74.8152 138.357H47.27V141.426H74.8152V138.357Z" fill="white"/>
<path d="M55.5569 144.714H47.27V147.783H55.5569V144.714Z" fill="#263238"/>
<path opacity="0.7" d="M55.5569 144.714H47.27V147.783H55.5569V144.714Z" fill="white"/>
<path d="M83.3809 156.824H35.4478V171.861H83.3809V156.824Z" fill="url(#paint3_linear_8_88)"/>
<path opacity="0.3" d="M83.3809 156.824H78.8579V171.861H83.3809V156.824Z" fill="black"/>
<path d="M37.2222 137.781C37.9216 137.134 38.8444 136.782 39.7972 136.801C40.7499 136.819 41.6584 137.206 42.3322 137.88C43.006 138.554 43.3927 139.462 43.4111 140.415C43.4296 141.368 43.0784 142.29 42.4312 142.99L40.3504 145.071C40.2114 145.209 40.0231 145.287 39.8267 145.287C39.6303 145.287 39.442 145.209 39.3031 145.071L37.2222 142.99C36.5321 142.299 36.1445 141.362 36.1445 140.385C36.1445 139.409 36.5321 138.472 37.2222 137.781ZM39.829 142.098C40.1679 142.098 40.4991 141.997 40.7807 141.809C41.0622 141.62 41.2815 141.352 41.4105 141.039C41.5396 140.726 41.5726 140.381 41.5055 140.049C41.4384 139.717 41.2741 139.412 41.0335 139.173C40.7929 138.935 40.4869 138.773 40.1542 138.708C39.8215 138.644 39.4772 138.68 39.1649 138.811C38.8526 138.943 38.5864 139.164 38.4001 139.447C38.2139 139.73 38.1159 140.062 38.1186 140.401C38.1186 140.626 38.1629 140.848 38.2489 141.055C38.3349 141.262 38.4609 141.451 38.6198 141.609C38.7787 141.768 38.9673 141.893 39.1748 141.979C39.3823 142.064 39.6046 142.108 39.829 142.107V142.098Z" fill="#263238"/>
<path opacity="0.7" d="M37.2222 137.781C37.9216 137.134 38.8444 136.782 39.7972 136.801C40.7499 136.819 41.6584 137.206 42.3322 137.88C43.006 138.554 43.3927 139.462 43.4111 140.415C43.4296 141.368 43.0784 142.29 42.4312 142.99L40.3504 145.071C40.2114 145.209 40.0231 145.287 39.8267 145.287C39.6303 145.287 39.442 145.209 39.3031 145.071L37.2222 142.99C36.5321 142.299 36.1445 141.362 36.1445 140.385C36.1445 139.409 36.5321 138.472 37.2222 137.781ZM39.829 142.098C40.1679 142.098 40.4991 141.997 40.7807 141.809C41.0622 141.62 41.2815 141.352 41.4105 141.039C41.5396 140.726 41.5726 140.381 41.5055 140.049C41.4384 139.717 41.2741 139.412 41.0335 139.173C40.7929 138.935 40.4869 138.773 40.1542 138.708C39.8215 138.644 39.4772 138.68 39.1649 138.811C38.8526 138.943 38.5864 139.164 38.4001 139.447C38.2139 139.73 38.1159 140.062 38.1186 140.401C38.1186 140.626 38.1629 140.848 38.2489 141.055C38.3349 141.262 38.4609 141.451 38.6198 141.609C38.7787 141.768 38.9673 141.893 39.1748 141.979C39.3823 142.064 39.6046 142.108 39.829 142.107V142.098Z" fill="white"/>
<path d="M33.9341 115.971L31.6474 115.719L30.3303 116.259C30.1942 116.315 30.0731 116.402 29.9763 116.513C29.8795 116.624 29.8097 116.756 29.7723 116.899C29.7306 117.066 29.7551 117.243 29.8409 117.393V117.434C29.913 117.558 30.0201 117.657 30.1487 117.72C30.2774 117.783 30.4217 117.806 30.5635 117.786L31.8852 117.603C32.013 117.585 32.134 117.534 32.2374 117.457L33.7603 116.304L33.9341 115.971Z" fill="white"/>
<path d="M179.395 89.6701C179.866 84.3336 175.921 79.626 170.585 79.1554C165.248 78.6848 160.541 82.6293 160.07 87.9658C159.599 93.3022 163.544 98.0098 168.88 98.4805C174.217 98.9511 178.924 95.0066 179.395 89.6701Z" fill="url(#paint4_linear_8_88)"/>
<path d="M173.549 95.4043L172.876 97.8099L175.657 99.2916L175.995 96.2092L173.549 95.4043Z" fill="url(#paint5_linear_8_88)"/>
<path d="M181.562 88.4757C181.532 88.4722 181.504 88.4576 181.485 88.4346C181.465 88.4117 181.455 88.3823 181.456 88.3522C181.523 86.7919 181.205 85.2391 180.531 83.8307C179.856 82.4222 178.845 81.2014 177.587 80.2757C177.575 80.267 177.564 80.256 177.556 80.2432C177.548 80.2305 177.543 80.2163 177.54 80.2014C177.538 80.1865 177.538 80.1712 177.541 80.1565C177.545 80.1418 177.551 80.1279 177.56 80.1156C177.569 80.1032 177.58 80.0927 177.592 80.0846C177.605 80.0766 177.619 80.0711 177.634 80.0685C177.649 80.066 177.664 80.0664 177.679 80.0698C177.694 80.0732 177.708 80.0794 177.72 80.0882C179.009 81.037 180.045 82.2883 180.736 83.7318C181.428 85.1754 181.754 86.7668 181.685 88.3659C181.684 88.3813 181.681 88.3965 181.674 88.4105C181.668 88.4244 181.658 88.4369 181.647 88.4472C181.635 88.4574 181.622 88.4652 181.607 88.4701C181.592 88.475 181.577 88.4769 181.562 88.4757Z" fill="url(#paint6_linear_8_88)"/>
<path d="M181.14 91.3248H181.099C181.085 91.3193 181.072 91.311 181.061 91.3003C181.05 91.2897 181.041 91.277 181.035 91.2629C181.029 91.2488 181.026 91.2337 181.026 91.2184C181.026 91.2032 181.029 91.188 181.035 91.1739C181.215 90.7394 181.303 90.2721 181.291 89.8019C181.291 89.7716 181.303 89.7425 181.325 89.7211C181.346 89.6996 181.375 89.6876 181.406 89.6876C181.421 89.687 181.435 89.6894 181.449 89.6946C181.463 89.6998 181.476 89.7078 181.486 89.7181C181.497 89.7283 181.506 89.7406 181.511 89.7543C181.517 89.7679 181.52 89.7826 181.52 89.7974C181.531 90.2959 181.437 90.7913 181.246 91.2517C181.237 91.273 181.223 91.2913 181.204 91.3044C181.186 91.3174 181.163 91.3246 181.14 91.3248Z" fill="url(#paint7_linear_8_88)"/>
<path d="M169.561 92.9118L164.677 89.6465L165.816 87.9406L169.09 90.1312L173.165 84.7393L174.802 85.9741L169.561 92.9118Z" fill="white"/>
<path d="M317.911 183.935L91.709 189.24V150.55H320.088L317.911 183.935Z" fill="#263238"/>
<path opacity="0.5" d="M317.911 183.935L91.709 189.24V150.55H320.088L317.911 183.935Z" fill="black"/>
<path d="M83.0107 160.478V180.098C83.0118 182.144 83.6682 184.136 84.8837 185.782C86.0993 187.428 87.8102 188.642 89.7656 189.244L91.3617 189.729C92.3473 190.035 93.3759 190.178 94.4075 190.155L104.972 189.908C103.847 185.976 103.639 181.839 104.362 177.814C105.085 173.789 106.721 169.984 109.144 166.69C111.567 163.396 114.712 160.701 118.339 158.811C121.966 156.922 125.977 155.889 130.065 155.792C134.153 155.694 138.209 156.535 141.922 158.249C145.634 159.963 148.905 162.505 151.482 165.68C154.059 168.855 155.875 172.578 156.789 176.564C157.703 180.55 157.692 184.692 156.756 188.673L264.229 186.116C264.054 184.862 263.97 183.596 263.978 182.33C263.901 178.758 264.54 175.207 265.858 171.886C267.176 168.565 269.145 165.542 271.649 162.994C274.154 160.446 277.143 158.426 280.441 157.052C283.739 155.678 287.279 154.978 290.851 154.993C294.424 155.009 297.957 155.74 301.243 157.143C304.529 158.545 307.5 160.592 309.982 163.161C312.465 165.731 314.408 168.771 315.696 172.103C316.985 175.435 317.593 178.992 317.486 182.563C317.486 183.084 317.44 183.596 317.44 184.113C317.582 184.054 317.728 183.999 317.87 183.93L321.528 182.288C323.301 181.484 324.805 180.186 325.86 178.549C326.914 176.912 327.474 175.006 327.474 173.059V133.107C327.475 131.263 326.971 129.453 326.017 127.875C325.064 126.297 323.696 125.009 322.063 124.152L294.523 109.623C294.274 109.49 294.069 109.289 293.933 109.043C293.796 108.796 293.734 108.516 293.753 108.235C293.773 107.954 293.873 107.685 294.042 107.459C294.211 107.234 294.441 107.063 294.706 106.966L298.085 105.754C298.255 105.697 298.4 105.585 298.498 105.435C298.595 105.284 298.638 105.106 298.62 104.928C298.602 104.75 298.523 104.583 298.398 104.456C298.273 104.328 298.107 104.247 297.93 104.226C284.804 102.397 233.743 95.7198 206.921 98.9989C175.959 102.79 146.287 129.64 146.287 129.64C123.48 128.803 102.2 136.743 93.0446 140.717C91.5829 141.355 90.2707 142.291 89.1924 143.466C88.1142 144.641 87.2937 146.029 86.7837 147.54L83.651 156.824C83.2401 157.999 83.0238 159.233 83.0107 160.478Z" fill="url(#paint8_linear_8_88)"/>
<path d="M264.279 186.135C264.124 184.957 264.046 183.769 264.046 182.581C264.046 181.973 264.046 181.374 264.105 180.779L244.673 172.817C243.536 172.355 242.309 172.155 241.083 172.232L173.471 176.668C172.366 176.738 171.287 177.036 170.302 177.541L157.455 184.15C157.363 185.676 157.145 187.192 156.801 188.682L264.279 186.135Z" fill="#263238"/>
<path d="M327.551 173.069V172.049L316.575 175.415C317.216 177.747 317.54 180.154 317.54 182.572C317.54 183.093 317.494 183.606 317.494 184.122C317.636 184.063 317.783 184.008 317.924 183.939L321.61 182.298C323.383 181.493 324.885 180.194 325.939 178.557C326.993 176.921 327.552 175.015 327.551 173.069Z" fill="#263238"/>
<path d="M86.1299 187.141C87.1775 188.108 88.4273 188.83 89.7885 189.254L91.3892 189.738C92.3733 190.044 93.4004 190.188 94.4305 190.164L104.995 189.917C104.613 188.581 104.338 187.217 104.172 185.837L86.1299 187.141Z" fill="#263238"/>
<path d="M290.832 153.293C286.681 153.292 282.578 154.173 278.794 155.879C275.01 157.585 271.632 160.076 268.884 163.187C266.136 166.298 264.081 169.958 262.856 173.924C261.631 177.89 261.263 182.071 261.778 186.189L264.339 186.135C264.164 184.88 264.08 183.615 264.087 182.348C264.011 178.776 264.65 175.225 265.968 171.904C267.285 168.583 269.255 165.56 271.759 163.012C274.264 160.465 277.253 158.444 280.551 157.07C283.849 155.696 287.388 154.996 290.961 155.012C294.534 155.027 298.067 155.758 301.353 157.161C304.638 158.564 307.61 160.61 310.092 163.179C312.575 165.749 314.517 168.789 315.806 172.121C317.095 175.454 317.703 179.01 317.595 182.581C317.595 183.102 317.554 183.615 317.554 184.131C317.696 184.072 317.842 184.017 317.984 183.949L320.097 182.988V182.581C320.086 174.822 316.999 167.383 311.512 161.897C306.025 156.41 298.587 153.323 290.828 153.312L290.832 153.293Z" fill="#263238"/>
<path d="M130.738 153.293C126.26 153.288 121.84 154.309 117.819 156.28C113.797 158.251 110.282 161.118 107.543 164.661C104.804 168.204 102.915 172.328 102.02 176.716C101.126 181.104 101.25 185.639 102.383 189.972L104.981 189.917C103.858 185.986 103.651 181.849 104.375 177.825C105.099 173.802 106.735 169.997 109.158 166.704C111.581 163.411 114.726 160.717 118.353 158.828C121.979 156.94 125.989 155.907 130.077 155.81C134.164 155.712 138.219 156.552 141.931 158.266C145.644 159.98 148.914 162.521 151.491 165.695C154.068 168.869 155.884 172.591 156.799 176.575C157.714 180.56 157.704 184.702 156.769 188.682L159.363 188.622C160.265 184.358 160.204 179.946 159.183 175.708C158.162 171.47 156.207 167.514 153.462 164.128C150.716 160.742 147.249 158.012 143.314 156.138C139.379 154.263 135.074 153.292 130.715 153.293H130.738Z" fill="#263238"/>
<path d="M156.216 130.797C155.895 131.077 155.675 131.455 155.589 131.872C155.47 132.336 155.529 132.828 155.754 133.251C155.979 133.674 156.355 133.998 156.806 134.159L167.979 137.291C168.964 137.57 169.995 137.648 171.011 137.52L253.866 127.253C255.943 126.963 257.839 125.912 259.185 124.303L270.051 111.64C270.425 111.205 270.654 110.665 270.705 110.094C270.851 108.653 269.95 107.35 268.683 107.19C248.844 104.56 223.76 102.159 207.922 104.103C187.164 106.636 166.259 122.241 156.216 130.797Z" fill="url(#paint9_linear_8_88)"/>
<path opacity="0.8" d="M156.591 130.797C156.269 131.077 156.047 131.454 155.96 131.872C155.842 132.337 155.902 132.829 156.128 133.252C156.354 133.675 156.729 133.998 157.181 134.159L168.354 137.291C169.339 137.57 170.37 137.648 171.386 137.52L252.384 131.968C254.401 131.712 257.515 128.003 259.701 124.998L270.407 111.64C270.777 111.202 271.005 110.663 271.061 110.094C271.208 108.653 270.302 107.35 269.04 107.19C249.201 104.56 224.116 102.159 208.274 104.103C187.534 106.636 166.634 122.241 156.591 130.797Z" fill="white"/>
<g opacity="0.3">
<path d="M210.712 138.677C210.586 138.632 210.47 138.562 210.37 138.471C210.271 138.381 210.191 138.272 210.134 138.15C210.077 138.029 210.045 137.897 210.039 137.763C210.033 137.629 210.053 137.495 210.099 137.369C210.213 137.048 210.421 136.768 210.696 136.566C210.97 136.363 211.299 136.248 211.64 136.235L221.5 135.819C221.634 135.813 221.768 135.833 221.894 135.878C222.021 135.924 222.138 135.994 222.238 136.085C222.339 136.176 222.42 136.285 222.478 136.408C222.536 136.53 222.569 136.663 222.575 136.798C222.582 136.933 222.561 137.068 222.516 137.195C222.398 137.516 222.188 137.795 221.912 137.997C221.636 138.199 221.307 138.314 220.965 138.33L211.105 138.737C210.971 138.742 210.838 138.722 210.712 138.677Z" fill="black"/>
</g>
<path d="M284.041 110.428C283.833 110.612 283.664 110.835 283.543 111.085C283.421 111.334 283.351 111.605 283.335 111.882C283.318 112.159 283.357 112.437 283.449 112.699C283.54 112.961 283.682 113.202 283.867 113.409L286.204 115.952C286.473 116.238 286.814 116.445 287.192 116.551L315.834 124.495C316.333 124.628 316.846 124.697 317.362 124.701H323.051C322.757 124.5 322.452 124.317 322.137 124.152L294.523 109.604C294.357 109.523 294.209 109.409 294.088 109.27C293.966 109.131 293.873 108.969 293.814 108.794C293.755 108.619 293.731 108.434 293.743 108.25C293.756 108.066 293.805 107.886 293.887 107.72L284.919 109.966C284.594 110.049 284.293 110.207 284.041 110.428Z" fill="url(#paint10_linear_8_88)"/>
<path d="M105.676 144.453L95.9029 143.388L90.2914 145.674C89.7078 145.913 89.1884 146.286 88.7753 146.763C88.3622 147.24 88.067 147.807 87.9133 148.418C87.7293 149.133 87.8327 149.892 88.2014 150.531L88.3021 150.7C88.6079 151.23 89.0644 151.656 89.6134 151.925C90.1623 152.193 90.7789 152.293 91.3845 152.21L97.0188 151.432C97.5682 151.355 98.089 151.139 98.5326 150.806L105.036 145.889L105.676 144.453Z" fill="white"/>
<path d="M146.278 129.645L147.833 130.102C148.429 130.271 149.056 130.291 149.662 130.161C150.267 130.031 150.831 129.755 151.304 129.357C160.364 121.692 176.11 109.938 193.105 104.459C193.18 104.433 193.243 104.382 193.283 104.313C193.304 104.277 193.317 104.236 193.323 104.195C193.328 104.153 193.324 104.11 193.313 104.07C193.301 104.029 193.282 103.992 193.256 103.959C193.229 103.926 193.197 103.899 193.16 103.879L191.047 102.795C166.534 111.283 146.278 129.645 146.278 129.645Z" fill="url(#paint11_linear_8_88)"/>
<path opacity="0.8" d="M146.278 129.645L147.833 130.102C148.429 130.271 149.056 130.291 149.662 130.161C150.267 130.031 150.831 129.755 151.304 129.357C160.364 121.692 176.11 109.938 193.105 104.459C193.18 104.433 193.243 104.382 193.283 104.313C193.304 104.277 193.317 104.236 193.323 104.195C193.328 104.153 193.324 104.11 193.313 104.07C193.301 104.029 193.282 103.992 193.256 103.959C193.229 103.926 193.197 103.899 193.16 103.879L191.047 102.795C166.534 111.283 146.278 129.645 146.278 129.645Z" fill="white"/>
<path opacity="0.2" d="M239.158 139.99L156.792 145.889L158.343 156.047C158.819 159.156 159.972 162.122 161.723 164.736L168.605 175.026L238.907 165.518L272.141 139.99H239.158Z" fill="white"/>
<path d="M290.804 204.867C303.12 204.867 313.104 194.883 313.104 182.567C313.104 170.252 303.12 160.268 290.804 160.268C278.489 160.268 268.505 170.252 268.505 182.567C268.505 194.883 278.489 204.867 290.804 204.867Z" fill="#263238"/>
<path opacity="0.4" d="M290.804 196.237C298.354 196.237 304.474 190.117 304.474 182.567C304.474 175.018 298.354 168.898 290.804 168.898C283.255 168.898 277.135 175.018 277.135 182.567C277.135 190.117 283.255 196.237 290.804 196.237Z" fill="white"/>
<g opacity="0.3">
<path d="M290.81 170.274H290.805C290.201 170.274 289.712 170.764 289.712 171.367V178.374C289.712 178.977 290.201 179.467 290.805 179.467H290.81C291.413 179.467 291.903 178.977 291.903 178.374V171.367C291.903 170.764 291.413 170.274 290.81 170.274Z" fill="white"/>
</g>
<g opacity="0.3">
<path d="M290.81 185.677H290.805C290.201 185.677 289.712 186.167 289.712 186.77V193.777C289.712 194.38 290.201 194.87 290.805 194.87H290.81C291.413 194.87 291.903 194.38 291.903 193.777V186.77C291.903 186.167 291.413 185.677 290.81 185.677Z" fill="white"/>
</g>
<g opacity="0.3">
<path d="M294.98 181.424C294.855 181.495 294.717 181.541 294.575 181.558C294.432 181.576 294.288 181.566 294.149 181.527C294.011 181.489 293.881 181.424 293.768 181.336C293.655 181.247 293.56 181.137 293.489 181.012C293.345 180.761 293.307 180.463 293.382 180.184C293.457 179.904 293.641 179.666 293.892 179.522L299.956 176C300.081 175.928 300.219 175.881 300.362 175.862C300.505 175.843 300.65 175.853 300.789 175.89C300.929 175.928 301.059 175.992 301.174 176.08C301.288 176.168 301.384 176.278 301.456 176.403C301.599 176.654 301.637 176.952 301.561 177.231C301.486 177.51 301.303 177.748 301.053 177.893L294.98 181.415V181.424Z" fill="white"/>
</g>
<g opacity="0.3">
<path d="M281.644 189.094C281.393 189.238 281.095 189.276 280.816 189.201C280.536 189.125 280.298 188.942 280.153 188.691C280.082 188.567 280.036 188.43 280.018 188.288C279.999 188.147 280.009 188.003 280.047 187.865C280.084 187.727 280.148 187.597 280.236 187.484C280.323 187.371 280.432 187.276 280.556 187.205L286.62 183.683C286.871 183.539 287.17 183.499 287.45 183.574C287.73 183.648 287.969 183.831 288.116 184.081C288.26 184.333 288.3 184.632 288.225 184.913C288.151 185.194 287.968 185.434 287.718 185.581L281.649 189.103L281.644 189.094Z" fill="white"/>
</g>
<g opacity="0.3">
<path d="M299.961 189.121L293.896 185.599C293.771 185.527 293.662 185.432 293.574 185.317C293.486 185.203 293.422 185.072 293.384 184.933C293.347 184.794 293.337 184.648 293.356 184.505C293.375 184.362 293.422 184.224 293.494 184.099C293.641 183.849 293.881 183.666 294.163 183.593C294.444 183.519 294.743 183.56 294.994 183.706L301.058 187.228C301.308 187.373 301.491 187.611 301.566 187.89C301.641 188.169 301.603 188.467 301.461 188.718C301.389 188.843 301.293 188.953 301.178 189.041C301.064 189.129 300.933 189.193 300.794 189.231C300.655 189.268 300.509 189.278 300.366 189.259C300.223 189.24 300.085 189.193 299.961 189.121Z" fill="white"/>
</g>
<g opacity="0.3">
<path d="M288.12 181.017C287.975 181.267 287.736 181.449 287.457 181.524C287.177 181.599 286.88 181.559 286.629 181.415L280.556 177.903C280.306 177.757 280.123 177.519 280.049 177.239C279.974 176.96 280.013 176.662 280.158 176.412C280.303 176.162 280.542 175.979 280.821 175.905C281.1 175.83 281.398 175.869 281.649 176.014L287.717 179.535C287.968 179.681 288.15 179.919 288.224 180.199C288.299 180.478 288.26 180.776 288.115 181.026L288.12 181.017Z" fill="white"/>
</g>
<path d="M288.971 182.563C288.971 182.078 289.163 181.612 289.507 181.269C289.85 180.926 290.315 180.734 290.8 180.734C291.162 180.734 291.516 180.841 291.816 181.042C292.117 181.243 292.352 181.529 292.49 181.863C292.629 182.197 292.665 182.565 292.594 182.92C292.524 183.275 292.349 183.601 292.094 183.856C291.838 184.112 291.512 184.286 291.157 184.357C290.802 184.428 290.434 184.391 290.1 184.253C289.766 184.114 289.48 183.88 289.279 183.579C289.078 183.278 288.971 182.925 288.971 182.563Z" fill="#263238"/>
<path d="M130.738 204.872C143.054 204.872 153.038 194.888 153.038 182.572C153.038 170.256 143.054 160.272 130.738 160.272C118.422 160.272 108.438 170.256 108.438 182.572C108.438 194.888 118.422 204.872 130.738 204.872Z" fill="#263238"/>
<path opacity="0.4" d="M130.738 196.242C138.288 196.242 144.408 190.122 144.408 182.572C144.408 175.022 138.288 168.902 130.738 168.902C123.188 168.902 117.068 175.022 117.068 182.572C117.068 190.122 123.188 196.242 130.738 196.242Z" fill="white"/>
<g opacity="0.3">
<path d="M130.738 170.274H130.734C130.13 170.274 129.641 170.764 129.641 171.367V178.374C129.641 178.977 130.13 179.467 130.734 179.467H130.738C131.342 179.467 131.831 178.977 131.831 178.374V171.367C131.831 170.764 131.342 170.274 130.738 170.274Z" fill="white"/>
</g>
<g opacity="0.3">
<path d="M130.738 185.677H130.734C130.13 185.677 129.641 186.167 129.641 186.77V193.777C129.641 194.38 130.13 194.87 130.734 194.87H130.738C131.342 194.87 131.831 194.38 131.831 193.777V186.77C131.831 186.167 131.342 185.677 130.738 185.677Z" fill="white"/>
</g>
<g opacity="0.3">
<path d="M134.913 181.424C134.79 181.495 134.653 181.54 134.511 181.558C134.37 181.575 134.226 181.564 134.089 181.526C133.952 181.488 133.823 181.423 133.711 181.335C133.599 181.246 133.506 181.137 133.436 181.012C133.363 180.889 133.316 180.752 133.296 180.61C133.276 180.468 133.285 180.324 133.322 180.185C133.358 180.046 133.422 179.916 133.509 179.802C133.596 179.688 133.705 179.593 133.83 179.522L139.898 176C140.023 175.928 140.16 175.881 140.302 175.863C140.444 175.844 140.589 175.854 140.728 175.891C140.866 175.929 140.996 175.993 141.109 176.081C141.223 176.169 141.318 176.278 141.389 176.403C141.461 176.527 141.508 176.664 141.527 176.806C141.545 176.949 141.536 177.093 141.498 177.232C141.461 177.37 141.396 177.5 141.309 177.614C141.221 177.727 141.111 177.822 140.987 177.893L134.913 181.415V181.424Z" fill="white"/>
</g>
<g opacity="0.3">
<path d="M120.082 188.691C120.011 188.567 119.965 188.43 119.946 188.288C119.928 188.147 119.938 188.003 119.975 187.865C120.013 187.727 120.077 187.597 120.164 187.484C120.252 187.371 120.36 187.276 120.485 187.205L126.549 183.683C126.8 183.537 127.099 183.496 127.38 183.57C127.661 183.643 127.902 183.826 128.049 184.077C128.121 184.202 128.168 184.339 128.187 184.482C128.205 184.625 128.196 184.771 128.159 184.91C128.121 185.049 128.057 185.18 127.969 185.294C127.881 185.409 127.771 185.505 127.646 185.577L121.582 189.098C121.329 189.242 121.029 189.28 120.748 189.204C120.467 189.128 120.228 188.943 120.082 188.691Z" fill="white"/>
</g>
<g opacity="0.3">
<path d="M141.385 188.723C141.239 188.973 141.001 189.156 140.721 189.23C140.442 189.305 140.144 189.265 139.894 189.121L133.825 185.6C133.574 185.453 133.392 185.212 133.318 184.931C133.244 184.65 133.285 184.351 133.432 184.1C133.503 183.975 133.599 183.866 133.712 183.779C133.826 183.692 133.956 183.628 134.095 183.592C134.234 183.555 134.378 183.546 134.52 183.566C134.662 183.586 134.799 183.633 134.923 183.706L140.987 187.228C141.237 187.373 141.419 187.612 141.494 187.891C141.568 188.17 141.529 188.468 141.385 188.719V188.723Z" fill="white"/>
</g>
<g opacity="0.3">
<path d="M128.053 181.026C127.907 181.276 127.667 181.457 127.386 181.53C127.106 181.603 126.808 181.562 126.558 181.415L120.485 177.903C120.36 177.832 120.251 177.736 120.163 177.623C120.075 177.509 120.011 177.38 119.973 177.241C119.936 177.102 119.926 176.958 119.945 176.815C119.964 176.673 120.01 176.536 120.082 176.412C120.228 176.16 120.468 175.977 120.749 175.901C121.03 175.826 121.33 175.865 121.582 176.009L127.646 179.531C127.896 179.676 128.079 179.915 128.153 180.194C128.228 180.473 128.189 180.771 128.044 181.022L128.053 181.026Z" fill="white"/>
</g>
<path d="M130.738 180.734C131.1 180.734 131.454 180.841 131.754 181.042C132.055 181.243 132.29 181.529 132.428 181.863C132.567 182.197 132.603 182.565 132.532 182.92C132.462 183.275 132.287 183.601 132.032 183.856C131.776 184.112 131.45 184.286 131.095 184.357C130.74 184.428 130.372 184.391 130.038 184.253C129.704 184.114 129.418 183.88 129.217 183.579C129.016 183.278 128.909 182.925 128.909 182.563C128.909 182.078 129.101 181.612 129.444 181.269C129.788 180.926 130.253 180.734 130.738 180.734Z" fill="#263238"/>
<path opacity="0.3" d="M325.215 140.506C325.57 140.393 325.865 140.144 326.037 139.813C326.208 139.482 326.241 139.097 326.129 138.741C325.873 134.049 324.876 129.869 322.013 126.992C321.92 126.686 321.726 126.42 321.461 126.24C321.196 126.059 320.878 125.975 320.559 126L303.555 127.596C303.295 127.62 303.047 127.716 302.838 127.874C302.63 128.031 302.469 128.243 302.374 128.487C302.279 128.73 302.254 128.995 302.301 129.252C302.348 129.509 302.466 129.748 302.641 129.942L307.507 135.188C307.676 135.37 307.891 135.504 308.129 135.576L324.396 140.506C324.663 140.585 324.947 140.585 325.215 140.506Z" fill="black"/>
<path d="M155.589 131.849C155.47 132.313 155.529 132.805 155.754 133.228C155.979 133.651 156.355 133.975 156.806 134.136L167.983 137.269C168.992 137.577 170.035 137.755 171.089 137.799L174.605 137.566L171.285 119.638C163.625 124.669 163.099 124.902 156.216 130.761C155.892 131.044 155.672 131.427 155.589 131.849Z" fill="#263238"/>
<path d="M228.379 103.526L221.35 134.136L230.533 133.473L234.736 103.815C232.586 103.687 230.467 103.591 228.379 103.526Z" fill="#263238"/>
<path d="M257.516 127.751L270.412 111.64C270.793 111.199 271.026 110.651 271.08 110.071C271.222 108.63 270.316 107.327 269.054 107.176C266.411 106.815 263.598 106.472 260.786 106.133" fill="#263238"/>
<path d="M165.751 134.964C165.22 134.97 164.693 134.872 164.2 134.675C163.707 134.477 163.258 134.185 162.878 133.813C162.498 133.442 162.195 132.999 161.987 132.511C161.778 132.022 161.668 131.498 161.663 130.966C161.652 130.045 161.957 129.147 162.525 128.422C163.094 127.697 163.893 127.188 164.791 126.979L170.178 125.716L171.55 134.744L165.861 134.959L165.751 134.964Z" fill="url(#paint12_linear_8_88)"/>
<path opacity="0.3" d="M169.968 134.804L171.546 134.744L170.178 125.716L168.637 126.082L169.968 134.804Z" fill="black"/>
<path opacity="0.6" d="M223.339 173.512H223.316C223.301 173.509 223.287 173.503 223.275 173.494C223.262 173.486 223.252 173.474 223.244 173.462C223.236 173.449 223.23 173.435 223.228 173.42C223.225 173.405 223.226 173.39 223.229 173.375C223.288 173.096 229.174 145.478 229.929 141.7C230.217 140.259 230.322 137.493 230.235 133.468C230.235 133.438 230.247 133.409 230.269 133.387C230.29 133.366 230.319 133.354 230.35 133.354C230.379 133.354 230.408 133.365 230.429 133.386C230.45 133.406 230.463 133.434 230.464 133.464C230.551 137.493 230.464 140.273 230.153 141.732C229.398 145.501 223.513 173.133 223.453 173.412C223.449 173.439 223.435 173.464 223.414 173.483C223.393 173.501 223.367 173.511 223.339 173.512Z" fill="black"/>
<path opacity="0.6" d="M170.293 177.656C170.274 177.655 170.255 177.651 170.239 177.642C170.222 177.633 170.208 177.621 170.197 177.605C170.124 177.491 162.527 166.25 159.916 161.548C157.231 156.71 155.498 133.518 155.425 132.531C155.424 132.501 155.434 132.472 155.453 132.45C155.473 132.428 155.501 132.414 155.53 132.412C155.545 132.41 155.561 132.411 155.575 132.415C155.59 132.42 155.603 132.427 155.615 132.437C155.627 132.447 155.636 132.459 155.643 132.473C155.649 132.487 155.653 132.502 155.654 132.517C155.654 132.755 157.455 156.641 160.117 161.439C162.719 166.131 170.311 177.368 170.389 177.477C170.405 177.503 170.411 177.534 170.405 177.564C170.399 177.593 170.382 177.62 170.357 177.637C170.338 177.65 170.316 177.657 170.293 177.656Z" fill="black"/>
<path opacity="0.6" d="M95.9028 143.502C95.8805 143.502 95.8587 143.496 95.84 143.483C95.8213 143.471 95.8066 143.454 95.7976 143.433C95.7869 143.405 95.7876 143.373 95.7995 143.345C95.8114 143.317 95.8337 143.295 95.8617 143.282C101.688 140.9 120.361 136.422 124.742 135.704C130.262 134.822 149.123 130.166 149.31 130.12C149.341 130.113 149.372 130.119 149.399 130.135C149.425 130.151 149.444 130.177 149.452 130.207C149.455 130.222 149.456 130.237 149.453 130.252C149.451 130.267 149.445 130.281 149.437 130.294C149.429 130.307 149.419 130.318 149.406 130.326C149.394 130.335 149.38 130.341 149.365 130.345C149.178 130.39 130.308 135.046 124.779 135.933C120.526 136.615 101.629 141.17 95.9668 143.497L95.9028 143.502Z" fill="black"/>
<path opacity="0.8" d="M284.041 110.428C283.833 110.612 283.664 110.835 283.543 111.085C283.421 111.334 283.351 111.605 283.335 111.882C283.318 112.159 283.357 112.437 283.449 112.699C283.54 112.961 283.682 113.202 283.867 113.409L286.204 115.952C286.473 116.238 286.814 116.445 287.192 116.551L315.834 124.495C316.333 124.628 316.846 124.697 317.362 124.701H323.051C322.757 124.5 322.452 124.317 322.137 124.152L294.523 109.604C294.357 109.523 294.209 109.409 294.088 109.27C293.966 109.131 293.873 108.969 293.814 108.794C293.755 108.619 293.731 108.434 293.743 108.25C293.756 108.066 293.805 107.886 293.887 107.72L284.919 109.966C284.594 110.049 284.293 110.207 284.041 110.428Z" fill="white"/>
<path d="M189.176 122.565C189.176 122.565 192.597 134.602 194.262 135.028C197.271 135.805 207.451 134.058 207.25 133.72L206.413 129.48C206.413 129.48 196.023 128.735 195.808 128.817L192.51 121.271L189.176 122.565Z" fill="#E1715B"/>
<path d="M192.538 123.388C192.538 123.388 193.576 122.423 193.603 121.248C193.631 120.073 193.965 119.149 193.928 118.275C193.891 117.402 193.16 118.33 192.872 118.902C192.583 119.474 192.25 120.119 191.852 119.817C191.454 119.515 189.748 115.701 189.153 115.376C188.559 115.051 188.646 115.746 188.646 115.746C188.646 115.746 188.189 114.832 187.795 114.905C187.69 114.905 187.47 115.143 187.608 115.591C187.914 116.602 188.664 118.692 188.664 118.692C188.623 118.573 187.512 116.057 187.292 115.705C187.013 115.248 186.643 115.166 186.377 115.339C186.007 115.582 187.292 118.742 187.233 118.916C187.233 118.916 186.565 117.086 185.993 116.981C185.422 116.876 185.783 118.079 186.295 119.062C186.752 119.977 187.457 121.856 188.024 122.721C188.724 123.791 189.437 124.353 190.622 124.171C191.317 124.08 191.977 123.811 192.538 123.388Z" fill="#E1715B"/>
<path opacity="0.3" d="M189.629 118.198C189.617 118.198 189.605 118.195 189.595 118.189C189.585 118.182 189.578 118.172 189.574 118.161C189.309 117.388 189.002 116.629 188.659 115.874C188.653 115.86 188.652 115.845 188.657 115.83C188.662 115.816 188.673 115.804 188.687 115.797C188.701 115.791 188.716 115.791 188.73 115.796C188.745 115.801 188.757 115.811 188.764 115.824C189.094 116.565 189.4 117.333 189.679 118.111C189.684 118.125 189.683 118.14 189.677 118.154C189.671 118.167 189.66 118.178 189.647 118.184L189.629 118.198Z" fill="black"/>
<path opacity="0.3" d="M187.47 119.712C187.461 119.711 187.453 119.709 187.445 119.705C187.437 119.701 187.43 119.695 187.424 119.689C187.419 119.684 187.415 119.677 187.412 119.671C187.41 119.664 187.408 119.657 187.408 119.65C187.408 119.643 187.41 119.635 187.412 119.629C187.415 119.622 187.419 119.616 187.424 119.611C188.253 118.93 189.262 118.508 190.328 118.394C190.343 118.393 190.358 118.398 190.37 118.407C190.382 118.416 190.39 118.43 190.392 118.445C190.394 118.452 190.393 118.46 190.392 118.467C190.39 118.475 190.386 118.482 190.381 118.488C190.377 118.494 190.371 118.499 190.364 118.502C190.357 118.506 190.35 118.508 190.342 118.509C189.298 118.62 188.31 119.033 187.498 119.698C187.49 119.705 187.48 119.71 187.47 119.712Z" fill="black"/>
<path opacity="0.3" d="M190.873 122.611C190.862 122.611 190.851 122.607 190.842 122.601C190.833 122.594 190.826 122.585 190.823 122.574C190.653 122.161 190.633 121.701 190.768 121.275C190.902 120.848 191.182 120.483 191.559 120.242C191.564 120.237 191.57 120.233 191.577 120.23C191.583 120.227 191.591 120.226 191.598 120.226C191.605 120.226 191.612 120.227 191.619 120.23C191.626 120.233 191.632 120.237 191.637 120.242C191.646 120.254 191.652 120.268 191.652 120.283C191.652 120.298 191.646 120.313 191.637 120.324C191.284 120.553 191.021 120.895 190.891 121.294C190.766 121.696 190.784 122.129 190.942 122.52C190.945 122.534 190.944 122.549 190.938 122.562C190.933 122.575 190.922 122.586 190.91 122.593L190.873 122.611Z" fill="black"/>
<path d="M216.003 118.554C216.003 118.554 219.813 115.353 219.662 114.265C219.511 113.176 218.884 113.519 218.884 113.519C218.884 113.519 220.206 110.926 218.907 110.478C217.608 110.03 217.535 110.478 217.535 110.478C217.535 110.478 218.052 108.361 217.018 107.734C216.236 107.245 215.903 108.219 215.903 108.219C215.903 108.219 214.407 105.895 212.619 105.932C211.736 106.001 211.297 106.568 211.425 107.249C211.423 107.28 211.423 107.31 211.425 107.341C211.425 107.341 207.812 105.763 206.134 106.755C204.456 107.748 206.646 108.822 206.646 108.822C206.646 108.822 203.125 108.457 202.439 109.874C201.89 110.999 203.454 111.754 203.454 111.754C203.077 111.897 202.729 112.106 202.425 112.371C202.213 112.552 202.062 112.793 201.99 113.062C201.919 113.331 201.931 113.615 202.025 113.877C202.118 114.139 202.29 114.366 202.515 114.528C202.741 114.691 203.011 114.781 203.289 114.786H203.321C203.509 114.786 203.843 114.832 203.98 114.704C203.98 114.704 203.372 115.975 204.675 116.387C205.978 116.798 206.6 115.285 206.6 115.285L216.003 118.554Z" fill="#263238"/>
<path d="M214.805 126.837C214.805 126.837 214.595 125.008 215.898 120.539L215.665 120.425C215.843 119.803 216.035 119.227 216.218 118.728C216.219 118.721 216.219 118.713 216.218 118.705L210.099 122.465C210.241 123.896 209.719 126.654 209.413 127.816L210.995 130.5L214.805 126.837Z" fill="#E1715B"/>
<path opacity="0.2" d="M209.994 124.472L213.511 123.69C213.191 124.783 212.217 126.073 209.774 126.174C209.893 125.613 209.967 125.044 209.994 124.472Z" fill="black"/>
<path d="M205.91 111.905C205.188 113.313 204.927 116.423 207.177 115.778C209.427 115.134 207.172 109.476 205.91 111.905Z" fill="#263238"/>
<path d="M216.273 115.742C215.852 119.611 215.692 121.802 213.634 123.686C210.543 126.517 205.937 124.559 205.192 120.631C204.52 117.091 205.32 111.356 209.203 110.03C210.062 109.734 210.982 109.662 211.877 109.82C212.771 109.977 213.611 110.359 214.318 110.93C215.025 111.501 215.575 112.242 215.917 113.084C216.259 113.925 216.381 114.84 216.273 115.742Z" fill="#E1715B"/>
<path d="M210.666 116.62C210.666 117.013 210.424 117.324 210.163 117.311C209.903 117.297 209.706 116.963 209.706 116.565C209.706 116.167 209.953 115.856 210.209 115.87C210.465 115.884 210.685 116.204 210.666 116.62Z" fill="#263238"/>
<path d="M206.765 116.492C206.765 116.89 206.523 117.201 206.262 117.187C206.001 117.173 205.805 116.835 205.827 116.442C205.85 116.048 206.07 115.733 206.331 115.746C206.591 115.76 206.783 116.094 206.765 116.492Z" fill="#263238"/>
<path d="M208.046 116.332C208.046 116.332 206.674 118.248 206.253 119.03C206.783 119.556 207.744 119.373 207.744 119.373L208.046 116.332Z" fill="#FD504E"/>
<path d="M211.626 114.466C211.595 114.475 211.562 114.475 211.53 114.466C211.499 114.457 211.47 114.439 211.448 114.416C211.287 114.246 211.088 114.117 210.868 114.038C210.649 113.958 210.413 113.931 210.181 113.958C210.135 113.963 210.089 113.95 210.051 113.922C210.014 113.894 209.988 113.854 209.979 113.808C209.97 113.763 209.978 113.715 210.002 113.676C210.026 113.636 210.064 113.606 210.108 113.592C210.402 113.555 210.702 113.589 210.981 113.69C211.26 113.79 211.511 113.956 211.713 114.173C211.747 114.208 211.766 114.255 211.766 114.304C211.766 114.352 211.747 114.399 211.713 114.434C211.689 114.454 211.658 114.465 211.626 114.466Z" fill="#263238"/>
<path d="M205.109 114.699C205.078 114.688 205.05 114.669 205.028 114.644C205.006 114.618 204.991 114.588 204.985 114.555C204.978 114.522 204.98 114.488 204.991 114.457C205.002 114.425 205.02 114.397 205.045 114.374C205.27 114.183 205.537 114.05 205.825 113.984C206.112 113.919 206.411 113.924 206.696 113.999C206.743 114.015 206.781 114.048 206.803 114.092C206.825 114.135 206.83 114.186 206.815 114.233C206.808 114.256 206.796 114.278 206.78 114.296C206.765 114.315 206.745 114.33 206.724 114.341C206.702 114.352 206.678 114.359 206.654 114.361C206.63 114.362 206.605 114.359 206.582 114.352C206.356 114.295 206.12 114.294 205.894 114.349C205.667 114.404 205.458 114.513 205.283 114.667C205.259 114.686 205.231 114.699 205.2 114.705C205.17 114.71 205.139 114.708 205.109 114.699Z" fill="#263238"/>
<path d="M208.27 120.466C208.896 120.269 210.044 119.849 210.602 119.263C210.674 119.399 210.728 119.543 210.762 119.693C210.827 119.956 210.827 120.231 210.762 120.494C210.625 121.029 210.154 121.609 208.896 121.957H208.869C208.869 121.957 208.187 122.131 207.844 120.585C207.84 120.59 208.009 120.548 208.27 120.466Z" fill="#263238"/>
<path d="M208.27 120.466L208.512 120.882C209.696 120.553 210.488 120.16 210.762 119.693C210.728 119.543 210.674 119.399 210.602 119.263C210.044 119.849 208.896 120.279 208.27 120.466Z" fill="white"/>
<path d="M208.901 121.957C210.159 121.609 210.63 121.042 210.767 120.494C210.29 120.636 209.843 120.862 209.445 121.161C209.186 121.364 208.996 121.642 208.901 121.957Z" fill="#FB504E"/>
<path d="M215.111 118.737C214.759 118.586 214.457 118.337 214.242 118.019C214.1 117.693 214.055 117.332 214.114 116.981C214.145 116.613 214.197 116.246 214.27 115.884C213.927 116.057 213.506 115.783 213.319 115.426C213.081 114.896 213.003 114.308 213.094 113.734C212.875 113.785 212.646 113.777 212.43 113.71C212.215 113.644 212.021 113.521 211.869 113.355C211.726 113.18 211.648 112.961 211.648 112.735C211.648 112.509 211.726 112.29 211.869 112.115C210.435 112.307 208.978 112.217 207.579 111.85C207.675 112.028 207.579 112.243 207.437 112.403C206.931 113.058 206.202 113.504 205.388 113.656C205.27 113.679 205.123 113.684 205.055 113.583C205.027 113.525 205.017 113.46 205.027 113.396C205.067 113.003 205.184 112.622 205.372 112.274C205.559 111.926 205.814 111.619 206.12 111.37C206.734 110.876 207.429 110.492 208.174 110.236C209.386 109.742 210.665 109.433 211.969 109.321C213.28 109.213 214.596 109.441 215.793 109.984C216.056 110.095 216.292 110.262 216.483 110.473C216.646 110.694 216.762 110.944 216.826 111.21C217.306 112.792 217.489 114.45 217.366 116.099" fill="#263238"/>
<path d="M217.654 119.048C217.485 119.501 217.228 119.915 216.897 120.268C216.567 120.62 216.17 120.904 215.729 121.102C214.545 121.623 213.758 120.603 213.927 119.387C214.078 118.289 214.874 116.698 216.141 116.693C217.407 116.689 218.066 117.923 217.654 119.048Z" fill="#E1715B"/>
<path opacity="0.2" d="M214.993 119.126C214.978 119.124 214.963 119.119 214.95 119.111C214.937 119.103 214.926 119.092 214.917 119.08C214.908 119.068 214.901 119.054 214.898 119.039C214.895 119.024 214.894 119.009 214.897 118.994C214.955 118.642 215.103 118.311 215.327 118.033C215.512 117.784 215.779 117.608 216.081 117.535C216.241 117.501 216.408 117.515 216.56 117.575C216.712 117.635 216.843 117.739 216.936 117.873C216.951 117.9 216.955 117.931 216.949 117.96C216.942 117.99 216.924 118.016 216.9 118.033C216.873 118.048 216.841 118.053 216.811 118.045C216.782 118.037 216.756 118.018 216.74 117.992C216.671 117.898 216.577 117.825 216.468 117.784C216.359 117.743 216.241 117.734 216.127 117.759C215.878 117.822 215.658 117.969 215.505 118.175C215.307 118.423 215.177 118.717 215.125 119.03C215.123 119.045 215.118 119.06 215.11 119.073C215.102 119.086 215.092 119.097 215.079 119.106C215.067 119.115 215.053 119.121 215.038 119.125C215.023 119.128 215.008 119.129 214.993 119.126Z" fill="black"/>
<path d="M209.125 133.153C209.125 133.153 197.751 136.477 193.622 136.624C189.492 136.77 180.359 134.84 180.359 134.84L180.876 130.642L194.294 131.328L208.883 126.457L209.125 133.153Z" fill="#E1715B"/>
<path d="M205.059 135.718L207.295 126.476L212.976 125.483C213.227 125.447 217.837 125.067 219.223 130.13L219.529 134.15L205.059 135.718Z" fill="#263238"/>
<path d="M210.41 134.794C210.095 134.794 201.263 136.409 201.263 136.409L199.434 129.21C202.006 128.149 204.635 127.233 207.309 126.466C211.517 125.328 215.459 124.975 216.365 126.924C218.07 130.665 210.41 134.794 210.41 134.794Z" fill="#263238"/>
<path opacity="0.3" d="M192.08 131.282L194.289 131.396L200.029 129.43C200.029 129.43 201.218 128.918 200.916 129.023C200.614 129.128 198.236 128.877 198.076 128.904C197.916 128.931 192.08 131.282 192.08 131.282Z" fill="black"/>
<path d="M176.462 128.735C176.201 128.89 173.16 132.032 173.16 132.032L173.755 135.929L177.578 131.982L176.462 128.735Z" fill="#263238"/>
<path d="M181.04 136.862C180.715 137.02 180.341 137.045 179.998 136.929C179.656 136.813 179.373 136.567 179.211 136.244L173.156 123.937C172.997 123.613 172.973 123.238 173.088 122.896C173.204 122.553 173.45 122.27 173.773 122.108C174.098 121.949 174.472 121.925 174.815 122.04C175.157 122.156 175.44 122.402 175.602 122.725L181.671 135.018C181.752 135.181 181.799 135.357 181.811 135.538C181.822 135.719 181.798 135.9 181.74 136.071C181.681 136.243 181.589 136.401 181.469 136.536C181.349 136.672 181.203 136.783 181.04 136.862Z" fill="#263238"/>
<path d="M185.408 130.98L180.413 130.308L178.973 128.561C178.973 128.561 176.435 128.332 175.89 128.785C175.346 129.238 174.797 130.678 174.797 130.678C174.797 130.678 174.134 131.863 175.255 132.48C175.255 132.48 174.537 133.532 175.817 134.273C175.817 134.273 174.875 134.808 176.224 135.361C176.743 135.568 177.298 135.669 177.857 135.658C178.415 135.647 178.966 135.525 179.476 135.297C180.224 135.115 180.996 135.058 181.763 135.128L186.304 135.929L185.408 130.98Z" fill="#E1715B"/>
</g>
<defs>
<linearGradient id="paint0_linear_8_88" x1="58.5201" y1="41.6812" x2="58.5201" y2="78.9768" gradientUnits="userSpaceOnUse">
<stop stop-color="#2241BC"/>
<stop offset="1" stop-color="#101E56"/>
</linearGradient>
<linearGradient id="paint1_linear_8_88" x1="57.2536" y1="105.096" x2="57.2536" y2="126.677" gradientUnits="userSpaceOnUse">
<stop stop-color="#2241BC"/>
<stop offset="1" stop-color="#101E56"/>
</linearGradient>
<linearGradient id="paint2_linear_8_88" x1="50.1373" y1="110.675" x2="50.1373" y2="112.824" gradientUnits="userSpaceOnUse">
<stop stop-color="#2241BC"/>
<stop offset="1" stop-color="#101E56"/>
</linearGradient>
<linearGradient id="paint3_linear_8_88" x1="59.4143" y1="156.824" x2="59.4143" y2="171.861" gradientUnits="userSpaceOnUse">
<stop stop-color="#2241BC"/>
<stop offset="1" stop-color="#101E56"/>
</linearGradient>
<linearGradient id="paint4_linear_8_88" x1="160.07" y1="87.9658" x2="179.395" y2="89.6701" gradientUnits="userSpaceOnUse">
<stop stop-color="#2241BC"/>
<stop offset="1" stop-color="#101E56"/>
</linearGradient>
<linearGradient id="paint5_linear_8_88" x1="174.436" y1="95.4043" x2="174.436" y2="99.2916" gradientUnits="userSpaceOnUse">
<stop stop-color="#2241BC"/>
<stop offset="1" stop-color="#101E56"/>
</linearGradient>
<linearGradient id="paint6_linear_8_88" x1="179.616" y1="80.0669" x2="179.616" y2="88.476" gradientUnits="userSpaceOnUse">
<stop stop-color="#2241BC"/>
<stop offset="1" stop-color="#101E56"/>
</linearGradient>
<linearGradient id="paint7_linear_8_88" x1="181.274" y1="89.6875" x2="181.274" y2="91.3248" gradientUnits="userSpaceOnUse">
<stop stop-color="#2241BC"/>
<stop offset="1" stop-color="#101E56"/>
</linearGradient>
<linearGradient id="paint8_linear_8_88" x1="205.242" y1="98.1064" x2="205.242" y2="190.157" gradientUnits="userSpaceOnUse">
<stop stop-color="#2241BC"/>
<stop offset="1" stop-color="#101E56"/>
</linearGradient>
<linearGradient id="paint9_linear_8_88" x1="213.125" y1="103.395" x2="213.125" y2="137.58" gradientUnits="userSpaceOnUse">
<stop stop-color="#2241BC"/>
<stop offset="1" stop-color="#101E56"/>
</linearGradient>
<linearGradient id="paint10_linear_8_88" x1="303.191" y1="107.72" x2="303.191" y2="124.701" gradientUnits="userSpaceOnUse">
<stop stop-color="#2241BC"/>
<stop offset="1" stop-color="#101E56"/>
</linearGradient>
<linearGradient id="paint11_linear_8_88" x1="169.802" y1="102.795" x2="169.802" y2="130.246" gradientUnits="userSpaceOnUse">
<stop stop-color="#2241BC"/>
<stop offset="1" stop-color="#101E56"/>
</linearGradient>
<linearGradient id="paint12_linear_8_88" x1="166.607" y1="125.716" x2="166.607" y2="134.964" gradientUnits="userSpaceOnUse">
<stop stop-color="#2241BC"/>
<stop offset="1" stop-color="#101E56"/>
</linearGradient>
<clipPath id="clip0_8_88">
<rect width="343" height="237" fill="white"/>
</clipPath>
</defs>
</svg>
