<svg width="343" height="343" viewBox="0 0 343 343" fill="none" xmlns="http://www.w3.org/2000/svg">
<path d="M304.529 204.931H180.538C178.32 204.931 176.516 203.127 176.516 200.91V20.3042C176.516 18.0867 178.32 16.283 180.538 16.283H304.529C306.747 16.283 308.551 18.0867 308.551 20.3042V200.91C308.551 203.127 306.747 204.931 304.529 204.931ZM180.538 16.4545C178.415 16.4545 176.688 18.1815 176.688 20.3042V200.91C176.688 203.033 178.415 204.76 180.538 204.76H304.529C306.652 204.76 308.379 203.033 308.379 200.91V20.3042C308.379 18.1815 306.652 16.4545 304.529 16.4545H180.538Z" fill="#E0E0E0"/>
<path d="M161.548 204.931H37.5559C35.3384 204.931 33.5347 203.127 33.5347 200.91V20.3042C33.5347 18.0867 35.3384 16.283 37.5559 16.283H161.548C163.765 16.283 165.57 18.0867 165.57 20.3042V200.91C165.57 203.127 163.765 204.931 161.548 204.931ZM37.5559 16.4545C35.4332 16.4545 33.7062 18.1815 33.7062 20.3042V200.91C33.7062 203.033 35.4332 204.76 37.5559 204.76H161.548C163.671 204.76 165.398 203.033 165.398 200.91V20.3042C165.398 18.1815 163.671 16.4545 161.548 16.4545H37.5559Z" fill="#E0E0E0"/>
<path d="M343 229.601H0V229.772H343V229.601Z" fill="#E0E0E0"/>
<path d="M46.4644 239.386H35.4473V239.558H46.4644V239.386Z" fill="#E0E0E0"/>
<path d="M153.583 237.527H116.862V237.699H153.583V237.527Z" fill="#E0E0E0"/>
<path d="M72.0179 245.759H47.1504V245.931H72.0179V245.759Z" fill="#E0E0E0"/>
<path d="M289.178 237.438H259.55V237.609H289.178V237.438Z" fill="#E0E0E0"/>
<path d="M299.633 237.438H295.291V237.609H299.633V237.438Z" fill="#E0E0E0"/>
<path d="M253.89 241.712H216.922V241.883H253.89V241.712Z" fill="#E0E0E0"/>
<path d="M301.623 160.513L301.044 128.832H283.286V136.057H270.211V56.9163H245.071V88.0654H237.528V72.5107H217.912V148.368H190.252V121.567H172.909V63.4578H151.505V102.197H131.388V185.654H115.801V145.014H99.7061V118.865H82.6094V98.7875L63.5337 108.85V162.564H43.4168V151.484H16.5439V229.337L329.338 229.488V160.513H301.623Z" fill="#EBEBEB"/>
<path d="M101.017 229.378V113.547H79.6445V229.488C86.4085 229.321 101.017 229.378 101.017 229.378Z" fill="#E6E6E6"/>
<path d="M81.5523 229.488V165.783H37.5669V229.347L81.5523 229.488Z" fill="#FAFAFA"/>
<path d="M134.996 229.394V135.874H110.079V229.382L134.996 229.394Z" fill="#E0E0E0"/>
<path d="M114.991 139.538H111.97V145.77H114.991V139.538Z" fill="#FAFAFA"/>
<path d="M121.031 139.538H118.011V145.77H121.031V139.538Z" fill="#FAFAFA"/>
<path d="M127.072 139.538H124.051V145.77H127.072V139.538Z" fill="#FAFAFA"/>
<path d="M133.113 139.538H130.092V145.77H133.113V139.538Z" fill="#FAFAFA"/>
<path d="M114.991 149.99H111.97V156.221H114.991V149.99Z" fill="#FAFAFA"/>
<path d="M121.031 149.99H118.011V156.221H121.031V149.99Z" fill="#FAFAFA"/>
<path d="M127.072 149.99H124.051V156.221H127.072V149.99Z" fill="#FAFAFA"/>
<path d="M133.113 149.99H130.092V156.221H133.113V149.99Z" fill="#FAFAFA"/>
<path d="M114.991 160.434H111.97V166.665H114.991V160.434Z" fill="#FAFAFA"/>
<path d="M121.031 160.434H118.011V166.665H121.031V160.434Z" fill="#FAFAFA"/>
<path d="M127.072 160.434H124.051V166.665H127.072V160.434Z" fill="#FAFAFA"/>
<path d="M133.113 160.434H130.092V166.665H133.113V160.434Z" fill="#FAFAFA"/>
<path d="M114.991 170.878H111.97V177.109H114.991V170.878Z" fill="#FAFAFA"/>
<path d="M121.031 170.878H118.011V177.109H121.031V170.878Z" fill="#FAFAFA"/>
<path d="M127.072 170.878H124.051V177.109H127.072V170.878Z" fill="#FAFAFA"/>
<path d="M133.113 170.878H130.092V177.109H133.113V170.878Z" fill="#FAFAFA"/>
<path d="M114.991 181.322H111.97V187.553H114.991V181.322Z" fill="#FAFAFA"/>
<path d="M121.031 181.322H118.011V187.553H121.031V181.322Z" fill="#FAFAFA"/>
<path d="M127.072 181.322H124.051V187.553H127.072V181.322Z" fill="#FAFAFA"/>
<path d="M133.113 181.322H130.092V187.553H133.113V181.322Z" fill="#FAFAFA"/>
<path d="M114.991 191.766H111.97V197.997H114.991V191.766Z" fill="#FAFAFA"/>
<path d="M121.031 191.766H118.011V197.997H121.031V191.766Z" fill="#FAFAFA"/>
<path d="M127.072 191.766H124.051V197.997H127.072V191.766Z" fill="#FAFAFA"/>
<path d="M133.113 191.766H130.092V197.997H133.113V191.766Z" fill="#FAFAFA"/>
<path d="M114.991 202.21H111.97V208.441H114.991V202.21Z" fill="#FAFAFA"/>
<path d="M121.031 202.21H118.011V208.441H121.031V202.21Z" fill="#FAFAFA"/>
<path d="M127.072 202.21H124.051V208.441H127.072V202.21Z" fill="#FAFAFA"/>
<path d="M133.113 202.21H130.092V208.441H133.113V202.21Z" fill="#FAFAFA"/>
<path d="M114.991 212.662H111.97V218.893H114.991V212.662Z" fill="#FAFAFA"/>
<path d="M121.031 212.662H118.011V218.893H121.031V212.662Z" fill="#FAFAFA"/>
<path d="M127.072 212.662H124.051V218.893H127.072V212.662Z" fill="#FAFAFA"/>
<path d="M133.113 212.662H130.092V218.893H133.113V212.662Z" fill="#FAFAFA"/>
<path d="M221.584 229.436V122.553H169.92V229.472C169.92 229.472 221.188 229.488 221.584 229.436Z" fill="#F5F5F5"/>
<path d="M180.063 126.813H173.799V133.99H180.063V126.813Z" fill="#E6E6E6"/>
<path d="M192.597 126.813H186.333V133.99H192.597V126.813Z" fill="#E6E6E6"/>
<path d="M205.124 126.813H198.86V133.99H205.124V126.813Z" fill="#E6E6E6"/>
<path d="M217.658 126.813H211.395V133.99H217.658V126.813Z" fill="#E6E6E6"/>
<path d="M180.063 138.854H173.799V146.032H180.063V138.854Z" fill="#E6E6E6"/>
<path d="M192.597 138.854H186.333V146.032H192.597V138.854Z" fill="#E6E6E6"/>
<path d="M205.124 138.854H198.86V146.032H205.124V138.854Z" fill="#E6E6E6"/>
<path d="M217.658 138.854H211.395V146.032H217.658V138.854Z" fill="#E6E6E6"/>
<path d="M180.063 150.888H173.799V158.065H180.063V150.888Z" fill="#E6E6E6"/>
<path d="M192.597 150.888H186.333V158.065H192.597V150.888Z" fill="#E6E6E6"/>
<path d="M205.124 150.888H198.86V158.065H205.124V150.888Z" fill="#E6E6E6"/>
<path d="M217.658 150.888H211.395V158.065H217.658V150.888Z" fill="#E6E6E6"/>
<path d="M180.063 162.922H173.799V170.099H180.063V162.922Z" fill="#E6E6E6"/>
<path d="M192.597 162.922H186.333V170.099H192.597V162.922Z" fill="#E6E6E6"/>
<path d="M205.124 162.922H198.86V170.099H205.124V162.922Z" fill="#E6E6E6"/>
<path d="M217.658 162.922H211.395V170.099H217.658V162.922Z" fill="#E6E6E6"/>
<path d="M180.063 174.963H173.799V182.14H180.063V174.963Z" fill="#E6E6E6"/>
<path d="M192.597 174.963H186.333V182.14H192.597V174.963Z" fill="#E6E6E6"/>
<path d="M205.124 174.963H198.86V182.14H205.124V174.963Z" fill="#E6E6E6"/>
<path d="M217.658 174.963H211.395V182.14H217.658V174.963Z" fill="#E6E6E6"/>
<path d="M180.063 186.997H173.799V194.174H180.063V186.997Z" fill="#E6E6E6"/>
<path d="M192.597 186.997H186.333V194.174H192.597V186.997Z" fill="#E6E6E6"/>
<path d="M205.124 186.997H198.86V194.174H205.124V186.997Z" fill="#E6E6E6"/>
<path d="M217.658 186.997H211.395V194.174H217.658V186.997Z" fill="#E6E6E6"/>
<path d="M180.063 199.038H173.799V206.216H180.063V199.038Z" fill="#E6E6E6"/>
<path d="M192.597 199.038H186.333V206.216H192.597V199.038Z" fill="#E6E6E6"/>
<path d="M205.124 199.038H198.86V206.216H205.124V199.038Z" fill="#E6E6E6"/>
<path d="M217.658 199.038H211.395V206.216H217.658V199.038Z" fill="#E6E6E6"/>
<path d="M180.063 211.072H173.799V218.249H180.063V211.072Z" fill="#E6E6E6"/>
<path d="M192.597 211.072H186.333V218.249H192.597V211.072Z" fill="#E6E6E6"/>
<path d="M205.124 211.072H198.86V218.249H205.124V211.072Z" fill="#E6E6E6"/>
<path d="M217.658 211.072H211.395V218.249H217.658V211.072Z" fill="#E6E6E6"/>
<path d="M89.357 121.42H83.5854V128.034H89.357V121.42Z" fill="#FAFAFA"/>
<path d="M89.357 132.509H83.5854V139.123H89.357V132.509Z" fill="#FAFAFA"/>
<path d="M89.357 143.605H83.5854V150.219H89.357V143.605Z" fill="#FAFAFA"/>
<path d="M89.357 154.695H83.5854V161.308H89.357V154.695Z" fill="#FAFAFA"/>
<path d="M89.357 165.784H83.5854V172.397H89.357V165.784Z" fill="#FAFAFA"/>
<path d="M89.357 176.88H83.5854V183.494H89.357V176.88Z" fill="#FAFAFA"/>
<path d="M89.357 187.969H83.5854V194.583H89.357V187.969Z" fill="#FAFAFA"/>
<path d="M89.357 199.065H83.5854V205.679H89.357V199.065Z" fill="#FAFAFA"/>
<path d="M97.0768 121.42H91.3052V128.034H97.0768V121.42Z" fill="#FAFAFA"/>
<path d="M97.0768 132.509H91.3052V139.123H97.0768V132.509Z" fill="#FAFAFA"/>
<path d="M97.0768 143.605H91.3052V150.219H97.0768V143.605Z" fill="#FAFAFA"/>
<path d="M97.0768 154.695H91.3052V161.308H97.0768V154.695Z" fill="#FAFAFA"/>
<path d="M97.0768 165.784H91.3052V172.397H97.0768V165.784Z" fill="#FAFAFA"/>
<path d="M97.0768 176.88H91.3052V183.494H97.0768V176.88Z" fill="#FAFAFA"/>
<path d="M97.0768 187.969H91.3052V194.583H97.0768V187.969Z" fill="#FAFAFA"/>
<path d="M97.0768 199.065H91.3052V205.679H97.0768V199.065Z" fill="#FAFAFA"/>
<path d="M162.664 71.1448H156.401V78.322H162.664V71.1448Z" fill="#FAFAFA"/>
<path d="M162.664 83.1785H156.401V90.3557H162.664V83.1785Z" fill="#FAFAFA"/>
<path d="M162.664 94.3922H156.401V101.569H162.664V94.3922Z" fill="#FAFAFA"/>
<path d="M162.664 106.426H156.401V113.603H162.664V106.426Z" fill="#FAFAFA"/>
<path d="M162.664 118.459H156.401V125.637H162.664V118.459Z" fill="#FAFAFA"/>
<path d="M162.664 130.501H156.401V137.678H162.664V130.501Z" fill="#FAFAFA"/>
<path d="M162.664 142.535H156.401V149.712H162.664V142.535Z" fill="#FAFAFA"/>
<path d="M162.664 154.576H156.401V161.753H162.664V154.576Z" fill="#FAFAFA"/>
<path d="M256.747 60.7077H250.484V67.8849H256.747V60.7077Z" fill="#FAFAFA"/>
<path d="M256.747 72.7413H250.484V79.9186H256.747V72.7413Z" fill="#FAFAFA"/>
<path d="M256.747 84.7828H250.484V91.9601H256.747V84.7828Z" fill="#FAFAFA"/>
<path d="M256.747 96.8164H250.484V103.994H256.747V96.8164Z" fill="#FAFAFA"/>
<path d="M256.747 108.858H250.484V116.035H256.747V108.858Z" fill="#FAFAFA"/>
<path d="M256.747 120.892H250.484V128.069H256.747V120.892Z" fill="#FAFAFA"/>
<path d="M256.747 132.933H250.484V140.11H256.747V132.933Z" fill="#FAFAFA"/>
<path d="M256.747 144.967H250.484V152.144H256.747V144.967Z" fill="#FAFAFA"/>
<path d="M301.623 116.003H263.9V229.488H301.623V116.003Z" fill="#E6E6E6"/>
<path d="M280.536 121.599H269.48V128.776H280.536V121.599Z" fill="#FAFAFA"/>
<path d="M280.536 133.641H269.48V140.818H280.536V133.641Z" fill="#FAFAFA"/>
<path d="M280.536 145.674H269.48V152.851H280.536V145.674Z" fill="#FAFAFA"/>
<path d="M280.536 157.716H269.48V164.893H280.536V157.716Z" fill="#FAFAFA"/>
<path d="M280.536 169.749H269.48V176.927H280.536V169.749Z" fill="#FAFAFA"/>
<path d="M280.536 181.783H269.48V188.96H280.536V181.783Z" fill="#FAFAFA"/>
<path d="M280.536 193.824H269.48V201.002H280.536V193.824Z" fill="#FAFAFA"/>
<path d="M280.536 205.858H269.48V213.035H280.536V205.858Z" fill="#FAFAFA"/>
<path d="M295.327 121.599H284.271V128.776H295.327V121.599Z" fill="#FAFAFA"/>
<path d="M295.327 133.641H284.271V140.818H295.327V133.641Z" fill="#FAFAFA"/>
<path d="M295.327 145.674H284.271V152.851H295.327V145.674Z" fill="#FAFAFA"/>
<path d="M295.327 157.716H284.271V164.893H295.327V157.716Z" fill="#FAFAFA"/>
<path d="M295.327 169.749H284.271V176.927H295.327V169.749Z" fill="#FAFAFA"/>
<path d="M295.327 181.783H284.271V188.96H295.327V181.783Z" fill="#FAFAFA"/>
<path d="M295.327 193.824H284.271V201.002H295.327V193.824Z" fill="#FAFAFA"/>
<path d="M295.327 205.858H284.271V213.035H295.327V205.858Z" fill="#FAFAFA"/>
<path d="M243.33 229.447V150.888H226.877V229.438L243.33 229.447Z" fill="#E0E0E0"/>
<path d="M230.121 154.067H228.125V159.417H230.121V154.067Z" fill="#FAFAFA"/>
<path d="M234.11 154.067H232.115V159.417H234.11V154.067Z" fill="#FAFAFA"/>
<path d="M238.093 154.067H236.098V159.417H238.093V154.067Z" fill="#FAFAFA"/>
<path d="M242.082 154.067H240.087V159.417H242.082V154.067Z" fill="#FAFAFA"/>
<path d="M230.121 163.041H228.125V168.39H230.121V163.041Z" fill="#FAFAFA"/>
<path d="M234.11 163.041H232.115V168.39H234.11V163.041Z" fill="#FAFAFA"/>
<path d="M238.093 163.041H236.098V168.39H238.093V163.041Z" fill="#FAFAFA"/>
<path d="M242.082 163.041H240.087V168.39H242.082V163.041Z" fill="#FAFAFA"/>
<path d="M230.121 172.015H228.125V177.364H230.121V172.015Z" fill="#FAFAFA"/>
<path d="M234.11 172.015H232.115V177.364H234.11V172.015Z" fill="#FAFAFA"/>
<path d="M238.093 172.015H236.098V177.364H238.093V172.015Z" fill="#FAFAFA"/>
<path d="M242.082 172.015H240.087V177.364H242.082V172.015Z" fill="#FAFAFA"/>
<path d="M230.121 180.988H228.125V186.337H230.121V180.988Z" fill="#FAFAFA"/>
<path d="M234.11 180.988H232.115V186.337H234.11V180.988Z" fill="#FAFAFA"/>
<path d="M238.093 180.988H236.098V186.337H238.093V180.988Z" fill="#FAFAFA"/>
<path d="M242.082 180.988H240.087V186.337H242.082V180.988Z" fill="#FAFAFA"/>
<path d="M230.121 189.969H228.125V195.319H230.121V189.969Z" fill="#FAFAFA"/>
<path d="M234.11 189.969H232.115V195.319H234.11V189.969Z" fill="#FAFAFA"/>
<path d="M238.093 189.969H236.098V195.319H238.093V189.969Z" fill="#FAFAFA"/>
<path d="M242.082 189.969H240.087V195.319H242.082V189.969Z" fill="#FAFAFA"/>
<path d="M230.121 198.943H228.125V204.292H230.121V198.943Z" fill="#FAFAFA"/>
<path d="M234.11 198.943H232.115V204.292H234.11V198.943Z" fill="#FAFAFA"/>
<path d="M238.093 198.943H236.098V204.292H238.093V198.943Z" fill="#FAFAFA"/>
<path d="M242.082 198.943H240.087V204.292H242.082V198.943Z" fill="#FAFAFA"/>
<path d="M230.121 207.917H228.125V213.266H230.121V207.917Z" fill="#FAFAFA"/>
<path d="M234.11 207.917H232.115V213.266H234.11V207.917Z" fill="#FAFAFA"/>
<path d="M238.093 207.917H236.098V213.266H238.093V207.917Z" fill="#FAFAFA"/>
<path d="M242.082 207.917H240.087V213.266H242.082V207.917Z" fill="#FAFAFA"/>
<path d="M230.121 216.89H228.125V222.239H230.121V216.89Z" fill="#FAFAFA"/>
<path d="M234.11 216.89H232.115V222.239H234.11V216.89Z" fill="#FAFAFA"/>
<path d="M238.093 216.89H236.098V222.239H238.093V216.89Z" fill="#FAFAFA"/>
<path d="M242.082 216.89H240.087V222.239H242.082V216.89Z" fill="#FAFAFA"/>
<path d="M46.2307 168.446H40.8975V172.936H46.2307V168.446Z" fill="#E6E6E6"/>
<path d="M56.8972 168.446H51.564V172.936H56.8972V168.446Z" fill="#E6E6E6"/>
<path d="M67.5553 168.446H62.2222V172.936H67.5553V168.446Z" fill="#E6E6E6"/>
<path d="M78.222 168.446H72.8887V172.936H78.222V168.446Z" fill="#E6E6E6"/>
<path d="M46.2307 175.973H40.8975V180.463H46.2307V175.973Z" fill="#E6E6E6"/>
<path d="M56.8972 175.973H51.564V180.463H56.8972V175.973Z" fill="#E6E6E6"/>
<path d="M67.5553 175.973H62.2222V180.463H67.5553V175.973Z" fill="#E6E6E6"/>
<path d="M78.222 175.973H72.8887V180.463H78.222V175.973Z" fill="#E6E6E6"/>
<path d="M46.2307 183.5H40.8975V187.99H46.2307V183.5Z" fill="#E6E6E6"/>
<path d="M56.8972 183.5H51.564V187.99H56.8972V183.5Z" fill="#E6E6E6"/>
<path d="M67.5553 183.5H62.2222V187.99H67.5553V183.5Z" fill="#E6E6E6"/>
<path d="M78.222 183.5H72.8887V187.99H78.222V183.5Z" fill="#E6E6E6"/>
<path d="M46.2307 191.027H40.8975V195.517H46.2307V191.027Z" fill="#E6E6E6"/>
<path d="M56.8972 191.027H51.564V195.517H56.8972V191.027Z" fill="#E6E6E6"/>
<path d="M67.5553 191.027H62.2222V195.517H67.5553V191.027Z" fill="#E6E6E6"/>
<path d="M78.222 191.027H72.8887V195.517H78.222V191.027Z" fill="#E6E6E6"/>
<path d="M46.2307 198.546H40.8975V203.036H46.2307V198.546Z" fill="#E6E6E6"/>
<path d="M56.8972 198.546H51.564V203.036H56.8972V198.546Z" fill="#E6E6E6"/>
<path d="M67.5553 198.546H62.2222V203.036H67.5553V198.546Z" fill="#E6E6E6"/>
<path d="M78.222 198.546H72.8887V203.036H78.222V198.546Z" fill="#E6E6E6"/>
<path d="M46.2307 206.073H40.8975V210.563H46.2307V206.073Z" fill="#E6E6E6"/>
<path d="M56.8972 206.073H51.564V210.563H56.8972V206.073Z" fill="#E6E6E6"/>
<path d="M67.5553 206.073H62.2222V210.563H67.5553V206.073Z" fill="#E6E6E6"/>
<path d="M78.222 206.073H72.8887V210.563H78.222V206.073Z" fill="#E6E6E6"/>
<path d="M46.2307 213.6H40.8975V218.09H46.2307V213.6Z" fill="#E6E6E6"/>
<path d="M56.8972 213.6H51.564V218.09H56.8972V213.6Z" fill="#E6E6E6"/>
<path d="M67.5553 213.6H62.2222V218.09H67.5553V213.6Z" fill="#E6E6E6"/>
<path d="M78.222 213.6H72.8887V218.09H78.222V213.6Z" fill="#E6E6E6"/>
<path d="M26.1802 74.543C26.1802 71.5724 28.5851 69.1625 31.5558 69.1563C32.0799 69.1598 32.6009 69.2385 33.1028 69.3901C33.0167 68.8453 32.9756 68.2944 32.9802 67.7429C32.9802 61.455 38.0778 56.3576 44.3658 56.3576C45.0674 56.3582 45.7677 56.4215 46.4581 56.5467C49.3109 51.8502 55.4309 50.3555 60.1274 53.2084C63.0569 54.9878 64.8642 58.1499 64.9107 61.5772H65.0776C70.1425 61.5772 74.2483 65.683 74.2483 70.7479C74.2483 75.8128 70.1425 79.9186 65.0776 79.9186H31.3888C28.4829 79.8341 26.1729 77.4502 26.1802 74.543Z" fill="#F5F5F5"/>
<path d="M191.184 51.5634C191.184 48.5928 193.589 46.1829 196.56 46.1767C197.084 46.1802 197.605 46.2589 198.107 46.4105C198.021 45.8657 197.98 45.3149 197.984 44.7633C197.984 38.4753 203.082 33.3779 209.37 33.3779C210.071 33.3786 210.772 33.4419 211.462 33.567C214.315 28.8706 220.435 27.3759 225.131 30.2288C228.061 32.0082 229.868 35.1703 229.915 38.5976H230.082C235.146 38.5976 239.252 42.7034 239.252 47.7683C239.252 52.8332 235.146 56.9389 230.082 56.9389H196.393C193.487 56.8545 191.177 54.4706 191.184 51.5634Z" fill="#F5F5F5"/>
<path d="M117.279 52.1475C117.279 50.9389 118.259 49.959 119.467 49.959C119.68 49.9576 119.891 49.9871 120.095 50.0465C120.065 49.824 120.051 49.5999 120.051 49.3754C120.051 46.8129 122.128 44.7356 124.691 44.7356C124.977 44.7364 125.263 44.7632 125.544 44.8159C126.701 42.902 129.19 42.2878 131.103 43.4442C132.304 44.1693 133.043 45.4637 133.058 46.8658H133.131C135.194 46.8671 136.865 48.5405 136.864 50.6033C136.863 52.6644 135.192 54.3348 133.131 54.3361H119.409C118.223 54.3045 117.278 53.3338 117.279 52.1475Z" fill="#F5F5F5"/>
<path d="M182.229 89.1882C182.229 87.6881 183.445 86.4719 184.945 86.4719C185.208 86.4701 185.471 86.5067 185.724 86.5805C185.687 86.3043 185.669 86.0261 185.669 85.7475C185.669 82.567 188.248 79.9888 191.428 79.9887C191.784 79.9896 192.138 80.0229 192.488 80.0883C193.923 77.7128 197.012 76.9505 199.387 78.3857C200.877 79.2858 201.795 80.8924 201.814 82.6326H201.904C204.465 82.6343 206.539 84.7112 206.538 87.2716C206.536 89.8297 204.463 91.9031 201.904 91.9047H184.873C183.401 91.8654 182.228 90.6607 182.229 89.1882Z" fill="#F5F5F5"/>
<path d="M97.5146 87.883C97.5146 85.9125 99.1122 84.3149 101.083 84.3149C101.429 84.3126 101.773 84.3608 102.106 84.4576C102.058 84.0948 102.034 83.7293 102.034 83.3634C102.034 79.1856 105.421 75.799 109.599 75.7989C110.066 75.8001 110.531 75.8439 110.99 75.9298C112.876 72.8094 116.933 71.8081 120.054 73.6934C122.011 74.8756 123.216 76.986 123.241 79.2719H123.36C126.723 79.2741 129.448 82.0021 129.446 85.3654C129.444 88.7256 126.72 91.4491 123.36 91.4511H100.988C99.0543 91.3996 97.514 89.8171 97.5146 87.883Z" fill="#E6E6E6"/>
<path d="M295.291 68.4212C295.291 67.0166 296.429 65.8778 297.834 65.8778C298.081 65.8762 298.326 65.9105 298.563 65.9795C298.529 65.7209 298.512 65.4604 298.512 65.1995C298.512 62.2216 300.926 59.8075 303.904 59.8074C304.237 59.8083 304.569 59.8395 304.896 59.9007C306.24 57.6765 309.133 56.9627 311.357 58.3066C312.752 59.1492 313.611 60.6536 313.629 62.283H313.714C316.111 62.2846 318.053 64.2292 318.052 66.6266C318.05 69.0218 316.109 70.9633 313.714 70.9646H297.766C296.388 70.9279 295.29 69.7999 295.291 68.4212Z" fill="#E6E6E6"/>
<path d="M11.1241 316.758C10.1305 317.637 55.3191 246.067 55.3191 246.067H64.0258L26.4352 316.766L11.1241 316.758Z" fill="#E6E6E6"/>
<path d="M334.822 316.758C335.816 317.637 290.627 246.067 290.627 246.067H281.92L319.511 316.766L334.822 316.758Z" fill="#E6E6E6"/>
<path d="M289.013 294.224C289.013 315.255 237.046 332.304 172.941 332.304C108.836 332.304 56.8687 315.255 56.8687 294.224C56.8687 273.194 108.836 256.144 172.941 256.144C237.046 256.144 289.013 273.193 289.013 294.224Z" fill="#F5F5F5"/>
<path d="M84.4835 242.832H63.2451C59.2233 242.832 55.9629 246.093 55.9629 250.115V309.078C55.9629 313.1 59.2233 316.361 63.2451 316.361H84.4835C88.5053 316.361 91.7657 313.1 91.7657 309.078V250.115C91.7657 246.093 88.5053 242.832 84.4835 242.832Z" fill="#263238"/>
<path d="M264.369 316.361H287.02C291.042 316.361 294.302 313.1 294.302 309.078V250.115C294.302 246.093 291.042 242.832 287.02 242.832H264.369C260.347 242.832 257.087 246.093 257.087 250.115V309.078C257.087 313.1 260.347 316.361 264.369 316.361Z" fill="#263238"/>
<path d="M67.3914 204.411C66.7161 204.547 63.4964 208.15 60.8939 211.172C58.608 213.827 57.3402 217.256 57.3273 220.819C57.2836 232.782 57.5925 259.09 58.3847 263.619C59.3584 269.186 64.4704 288.669 65.6875 289.681C66.9046 290.693 75.181 290.946 75.181 290.946C75.181 290.946 76.3981 224.906 75.181 224.653C73.9639 224.4 67.3914 204.411 67.3914 204.411Z" fill="url(#paint0_linear_8_813)"/>
<path opacity="0.3" d="M67.3914 204.411C66.7161 204.547 63.4964 208.15 60.8939 211.172C58.608 213.827 57.3402 217.256 57.3273 220.819C57.2836 232.782 57.5925 259.09 58.3847 263.619C59.3584 269.186 64.4704 288.669 65.6875 289.681C66.9046 290.693 75.181 290.946 75.181 290.946C75.181 290.946 76.3981 224.906 75.181 224.653C73.9639 224.4 67.3914 204.411 67.3914 204.411Z" fill="black"/>
<path d="M282.355 204.411C283.057 204.547 286.404 208.15 289.109 211.172C291.485 213.827 292.803 217.256 292.816 220.819C292.861 232.782 292.541 259.09 291.717 263.619C290.705 269.186 285.391 288.669 284.126 289.681C282.861 290.693 274.258 290.946 274.258 290.946C274.258 290.946 272.993 224.906 274.258 224.653C275.523 224.4 282.355 204.411 282.355 204.411Z" fill="url(#paint1_linear_8_813)"/>
<path opacity="0.3" d="M282.355 204.411C283.057 204.547 286.404 208.15 289.109 211.172C291.485 213.827 292.803 217.256 292.816 220.819C292.861 232.782 292.541 259.09 291.717 263.619C290.705 269.186 285.391 288.669 284.126 289.681C282.861 290.693 274.258 290.946 274.258 290.946C274.258 290.946 272.993 224.906 274.258 224.653C275.523 224.4 282.355 204.411 282.355 204.411Z" fill="black"/>
<path d="M283.159 264.965C283.159 264.965 284.975 211.776 283.361 201.712C281.984 193.122 257.88 145.125 250.848 131.248C248.6 126.81 245.339 122.984 241.258 120.308C238.4 118.435 234.877 116.898 230.921 116.776C224.867 116.591 187.356 116.714 174.975 116.761C162.593 116.714 125.082 116.591 119.029 116.776C115.072 116.898 111.549 118.435 108.691 120.308C104.61 122.984 101.349 126.81 99.1008 131.248C92.0686 145.125 67.9651 193.122 66.5878 201.712C64.9741 211.776 66.7902 264.965 66.7902 264.965L63.9663 272.094L69.6141 292.641C69.6141 292.641 97.8534 295.577 102.694 295.577C107.535 295.577 111.57 290.545 111.57 290.545L171.009 292.394V292.641L174.975 292.518L178.94 292.641V292.394L238.379 290.545C238.379 290.545 242.414 295.577 247.255 295.577C252.096 295.577 280.335 292.641 280.335 292.641L285.983 272.094L283.159 264.965Z" fill="url(#paint2_linear_8_813)"/>
<path opacity="0.3" d="M275.588 251.441C239.58 260.467 189.313 261.828 174.975 262.033C160.637 261.828 110.369 260.467 74.3614 251.441C74.3614 251.441 70.1216 265.44 74.3614 273.995C74.3614 273.995 136.844 284.873 174.975 283.751C213.105 284.873 275.588 273.995 275.588 273.995C279.828 265.44 275.588 251.441 275.588 251.441Z" fill="black"/>
<path d="M96.063 179.412L102.897 163.567C104.293 160.331 107.388 158.248 110.8 158.248H238.708C242.004 158.248 245.015 160.193 246.474 163.265L253.886 178.872L96.063 179.412Z" fill="#263238"/>
<path opacity="0.5" d="M245.63 134.33C242.573 127.247 235.762 122.728 228.294 122.832H121.655C114.187 122.728 107.376 127.247 104.319 134.33L86.1763 176.365L171.009 177.292V177.379L174.975 177.335L178.94 177.379V177.292L263.773 176.365L245.63 134.33Z" fill="white"/>
<path d="M79.2583 200.644C79.2583 200.644 71.1381 204.733 69.2773 209.81C67.4164 214.888 67.5856 224.207 69.2773 227.373C70.969 230.538 82.194 233.749 92.7919 234.934C96.1474 235.309 110.439 236.395 111.908 234.934C112.519 234.326 113.769 224.207 110.386 219.811C107.002 215.415 79.2583 200.644 79.2583 200.644Z" fill="white"/>
<path d="M79.0144 172.25C79.0144 172.25 75.285 165.713 73.9687 165.332C72.6524 164.952 59.7246 165.858 57.2945 166.139C56.4438 166.237 53.4931 167.461 53.9319 170.425C54.3707 173.39 55.0288 178.178 58.027 179.623C61.0252 181.067 62.0804 180.687 66.4522 180.839C70.8242 180.991 77.1862 180.611 77.6981 180.079C78.21 179.547 78.2831 178.787 78.2831 178.787L80.3307 180.231L82.5977 175.366L79.0144 172.25Z" fill="url(#paint3_linear_8_813)"/>
<path d="M84.3038 269.46C87.27 269.46 89.6745 266.961 89.6745 263.878C89.6745 260.794 87.27 258.295 84.3038 258.295C81.3376 258.295 78.9331 260.794 78.9331 263.878C78.9331 266.961 81.3376 269.46 84.3038 269.46Z" fill="#A24E3F"/>
<path d="M110.448 219.792C104.898 215.314 81.0293 201.905 80.7888 201.77C78.1333 199.954 77.0614 196.603 78.1564 193.605C80.0258 188.487 83.7077 182.116 83.7445 182.052L84.3381 182.396C84.3012 182.459 80.6495 188.779 78.8008 193.841C77.8134 196.544 78.7797 199.565 81.1502 201.188C81.3653 201.307 105.284 214.744 110.878 219.259L110.448 219.792Z" fill="#263238"/>
<path d="M105.026 177.484C105.139 176.853 107.432 165.329 108.543 159.747C108.891 158.004 110.295 156.762 111.927 156.755C119.598 156.727 140.927 156.656 148.288 156.736C149.76 156.752 150.946 158.062 150.946 159.672L152.858 177.484H105.026Z" fill="#263238"/>
<path d="M139.188 135.02H122.912C119.552 135.02 116.829 137.743 116.829 141.103V147.627C116.829 150.986 119.552 153.709 122.912 153.709H139.188C142.548 153.709 145.271 150.986 145.271 147.627V141.103C145.271 137.743 142.548 135.02 139.188 135.02Z" fill="#263238"/>
<g opacity="0.2">
<path d="M105.026 177.484C105.139 176.853 107.432 165.329 108.543 159.747C108.891 158.004 110.295 156.762 111.927 156.755C119.598 156.727 140.927 156.656 148.288 156.736C149.76 156.752 150.946 158.062 150.946 159.672L152.858 177.484H105.026Z" fill="white"/>
<path d="M139.188 135.02H122.912C119.552 135.02 116.829 137.743 116.829 141.103V147.627C116.829 150.986 119.552 153.709 122.912 153.709H139.188C142.548 153.709 145.271 150.986 145.271 147.627V141.103C145.271 137.743 142.548 135.02 139.188 135.02Z" fill="white"/>
</g>
<path opacity="0.3" d="M80.8477 180.648L78.2833 178.786C78.1984 179.173 78.0357 179.878 77.4 180.226C76.8057 180.551 75.76 180.53 75.0306 180.597L74.0654 182.713C74.0654 182.713 76.0198 181.973 77.4427 181.298C78.8654 180.623 78.7476 179.83 78.7476 179.83L80.8477 180.648Z" fill="black"/>
<path opacity="0.3" d="M80.0319 169.913L78.9746 172.14C79.7556 173.106 82.2986 176.008 82.2986 176.008L80.0319 169.913Z" fill="black"/>
<path d="M270.088 200.644C270.088 200.644 278.528 204.733 280.463 209.81C282.397 214.888 282.221 224.207 280.463 227.373C278.704 230.538 267.036 233.749 256.02 234.934C252.532 235.309 237.677 236.395 236.15 234.934C235.515 234.326 234.216 224.207 237.733 219.811C241.249 215.415 270.088 200.644 270.088 200.644Z" fill="white"/>
<path d="M270.341 172.25C270.341 172.25 274.218 165.713 275.586 165.332C276.954 164.952 290.392 165.858 292.918 166.139C293.802 166.237 296.869 167.461 296.413 170.425C295.957 173.39 295.273 178.178 292.157 179.623C289.04 181.067 287.943 180.687 283.399 180.839C278.855 180.991 272.242 180.611 271.709 180.079C271.177 179.547 271.101 178.787 271.101 178.787L268.973 180.231L266.617 175.366L270.341 172.25Z" fill="url(#paint4_linear_8_813)"/>
<path opacity="0.3" d="M176.799 224.96V224.924C176.799 224.924 175.305 224.95 172.754 224.96C170.202 224.95 168.708 224.924 168.708 224.924V224.96C154.058 224.905 123.464 224.204 110.663 219.525C110.663 219.525 114.086 231.151 116.938 234.445C119.79 237.739 123.022 240.064 130.438 240.839C136.578 241.481 154.662 242.161 168.708 242.595L168.715 242.596C171.63 242.686 174.375 242.533 176.799 242.6C191.059 242.434 208.902 241.484 215.069 240.839C222.485 240.064 225.717 237.739 228.569 234.445C231.421 231.151 234.844 219.525 234.844 219.525C222.043 224.204 191.449 224.905 176.799 224.96Z" fill="black"/>
<path d="M268.791 267.825C270.971 265.645 270.971 262.11 268.791 259.93C266.611 257.75 263.076 257.75 260.896 259.93C258.716 262.11 258.716 265.645 260.896 267.825C263.076 270.005 266.611 270.005 268.791 267.825Z" fill="#A24E3F"/>
<path d="M234.342 220.065L234.085 219.43C242.726 215.926 267.897 201.322 268.15 201.174C270.566 199.583 271.577 196.451 270.537 193.739C268.597 188.679 265.502 181.976 265.471 181.909L266.094 181.621C266.125 181.688 269.229 188.412 271.178 193.494C272.331 196.504 271.21 199.979 268.512 201.758C268.242 201.915 243.028 216.544 234.342 220.065Z" fill="#263238"/>
<path d="M239.595 175.827C239.476 175.175 237.065 163.285 235.897 157.526C235.531 155.727 234.055 154.446 232.339 154.439C224.273 154.409 201.846 154.337 194.107 154.419C192.558 154.436 191.311 155.788 191.311 157.449L189.302 175.827H239.595Z" fill="#263238"/>
<path opacity="0.2" d="M239.595 175.827C239.476 175.175 237.065 163.285 235.897 157.526C235.531 155.727 234.055 154.446 232.339 154.439C224.273 154.409 201.846 154.337 194.107 154.419C192.558 154.436 191.311 155.788 191.311 157.449L189.302 175.827H239.595Z" fill="white"/>
<path d="M204.909 152.549H223.988C227.348 152.549 230.071 149.826 230.071 146.466V138.484C230.071 135.125 227.348 132.401 223.988 132.401H204.909C201.549 132.401 198.826 135.125 198.826 138.484V146.466C198.826 149.826 201.549 152.549 204.909 152.549Z" fill="#263238"/>
<path opacity="0.2" d="M204.909 152.549H223.988C227.348 152.549 230.071 149.826 230.071 146.466V138.484C230.071 135.125 227.348 132.401 223.988 132.401H204.909C201.549 132.401 198.826 135.125 198.826 138.484V146.466C198.826 149.826 201.549 152.549 204.909 152.549Z" fill="white"/>
<path opacity="0.3" d="M268.436 180.648L271.102 178.786C271.19 179.173 271.359 179.878 272.02 180.226C272.638 180.551 273.724 180.53 274.483 180.597L275.486 182.713C275.486 182.713 273.454 181.973 271.975 181.298C270.496 180.623 270.619 179.83 270.619 179.83L268.436 180.648Z" fill="black"/>
<path opacity="0.3" d="M269.284 169.913L270.383 172.14C269.571 173.106 266.928 176.008 266.928 176.008L269.284 169.913Z" fill="black"/>
<path opacity="0.2" d="M176.166 185.255C175.182 185.255 90.9699 184.178 88.0176 184.879C86.1042 185.333 84.2687 190.327 83.2139 193.785C82.6153 195.747 83.3734 197.876 85.0449 198.981C91.9419 203.539 110.903 214.965 131.468 218.16C157.15 222.149 172.404 219.336 176.832 215.5C181.261 211.664 177.15 185.255 176.166 185.255Z" fill="white"/>
<path d="M199.697 156.3C199.847 156.524 202.912 169.986 202.912 169.986L199.739 180.222H186.475C186.475 180.222 194.095 161.703 195.545 159.31C196.977 156.948 199.697 156.3 199.697 156.3Z" fill="url(#paint5_linear_8_813)"/>
<path d="M229.199 156.3C229.049 156.524 225.984 169.986 225.984 169.986L229.157 180.222H242.422C242.422 180.222 234.801 161.703 233.351 159.31C231.92 156.948 229.199 156.3 229.199 156.3Z" fill="url(#paint6_linear_8_813)"/>
<path d="M229.566 156.3C226.586 156.104 211.864 153.717 199.697 156.3L199.746 180.222H231.704L229.566 156.3Z" fill="url(#paint7_linear_8_813)"/>
<path d="M222.88 134.31C222.88 134.31 229.338 130.674 225.505 126.773C222.481 123.697 219.807 124.146 215.763 124.882C205.851 126.687 206.428 130.817 206.428 130.817L222.88 134.31Z" fill="#263238"/>
<path d="M210.259 155.106C210.259 155.106 210.789 151.305 208.563 144.714C208.563 144.707 208.908 144.536 208.908 144.529C208.6 143.607 208.279 142.757 207.979 142.021C207.972 141.999 207.972 141.992 207.972 141.992L217.347 147.237C217.225 149.381 218.171 153.472 218.704 155.193C218.704 155.193 219.994 158.298 215.804 158.618C212.742 158.852 210.259 155.106 210.259 155.106Z" fill="#B97964"/>
<path opacity="0.2" d="M217.634 150.231L212.328 149.275C212.876 150.889 214.406 152.763 218.07 152.762C218.07 152.762 217.626 150.949 217.634 150.231Z" fill="black"/>
<path d="M207.708 137.56C208.576 143.321 208.949 146.588 212.141 149.275C216.941 153.318 223.707 150.112 224.581 144.19C225.367 138.86 223.816 130.335 217.936 128.586C212.142 126.862 206.841 131.799 207.708 137.56Z" fill="#B97964"/>
<path d="M206.358 130.66C213.431 123.847 220.626 127.669 223.381 131.404L211.041 131.55C210.502 131.54 210.196 132.102 210.313 133.129C210.313 133.129 214.591 140.801 208.694 145.107C206.584 144.299 206.155 140.79 205.332 138.75C204.106 135.711 202.558 131.239 206.358 130.66Z" fill="#263238"/>
<path d="M205.847 142.591C206.442 144.042 207.654 145.075 208.853 145.544C210.658 146.25 211.135 144.303 210.81 142.493C210.518 140.863 209.861 138.905 207.965 138.973C206.097 139.04 205.167 140.933 205.847 142.591Z" fill="#B97964"/>
<path d="M215.49 138.399C215.543 138.991 215.899 139.441 216.287 139.403C216.675 139.365 216.947 138.853 216.894 138.261C216.842 137.668 216.485 137.218 216.098 137.256C215.71 137.294 215.438 137.806 215.49 138.399Z" fill="#263238"/>
<path d="M221.479 138.204C221.531 138.796 221.888 139.246 222.276 139.208C222.663 139.17 222.935 138.658 222.883 138.066C222.831 137.473 222.474 137.023 222.086 137.061C221.699 137.099 221.427 137.611 221.479 138.204Z" fill="#263238"/>
<path d="M220.05 137.941C220.05 137.941 222.187 140.72 222.894 141.866C222.135 142.684 220.684 142.466 220.684 142.466L220.05 137.941Z" fill="#A24E3F"/>
<path d="M214.451 135.834C214.544 135.863 214.65 135.842 214.726 135.77C215.639 134.92 216.639 135.147 216.649 135.149C216.799 135.185 216.95 135.094 216.988 134.945C217.025 134.796 216.933 134.646 216.784 134.61C216.732 134.597 215.478 134.311 214.347 135.367C214.233 135.472 214.227 135.648 214.332 135.759C214.366 135.796 214.407 135.82 214.451 135.834Z" fill="#263238"/>
<path d="M218.643 144.797C217.629 144.797 216.837 144.277 216.19 143.755C216.079 143.666 216.062 143.504 216.151 143.393C216.24 143.282 216.402 143.266 216.512 143.355C217.402 144.071 218.116 144.342 218.883 144.271C219.033 144.252 219.15 144.36 219.164 144.502C219.178 144.644 219.074 144.769 218.933 144.783C218.834 144.792 218.737 144.797 218.643 144.797Z" fill="#263238"/>
<path opacity="0.2" d="M209.827 142.545C209.747 142.545 209.675 142.489 209.658 142.408C209.563 141.942 209.348 141.508 209.034 141.152C208.832 140.923 208.503 140.635 208.084 140.57C207.712 140.511 207.334 140.675 207.178 140.956C207.132 141.039 207.027 141.068 206.945 141.023C206.862 140.977 206.833 140.872 206.878 140.79C207.105 140.381 207.623 140.153 208.136 140.231C208.657 140.312 209.052 140.653 209.291 140.926C209.644 141.326 209.888 141.815 209.995 142.34C210.014 142.433 209.954 142.523 209.861 142.542C209.849 142.544 209.838 142.545 209.827 142.545Z" fill="black"/>
<path d="M224.315 135.374C224.366 135.358 224.413 135.327 224.449 135.283C224.546 135.164 224.53 134.987 224.412 134.89C223.227 133.912 222.006 134.3 221.949 134.31C221.803 134.357 221.721 134.514 221.767 134.661C221.813 134.807 221.967 134.888 222.113 134.843C222.163 134.825 223.107 134.539 224.058 135.323C224.132 135.385 224.23 135.4 224.315 135.374Z" fill="#263238"/>
<g opacity="0.2">
<path d="M215.887 142.215C215.376 142.768 215.103 143.534 215.149 144.285C215.149 144.285 214.805 143.69 214.957 143.061C215.11 142.432 215.887 142.215 215.887 142.215Z" fill="black"/>
</g>
<path d="M217.841 152.071L221.184 155.078L215.604 161.845L207.542 155.048L209.931 151.535L214.971 155.744L217.841 152.071Z" fill="url(#paint8_linear_8_813)"/>
<path opacity="0.8" d="M217.841 152.071L221.184 155.078L215.604 161.845L207.542 155.048L209.931 151.535L214.971 155.744L217.841 152.071Z" fill="white"/>
<path d="M234.365 181.437H231.621C231.621 172.561 224.401 165.34 215.525 165.34C206.649 165.34 199.429 172.561 199.429 181.437H196.685C196.685 171.048 205.136 162.596 215.525 162.596C225.913 162.596 234.365 171.048 234.365 181.437Z" fill="#263238"/>
<path d="M202.275 165.679C202.275 165.679 200.121 164.243 199.795 166.136C199.795 166.136 197.511 166.136 197.576 168.224C197.576 168.224 195.748 168.485 196.532 170.574C196.532 170.574 195.096 170.966 196.075 172.793C197.054 174.621 198.947 176.383 199.926 176.187C200.905 175.991 200.905 174.686 200.905 174.686C200.905 174.686 203.515 175.404 202.993 173.25C202.993 173.25 203.777 173.903 204.299 172.858C204.821 171.814 204.299 171.292 204.299 171.292C204.299 171.292 204.951 171.96 205.408 170.68C205.865 169.399 203.385 166.592 202.275 165.679Z" fill="#B97964"/>
<path d="M226.57 164.49C226.57 164.49 228.724 163.054 229.05 164.947C229.05 164.947 231.335 164.947 231.269 167.036C231.269 167.036 233.097 167.297 232.314 169.386C232.314 169.386 233.75 169.777 232.771 171.605C231.792 173.432 229.899 175.195 228.92 174.999C227.941 174.803 227.941 173.498 227.941 173.498C227.941 173.498 225.33 174.216 225.852 172.062C225.852 172.062 225.069 172.714 224.546 171.67C224.024 170.626 224.546 170.104 224.546 170.104C224.546 170.104 223.894 170.772 223.437 169.491C222.98 168.211 225.46 165.404 226.57 164.49Z" fill="#B97964"/>
<path d="M263.808 176.088L171.129 176.722L86.372 176.009L83.4971 182.647L171.129 182.816L266.682 182.647L263.808 176.088Z" fill="#263238"/>
<path d="M163.618 224.859L164.842 231.179C172.89 232.525 180.806 232.616 188.561 231.179L189.61 224.859C181.956 225.112 173.132 224.933 163.618 224.859Z" fill="#263238"/>
<path d="M182.12 129.492C181.987 128.557 181.859 127.553 181.722 126.834C181.612 126.259 181.106 125.847 180.52 125.847H163.865C163.279 125.847 162.773 126.259 162.663 126.834C162.526 127.553 162.399 128.557 162.265 129.492C162.074 130.83 163.106 132.029 164.458 132.029H179.927C181.279 132.029 182.312 130.83 182.12 129.492Z" fill="#263238"/>
<path d="M173.265 122.832H171.121V126.591H173.265V122.832Z" fill="#263238"/>
<path opacity="0.3" d="M96.7426 152.02C96.7291 152.051 164.689 122.831 164.689 122.831H183.485L91.6089 163.915L96.7426 152.02Z" fill="white"/>
<path opacity="0.3" d="M88.961 169.913L201.589 122.831H228.294L101.579 176.238L86.3306 176.008L88.961 169.913Z" fill="white"/>
<path d="M288.06 100.063C283.766 91.4777 273.325 87.9986 264.739 92.2926C256.506 96.4103 252.973 106.18 256.484 114.547L254.107 119.492L259.461 119.319C264.547 125.11 273.073 126.993 280.289 123.384C288.875 119.09 292.354 108.649 288.06 100.063Z" fill="url(#paint9_linear_8_813)"/>
<path opacity="0.6" d="M288.06 100.063C283.766 91.4777 273.325 87.9986 264.739 92.2926C256.506 96.4103 252.973 106.18 256.484 114.547L254.107 119.492L259.461 119.319C264.547 125.11 273.073 126.993 280.289 123.384C288.875 119.09 292.354 108.649 288.06 100.063Z" fill="white"/>
<path d="M252.687 105.679H252.68C252.538 105.675 252.426 105.558 252.429 105.416C252.565 99.7021 255.811 94.0978 260.699 91.1378C260.821 91.0651 260.979 91.1033 261.053 91.2245C261.126 91.3461 261.087 91.5042 260.966 91.5779C256.224 94.4492 253.075 99.8856 252.944 105.428C252.94 105.568 252.826 105.679 252.687 105.679Z" fill="url(#paint10_linear_8_813)"/>
<path d="M252.994 110.825C252.885 110.825 252.785 110.756 252.749 110.647C252.473 109.797 252.373 108.878 252.461 107.99C252.474 107.849 252.593 107.739 252.742 107.759C252.883 107.773 252.987 107.899 252.972 108.04C252.892 108.859 252.984 109.705 253.238 110.488C253.283 110.623 253.208 110.768 253.074 110.812C253.047 110.821 253.02 110.825 252.994 110.825Z" fill="url(#paint11_linear_8_813)"/>
<path d="M265.826 106.313C265.923 105.443 266.342 104.627 266.923 103.971C267.492 103.33 268.237 102.822 269.074 102.637C269.964 102.44 270.932 102.626 271.685 103.14C272.133 103.445 272.501 103.864 272.756 104.342C273.003 103.916 273.341 103.543 273.746 103.263C274.495 102.744 275.462 102.551 276.353 102.742C277.192 102.921 277.94 103.423 278.514 104.061C279.1 104.712 279.525 105.526 279.627 106.396C279.756 107.485 279.549 108.679 278.987 109.621C278.394 110.616 277.432 111.421 276.442 112.022C274.777 113.033 272.584 114.299 272.584 114.299C272.584 114.299 270.723 112.917 269.051 111.918C268.056 111.323 267.089 110.525 266.489 109.534C265.92 108.596 265.705 107.404 265.826 106.313Z" fill="url(#paint12_linear_8_813)"/>
<defs>
<linearGradient id="paint0_linear_8_813" x1="66.5226" y1="204.411" x2="66.5226" y2="290.946" gradientUnits="userSpaceOnUse">
<stop stop-color="#2241BC"/>
<stop offset="1" stop-color="#101E56"/>
</linearGradient>
<linearGradient id="paint1_linear_8_813" x1="283.258" y1="204.411" x2="283.258" y2="290.946" gradientUnits="userSpaceOnUse">
<stop stop-color="#2241BC"/>
<stop offset="1" stop-color="#101E56"/>
</linearGradient>
<linearGradient id="paint2_linear_8_813" x1="174.975" y1="116.677" x2="174.975" y2="295.577" gradientUnits="userSpaceOnUse">
<stop stop-color="#2241BC"/>
<stop offset="1" stop-color="#101E56"/>
</linearGradient>
<linearGradient id="paint3_linear_8_813" x1="68.2427" y1="165.241" x2="68.2427" y2="180.873" gradientUnits="userSpaceOnUse">
<stop stop-color="#2241BC"/>
<stop offset="1" stop-color="#101E56"/>
</linearGradient>
<linearGradient id="paint4_linear_8_813" x1="281.538" y1="165.241" x2="281.538" y2="180.873" gradientUnits="userSpaceOnUse">
<stop stop-color="#2241BC"/>
<stop offset="1" stop-color="#101E56"/>
</linearGradient>
<linearGradient id="paint5_linear_8_813" x1="194.693" y1="156.3" x2="194.693" y2="180.222" gradientUnits="userSpaceOnUse">
<stop stop-color="#2241BC"/>
<stop offset="1" stop-color="#101E56"/>
</linearGradient>
<linearGradient id="paint6_linear_8_813" x1="234.203" y1="156.3" x2="234.203" y2="180.222" gradientUnits="userSpaceOnUse">
<stop stop-color="#2241BC"/>
<stop offset="1" stop-color="#101E56"/>
</linearGradient>
<linearGradient id="paint7_linear_8_813" x1="215.701" y1="155.107" x2="215.701" y2="180.222" gradientUnits="userSpaceOnUse">
<stop stop-color="#2241BC"/>
<stop offset="1" stop-color="#101E56"/>
</linearGradient>
<linearGradient id="paint8_linear_8_813" x1="214.363" y1="151.535" x2="214.363" y2="161.845" gradientUnits="userSpaceOnUse">
<stop stop-color="#2241BC"/>
<stop offset="1" stop-color="#101E56"/>
</linearGradient>
<linearGradient id="paint9_linear_8_813" x1="272.003" y1="90.4529" x2="272.003" y2="125.223" gradientUnits="userSpaceOnUse">
<stop stop-color="#2241BC"/>
<stop offset="1" stop-color="#101E56"/>
</linearGradient>
<linearGradient id="paint10_linear_8_813" x1="256.76" y1="91.101" x2="256.76" y2="105.679" gradientUnits="userSpaceOnUse">
<stop stop-color="#2241BC"/>
<stop offset="1" stop-color="#101E56"/>
</linearGradient>
<linearGradient id="paint11_linear_8_813" x1="252.84" y1="107.757" x2="252.84" y2="110.825" gradientUnits="userSpaceOnUse">
<stop stop-color="#2241BC"/>
<stop offset="1" stop-color="#101E56"/>
</linearGradient>
<linearGradient id="paint12_linear_8_813" x1="272.729" y1="102.56" x2="272.729" y2="114.299" gradientUnits="userSpaceOnUse">
<stop stop-color="#2241BC"/>
<stop offset="1" stop-color="#101E56"/>
</linearGradient>
</defs>
</svg>
