<svg width="343" height="237" viewBox="0 0 343 237" fill="none" xmlns="http://www.w3.org/2000/svg">
<g clip-path="url(#clip0_8_448)">
<path d="M159.467 29.6123C158.971 29.2491 158.381 29.0365 157.767 29C157.153 28.9635 156.541 29.1047 156.005 29.4065C154.597 26.5711 150.687 25.318 147.892 26.8135C147.527 25.268 146.646 23.8931 145.394 22.9153C144.143 21.9376 142.596 21.4152 141.008 21.4344C139.42 21.4536 137.885 22.0131 136.658 23.0208C135.43 24.0285 134.583 25.4242 134.255 26.9781C134.209 27.4752 134.027 27.9501 133.729 28.3501C133.162 28.9263 132.215 28.7343 131.405 28.6702C130.126 28.6022 128.861 28.9635 127.81 29.6968C126.759 30.43 125.984 31.4933 125.606 32.7176L160.666 32.5896C160.981 31.4097 160.446 30.3486 159.467 29.6123Z" fill="#E6E6E6"/>
<path d="M194.01 48.3173C193.695 48.0868 193.32 47.9518 192.93 47.9283C192.54 47.9048 192.151 47.9938 191.81 48.1846C191.329 47.3021 190.527 46.639 189.569 46.3332C188.612 46.0274 187.573 46.1025 186.67 46.5428C186.438 45.5628 185.88 44.6909 185.087 44.0706C184.293 43.4504 183.313 43.1188 182.306 43.1305C181.299 43.1423 180.326 43.4966 179.547 44.1351C178.768 44.7736 178.23 45.6583 178.022 46.6434C177.994 46.9615 177.879 47.2656 177.688 47.5215C177.331 47.8874 176.728 47.7639 176.215 47.7273C175.408 47.6907 174.611 47.9225 173.949 48.3867C173.287 48.8508 172.797 49.5212 172.557 50.293L194.788 50.2106C194.87 49.8534 194.84 49.4793 194.7 49.1402C194.561 48.801 194.32 48.5135 194.01 48.3173Z" fill="#E6E6E6"/>
<path d="M249.384 24.3667C249.069 24.1352 248.694 23.9995 248.303 23.976C247.913 23.9525 247.524 24.0421 247.184 24.2341C246.703 23.3516 245.9 22.6885 244.943 22.3827C243.985 22.0769 242.947 22.1519 242.043 22.5923C241.812 21.6123 241.254 20.7403 240.46 20.1201C239.667 19.4998 238.686 19.1683 237.679 19.18C236.672 19.1917 235.699 19.546 234.921 20.1845C234.142 20.8231 233.604 21.7077 233.395 22.6929C233.368 23.0109 233.252 23.315 233.061 23.571C232.705 23.9368 232.101 23.8133 231.589 23.7722C230.781 23.7358 229.983 23.9683 229.321 24.4334C228.659 24.8984 228.17 25.5698 227.93 26.3424L250.161 26.2601C250.244 25.9028 250.213 25.5288 250.074 25.1896C249.935 24.8504 249.693 24.5629 249.384 24.3667Z" fill="#F5F5F5"/>
<path d="M77.6004 43.6067C77.1036 43.2425 76.5123 43.0294 75.8974 42.9929C75.2826 42.9564 74.6702 43.0981 74.1338 43.4009C72.7161 40.5655 68.815 39.3307 66.0253 40.8078C65.6577 39.2635 64.7756 37.8902 63.5239 36.9137C62.2723 35.9373 60.7257 35.4157 59.1383 35.4349C57.551 35.4541 56.0174 36.0128 54.7897 37.0192C53.562 38.0255 52.7133 39.4197 52.383 40.9725C52.3422 41.4699 52.1615 41.9455 51.8617 42.3445C51.2946 42.9207 50.3479 42.7286 49.5384 42.6646C48.2586 42.5971 46.9928 42.9586 45.9416 43.6917C44.8904 44.4248 44.1138 45.4877 43.7349 46.712L78.7986 46.584C79.1187 45.404 78.5791 44.3613 77.6004 43.6067Z" fill="#E6E6E6"/>
<path d="M106.559 58.8451C106.222 58.598 105.821 58.4532 105.404 58.4281C104.988 58.4029 104.572 58.4985 104.208 58.7033C103.694 57.7617 102.838 57.0537 101.816 56.7259C100.795 56.3982 99.6862 56.4757 98.7202 56.9426C98.4723 55.8933 97.8742 54.9598 97.0245 54.296C96.1748 53.6322 95.1243 53.2777 94.0462 53.291C92.968 53.3043 91.9266 53.6846 91.0936 54.3692C90.2606 55.0538 89.6857 56.0018 89.4638 57.0569C89.4304 57.3886 89.3071 57.7049 89.1071 57.9716C88.7229 58.3649 88.0781 58.2323 87.5293 58.1866C86.6619 58.1415 85.8043 58.3869 85.092 58.8838C84.3797 59.3808 83.8533 60.101 83.5962 60.9306L107.378 60.8437C107.462 60.4668 107.429 60.0729 107.283 59.7155C107.137 59.358 106.884 59.0541 106.559 58.8451Z" fill="#F5F5F5"/>
<path d="M83.1155 96.2366C82.7779 95.9913 82.377 95.848 81.9603 95.8236C81.5436 95.7993 81.1287 95.895 80.7648 96.0994C80.2508 95.1578 79.3944 94.4498 78.3728 94.122C77.3513 93.7943 76.2428 93.8718 75.2768 94.3387C75.0255 93.2927 74.4263 92.3631 73.5775 91.7023C72.7287 91.0414 71.6805 90.6884 70.6048 90.7011C69.5292 90.7139 68.4897 91.0916 67.6568 91.7725C66.8239 92.4533 66.2469 93.3968 66.0204 94.4485C65.9871 94.7802 65.8637 95.0965 65.6637 95.3631C65.2795 95.7564 64.6347 95.6238 64.0859 95.5827C63.2185 95.5376 62.3609 95.783 61.6486 96.2799C60.9363 96.7769 60.41 97.4971 60.1528 98.3267L83.9342 98.2398C84.0194 97.8622 83.9866 97.4676 83.8401 97.1094C83.6937 96.7511 83.4408 96.4464 83.1155 96.2366Z" fill="#F5F5F5"/>
<path d="M322.191 49.8219C321.854 49.5766 321.453 49.4332 321.036 49.4089C320.619 49.3846 320.204 49.4803 319.841 49.6847C319.327 48.743 318.47 48.035 317.449 47.7073C316.427 47.3795 315.318 47.4571 314.353 47.924C314.101 46.878 313.502 45.9484 312.653 45.2875C311.804 44.6266 310.756 44.2737 309.681 44.2864C308.605 44.2992 307.565 44.6769 306.732 45.3577C305.9 46.0385 305.323 46.9821 305.096 48.0337C305.063 48.3654 304.939 48.6817 304.739 48.9484C304.355 49.3417 303.71 49.2137 303.162 49.1679C302.294 49.1229 301.437 49.3682 300.724 49.8652C300.012 50.3621 299.486 51.0823 299.229 51.9119L323.01 51.825C323.094 51.4475 323.061 51.0531 322.915 50.695C322.769 50.3369 322.516 50.0322 322.191 49.8219Z" fill="#F5F5F5"/>
<path d="M305.082 97.2016L304.698 76.0774H292.858V80.8931H284.141V28.1351H267.38V48.9026H262.354V38.5303H249.274V89.1022H230.834V71.2342H219.273V32.4981H205.004V58.3237H191.59V113.958H181.2V86.8659H170.471V69.4323H159.074V56.0508L146.356 62.7553V98.569H132.947V91.1785H115.028V143.081L323.559 143.182V97.2016H305.082Z" fill="#EBEBEB"/>
<path d="M171.345 143.109V65.8879H157.099V143.177C161.608 143.072 171.345 143.109 171.345 143.109Z" fill="#E6E6E6"/>
<path d="M158.37 143.182V100.714H129.045V143.09L158.37 143.182Z" fill="#FAFAFA"/>
<path d="M193.996 143.145V80.7742H177.386V143.113L193.996 143.145Z" fill="#E0E0E0"/>
<path d="M180.66 83.2163H178.648V87.3689H180.66V83.2163Z" fill="#FAFAFA"/>
<path d="M184.685 83.2163H182.672V87.3689H184.685V83.2163Z" fill="#FAFAFA"/>
<path d="M188.714 83.2163H186.702V87.3689H188.714V83.2163Z" fill="#FAFAFA"/>
<path d="M192.738 83.2163H190.726V87.3689H192.738V83.2163Z" fill="#FAFAFA"/>
<path d="M180.66 90.1862H178.648V94.3387H180.66V90.1862Z" fill="#FAFAFA"/>
<path d="M184.685 90.1862H182.672V94.3387H184.685V90.1862Z" fill="#FAFAFA"/>
<path d="M188.714 90.1862H186.702V94.3387H188.714V90.1862Z" fill="#FAFAFA"/>
<path d="M192.738 90.1862H190.726V94.3387H192.738V90.1862Z" fill="#FAFAFA"/>
<path d="M180.66 97.1467H178.648V101.299H180.66V97.1467Z" fill="#FAFAFA"/>
<path d="M184.685 97.1467H182.672V101.299H184.685V97.1467Z" fill="#FAFAFA"/>
<path d="M188.714 97.1467H186.702V101.299H188.714V97.1467Z" fill="#FAFAFA"/>
<path d="M192.738 97.1467H190.726V101.299H192.738V97.1467Z" fill="#FAFAFA"/>
<path d="M180.66 104.112H178.648V108.265H180.66V104.112Z" fill="#FAFAFA"/>
<path d="M184.685 104.112H182.672V108.265H184.685V104.112Z" fill="#FAFAFA"/>
<path d="M188.714 104.112H186.702V108.265H188.714V104.112Z" fill="#FAFAFA"/>
<path d="M192.738 104.112H190.726V108.265H192.738V104.112Z" fill="#FAFAFA"/>
<path d="M180.66 111.073H178.648V115.225H180.66V111.073Z" fill="#FAFAFA"/>
<path d="M184.685 111.073H182.672V115.225H184.685V111.073Z" fill="#FAFAFA"/>
<path d="M188.714 111.073H186.702V115.225H188.714V111.073Z" fill="#FAFAFA"/>
<path d="M192.738 111.073H190.726V115.225H192.738V111.073Z" fill="#FAFAFA"/>
<path d="M180.66 118.033H178.648V122.186H180.66V118.033Z" fill="#FAFAFA"/>
<path d="M184.685 118.033H182.672V122.186H184.685V118.033Z" fill="#FAFAFA"/>
<path d="M188.714 118.033H186.702V122.186H188.714V118.033Z" fill="#FAFAFA"/>
<path d="M192.738 118.033H190.726V122.186H192.738V118.033Z" fill="#FAFAFA"/>
<path d="M180.66 124.998H178.648V129.151H180.66V124.998Z" fill="#FAFAFA"/>
<path d="M184.685 124.998H182.672V129.151H184.685V124.998Z" fill="#FAFAFA"/>
<path d="M188.714 124.998H186.702V129.151H188.714V124.998Z" fill="#FAFAFA"/>
<path d="M192.738 124.998H190.726V129.151H192.738V124.998Z" fill="#FAFAFA"/>
<path d="M180.66 131.964H178.648V136.116H180.66V131.964Z" fill="#FAFAFA"/>
<path d="M184.685 131.964H182.672V136.116H184.685V131.964Z" fill="#FAFAFA"/>
<path d="M188.714 131.964H186.702V136.116H188.714V131.964Z" fill="#FAFAFA"/>
<path d="M192.738 131.964H190.726V136.116H192.738V131.964Z" fill="#FAFAFA"/>
<path d="M251.721 143.145V71.8928H217.279V143.173C217.279 143.173 251.46 143.182 251.721 143.145Z" fill="#F5F5F5"/>
<path d="M224.043 74.7328H219.867V79.5165H224.043V74.7328Z" fill="#E6E6E6"/>
<path d="M232.398 74.7328H228.223V79.5165H232.398V74.7328Z" fill="#E6E6E6"/>
<path d="M240.749 74.7328H236.574V79.5165H240.749V74.7328Z" fill="#E6E6E6"/>
<path d="M249.105 74.7328H244.929V79.5165H249.105V74.7328Z" fill="#E6E6E6"/>
<path d="M224.043 82.759H219.867V87.5427H224.043V82.759Z" fill="#E6E6E6"/>
<path d="M232.398 82.759H228.223V87.5427H232.398V82.759Z" fill="#E6E6E6"/>
<path d="M240.749 82.759H236.574V87.5427H240.749V82.759Z" fill="#E6E6E6"/>
<path d="M249.105 82.759H244.929V87.5427H249.105V82.759Z" fill="#E6E6E6"/>
<path d="M224.043 90.7853H219.867V95.569H224.043V90.7853Z" fill="#E6E6E6"/>
<path d="M232.398 90.7853H228.223V95.569H232.398V90.7853Z" fill="#E6E6E6"/>
<path d="M240.749 90.7853H236.574V95.569H240.749V90.7853Z" fill="#E6E6E6"/>
<path d="M249.105 90.7853H244.929V95.569H249.105V90.7853Z" fill="#E6E6E6"/>
<path d="M224.043 98.8069H219.867V103.591H224.043V98.8069Z" fill="#E6E6E6"/>
<path d="M232.398 98.8069H228.223V103.591H232.398V98.8069Z" fill="#E6E6E6"/>
<path d="M240.749 98.8069H236.574V103.591H240.749V98.8069Z" fill="#E6E6E6"/>
<path d="M249.105 98.8069H244.929V103.591H249.105V98.8069Z" fill="#E6E6E6"/>
<path d="M224.043 106.833H219.867V111.617H224.043V106.833Z" fill="#E6E6E6"/>
<path d="M232.398 106.833H228.223V111.617H232.398V106.833Z" fill="#E6E6E6"/>
<path d="M240.749 106.833H236.574V111.617H240.749V106.833Z" fill="#E6E6E6"/>
<path d="M249.105 106.833H244.929V111.617H249.105V106.833Z" fill="#E6E6E6"/>
<path d="M224.043 114.855H219.867V119.638H224.043V114.855Z" fill="#E6E6E6"/>
<path d="M232.398 114.855H228.223V119.638H232.398V114.855Z" fill="#E6E6E6"/>
<path d="M240.749 114.855H236.574V119.638H240.749V114.855Z" fill="#E6E6E6"/>
<path d="M249.105 114.855H244.929V119.638H249.105V114.855Z" fill="#E6E6E6"/>
<path d="M224.043 122.885H219.867V127.669H224.043V122.885Z" fill="#E6E6E6"/>
<path d="M232.398 122.885H228.223V127.669H232.398V122.885Z" fill="#E6E6E6"/>
<path d="M240.749 122.885H236.574V127.669H240.749V122.885Z" fill="#E6E6E6"/>
<path d="M249.105 122.885H244.929V127.669H249.105V122.885Z" fill="#E6E6E6"/>
<path d="M224.043 130.907H219.867V135.691H224.043V130.907Z" fill="#E6E6E6"/>
<path d="M232.398 130.907H228.223V135.691H232.398V130.907Z" fill="#E6E6E6"/>
<path d="M240.749 130.907H236.574V135.691H240.749V130.907Z" fill="#E6E6E6"/>
<path d="M249.105 130.907H244.929V135.691H249.105V130.907Z" fill="#E6E6E6"/>
<path d="M163.57 71.1382H159.724V75.5469H163.57V71.1382Z" fill="#FAFAFA"/>
<path d="M163.57 78.5287H159.724V82.9374H163.57V78.5287Z" fill="#FAFAFA"/>
<path d="M163.57 85.9283H159.724V90.337H163.57V85.9283Z" fill="#FAFAFA"/>
<path d="M163.57 93.3188H159.724V97.7275H163.57V93.3188Z" fill="#FAFAFA"/>
<path d="M163.57 100.714H159.724V105.123H163.57V100.714Z" fill="#FAFAFA"/>
<path d="M163.57 108.109H159.724V112.518H163.57V108.109Z" fill="#FAFAFA"/>
<path d="M163.57 115.504H159.724V119.913H163.57V115.504Z" fill="#FAFAFA"/>
<path d="M163.57 122.899H159.724V127.308H163.57V122.899Z" fill="#FAFAFA"/>
<path d="M168.715 71.1382H164.869V75.5469H168.715V71.1382Z" fill="#FAFAFA"/>
<path d="M168.715 78.5287H164.869V82.9374H168.715V78.5287Z" fill="#FAFAFA"/>
<path d="M168.715 85.9283H164.869V90.337H168.715V85.9283Z" fill="#FAFAFA"/>
<path d="M168.715 93.3188H164.869V97.7275H168.715V93.3188Z" fill="#FAFAFA"/>
<path d="M168.715 100.714H164.869V105.123H168.715V100.714Z" fill="#FAFAFA"/>
<path d="M168.715 108.109H164.869V112.518H168.715V108.109Z" fill="#FAFAFA"/>
<path d="M168.715 115.504H164.869V119.913H168.715V115.504Z" fill="#FAFAFA"/>
<path d="M168.715 122.899H164.869V127.308H168.715V122.899Z" fill="#FAFAFA"/>
<path d="M212.445 37.6202H208.27V42.4039H212.445V37.6202Z" fill="#FAFAFA"/>
<path d="M212.445 45.6418H208.27V50.4256H212.445V45.6418Z" fill="#FAFAFA"/>
<path d="M212.445 53.1193H208.27V57.903H212.445V53.1193Z" fill="#FAFAFA"/>
<path d="M212.445 61.1409H208.27V65.9246H212.445V61.1409Z" fill="#FAFAFA"/>
<path d="M212.445 69.1625H208.27V73.9462H212.445V69.1625Z" fill="#FAFAFA"/>
<path d="M212.445 77.1932H208.27V81.9769H212.445V77.1932Z" fill="#FAFAFA"/>
<path d="M212.445 85.2148H208.27V89.9985H212.445V85.2148Z" fill="#FAFAFA"/>
<path d="M212.445 93.2411H208.27V98.0248H212.445V93.2411Z" fill="#FAFAFA"/>
<path d="M275.164 30.6642H270.988V35.4479H275.164V30.6642Z" fill="#FAFAFA"/>
<path d="M275.164 38.6858H270.988V43.4695H275.164V38.6858Z" fill="#FAFAFA"/>
<path d="M275.164 46.712H270.988V51.4957H275.164V46.712Z" fill="#FAFAFA"/>
<path d="M275.164 54.7336H270.988V59.5173H275.164V54.7336Z" fill="#FAFAFA"/>
<path d="M275.164 62.7644H270.988V67.5481H275.164V62.7644Z" fill="#FAFAFA"/>
<path d="M275.164 70.786H270.988V75.5697H275.164V70.786Z" fill="#FAFAFA"/>
<path d="M275.164 78.8123H270.988V83.596H275.164V78.8123Z" fill="#FAFAFA"/>
<path d="M275.164 86.8339H270.988V91.6176H275.164V86.8339Z" fill="#FAFAFA"/>
<path d="M305.082 67.5253H279.934V143.182H305.082V67.5253Z" fill="#E6E6E6"/>
<path d="M291.024 71.2571H283.652V76.0408H291.024V71.2571Z" fill="#FAFAFA"/>
<path d="M291.024 79.2833H283.652V84.067H291.024V79.2833Z" fill="#FAFAFA"/>
<path d="M291.024 87.3049H283.652V92.0886H291.024V87.3049Z" fill="#FAFAFA"/>
<path d="M291.024 95.3357H283.652V100.119H291.024V95.3357Z" fill="#FAFAFA"/>
<path d="M291.024 103.357H283.652V108.141H291.024V103.357Z" fill="#FAFAFA"/>
<path d="M291.024 111.379H283.652V116.163H291.024V111.379Z" fill="#FAFAFA"/>
<path d="M291.024 119.405H283.652V124.189H291.024V119.405Z" fill="#FAFAFA"/>
<path d="M291.024 127.431H283.652V132.215H291.024V127.431Z" fill="#FAFAFA"/>
<path d="M300.889 71.2571H293.517V76.0408H300.889V71.2571Z" fill="#FAFAFA"/>
<path d="M300.889 79.2833H293.517V84.067H300.889V79.2833Z" fill="#FAFAFA"/>
<path d="M300.889 87.3049H293.517V92.0886H300.889V87.3049Z" fill="#FAFAFA"/>
<path d="M300.889 95.3357H293.517V100.119H300.889V95.3357Z" fill="#FAFAFA"/>
<path d="M300.889 103.357H293.517V108.141H300.889V103.357Z" fill="#FAFAFA"/>
<path d="M300.889 111.379H293.517V116.163H300.889V111.379Z" fill="#FAFAFA"/>
<path d="M300.889 119.405H293.517V124.189H300.889V119.405Z" fill="#FAFAFA"/>
<path d="M300.889 127.431H293.517V132.215H300.889V127.431Z" fill="#FAFAFA"/>
<path d="M266.218 143.145V90.7853H255.242V143.145H266.218Z" fill="#E0E0E0"/>
<path d="M257.414 92.9027H256.083V96.4699H257.414V92.9027Z" fill="#FAFAFA"/>
<path d="M260.076 92.9027H258.745V96.4699H260.076V92.9027Z" fill="#FAFAFA"/>
<path d="M262.729 92.9027H261.398V96.4699H262.729V92.9027Z" fill="#FAFAFA"/>
<path d="M265.39 92.9027H264.06V96.4699H265.39V92.9027Z" fill="#FAFAFA"/>
<path d="M257.414 98.8846H256.083V102.452H257.414V98.8846Z" fill="#FAFAFA"/>
<path d="M260.076 98.8846H258.745V102.452H260.076V98.8846Z" fill="#FAFAFA"/>
<path d="M262.729 98.8846H261.398V102.452H262.729V98.8846Z" fill="#FAFAFA"/>
<path d="M265.39 98.8846H264.06V102.452H265.39V98.8846Z" fill="#FAFAFA"/>
<path d="M257.414 104.866H256.083V108.434H257.414V104.866Z" fill="#FAFAFA"/>
<path d="M260.076 104.866H258.745V108.434H260.076V104.866Z" fill="#FAFAFA"/>
<path d="M262.729 104.866H261.398V108.434H262.729V104.866Z" fill="#FAFAFA"/>
<path d="M265.39 104.866H264.06V108.434H265.39V104.866Z" fill="#FAFAFA"/>
<path d="M257.414 110.848H256.083V114.416H257.414V110.848Z" fill="#FAFAFA"/>
<path d="M260.076 110.848H258.745V114.416H260.076V110.848Z" fill="#FAFAFA"/>
<path d="M262.729 110.848H261.398V114.416H262.729V110.848Z" fill="#FAFAFA"/>
<path d="M265.39 110.848H264.06V114.416H265.39V110.848Z" fill="#FAFAFA"/>
<path d="M257.414 116.839H256.083V120.407H257.414V116.839Z" fill="#FAFAFA"/>
<path d="M260.076 116.839H258.745V120.407H260.076V116.839Z" fill="#FAFAFA"/>
<path d="M262.729 116.839H261.398V120.407H262.729V116.839Z" fill="#FAFAFA"/>
<path d="M265.39 116.839H264.06V120.407H265.39V116.839Z" fill="#FAFAFA"/>
<path d="M257.414 122.821H256.083V126.389H257.414V122.821Z" fill="#FAFAFA"/>
<path d="M260.076 122.821H258.745V126.389H260.076V122.821Z" fill="#FAFAFA"/>
<path d="M262.729 122.821H261.398V126.389H262.729V122.821Z" fill="#FAFAFA"/>
<path d="M265.39 122.821H264.06V126.389H265.39V122.821Z" fill="#FAFAFA"/>
<path d="M257.414 128.803H256.083V132.371H257.414V128.803Z" fill="#FAFAFA"/>
<path d="M260.076 128.803H258.745V132.371H260.076V128.803Z" fill="#FAFAFA"/>
<path d="M262.729 128.803H261.398V132.371H262.729V128.803Z" fill="#FAFAFA"/>
<path d="M265.39 128.803H264.06V132.371H265.39V128.803Z" fill="#FAFAFA"/>
<path d="M257.414 134.785H256.083V138.352H257.414V134.785Z" fill="#FAFAFA"/>
<path d="M260.076 134.785H258.745V138.352H260.076V134.785Z" fill="#FAFAFA"/>
<path d="M262.729 134.785H261.398V138.352H262.729V134.785Z" fill="#FAFAFA"/>
<path d="M265.39 134.785H264.06V138.352H265.39V134.785Z" fill="#FAFAFA"/>
<path d="M134.817 102.488H131.264V105.484H134.817V102.488Z" fill="#E6E6E6"/>
<path d="M141.928 102.488H138.375V105.484H141.928V102.488Z" fill="#E6E6E6"/>
<path d="M149.035 102.488H145.482V105.484H149.035V102.488Z" fill="#E6E6E6"/>
<path d="M156.147 102.488H152.594V105.484H156.147V102.488Z" fill="#E6E6E6"/>
<path d="M134.817 107.505H131.264V110.501H134.817V107.505Z" fill="#E6E6E6"/>
<path d="M141.928 107.505H138.375V110.501H141.928V107.505Z" fill="#E6E6E6"/>
<path d="M149.035 107.505H145.482V110.501H149.035V107.505Z" fill="#E6E6E6"/>
<path d="M156.147 107.505H152.594V110.501H156.147V107.505Z" fill="#E6E6E6"/>
<path d="M134.817 112.522H131.264V115.518H134.817V112.522Z" fill="#E6E6E6"/>
<path d="M141.928 112.522H138.375V115.518H141.928V112.522Z" fill="#E6E6E6"/>
<path d="M149.035 112.522H145.482V115.518H149.035V112.522Z" fill="#E6E6E6"/>
<path d="M156.147 112.522H152.594V115.518H156.147V112.522Z" fill="#E6E6E6"/>
<path d="M134.817 117.544H131.264V120.539H134.817V117.544Z" fill="#E6E6E6"/>
<path d="M141.928 117.544H138.375V120.539H141.928V117.544Z" fill="#E6E6E6"/>
<path d="M149.035 117.544H145.482V120.539H149.035V117.544Z" fill="#E6E6E6"/>
<path d="M156.147 117.544H152.594V120.539H156.147V117.544Z" fill="#E6E6E6"/>
<path d="M134.817 122.556H131.264V125.552H134.817V122.556Z" fill="#E6E6E6"/>
<path d="M141.928 122.556H138.375V125.552H141.928V122.556Z" fill="#E6E6E6"/>
<path d="M149.035 122.556H145.482V125.552H149.035V122.556Z" fill="#E6E6E6"/>
<path d="M156.147 122.556H152.594V125.552H156.147V122.556Z" fill="#E6E6E6"/>
<path d="M134.817 127.573H131.264V130.569H134.817V127.573Z" fill="#E6E6E6"/>
<path d="M141.928 127.573H138.375V130.569H141.928V127.573Z" fill="#E6E6E6"/>
<path d="M149.035 127.573H145.482V130.569H149.035V127.573Z" fill="#E6E6E6"/>
<path d="M156.147 127.573H152.594V130.569H156.147V127.573Z" fill="#E6E6E6"/>
<path d="M134.817 132.59H131.264V135.586H134.817V132.59Z" fill="#E6E6E6"/>
<path d="M141.928 132.59H138.375V135.586H141.928V132.59Z" fill="#E6E6E6"/>
<path d="M149.035 132.59H145.482V135.586H149.035V132.59Z" fill="#E6E6E6"/>
<path d="M156.147 132.59H152.594V135.586H156.147V132.59Z" fill="#E6E6E6"/>
<path d="M308.119 154.428H225.465C224.755 154.427 224.074 154.144 223.571 153.641C223.069 153.139 222.786 152.458 222.785 151.748V31.3456C222.785 30.9937 222.854 30.6452 222.989 30.32C223.124 29.9949 223.321 29.6995 223.57 29.4506C223.819 29.2017 224.114 29.0043 224.44 28.8697C224.765 28.735 225.113 28.6657 225.465 28.6657H308.119C308.471 28.6651 308.82 28.7339 309.146 28.8683C309.472 29.0028 309.768 29.2001 310.017 29.449C310.266 29.6979 310.464 29.9935 310.599 30.319C310.734 30.6444 310.804 30.9933 310.804 31.3456V151.748C310.802 152.459 310.519 153.141 310.016 153.643C309.512 154.146 308.83 154.428 308.119 154.428ZM225.465 28.78C224.785 28.78 224.132 29.0503 223.651 29.5314C223.17 30.0126 222.899 30.6652 222.899 31.3456V151.748C222.899 152.428 223.17 153.081 223.651 153.562C224.132 154.043 224.785 154.313 225.465 154.313H308.119C308.8 154.313 309.453 154.043 309.935 153.562C310.417 153.081 310.688 152.429 310.689 151.748V31.3456C310.688 30.6648 310.417 30.0122 309.935 29.5312C309.453 29.0501 308.8 28.78 308.119 28.78H225.465Z" fill="#E0E0E0"/>
<path d="M212.802 154.428H130.139C129.429 154.427 128.748 154.144 128.245 153.641C127.743 153.139 127.46 152.458 127.459 151.748V31.3456C127.459 30.6349 127.741 29.9532 128.244 29.4506C128.747 28.948 129.428 28.6656 130.139 28.6656H212.802C213.513 28.6656 214.194 28.948 214.697 29.4506C215.2 29.9532 215.482 30.6349 215.482 31.3456V151.748C215.481 152.458 215.198 153.139 214.696 153.641C214.193 154.144 213.512 154.427 212.802 154.428ZM130.139 28.78C129.462 28.786 128.816 29.059 128.34 29.5395C127.863 30.02 127.596 30.6691 127.596 31.3456V151.748C127.596 152.428 127.866 153.081 128.348 153.562C128.829 154.043 129.481 154.313 130.162 154.313H212.802C213.482 154.313 214.135 154.043 214.616 153.562C215.097 153.081 215.368 152.428 215.368 151.748V31.3456C215.368 30.6652 215.097 30.0126 214.616 29.5314C214.135 29.0503 213.482 28.78 212.802 28.78H130.139Z" fill="#E0E0E0"/>
<path d="M117.535 154.428H34.8808C34.1696 154.428 33.4875 154.146 32.9842 153.643C32.4809 153.141 32.1975 152.459 32.1963 151.748V31.3456C32.1963 30.9933 32.2658 30.6444 32.4007 30.319C32.5357 29.9935 32.7335 29.6979 32.9829 29.449C33.2322 29.2001 33.5282 29.0028 33.8539 28.8683C34.1795 28.7339 34.5285 28.6651 34.8808 28.6657H117.535C118.245 28.6657 118.927 28.948 119.43 29.4506C119.932 29.9532 120.215 30.6349 120.215 31.3456V151.748C120.213 152.458 119.931 153.139 119.428 153.641C118.926 154.144 118.245 154.427 117.535 154.428ZM34.8808 28.78C34.2 28.78 33.5469 29.0501 33.065 29.5312C32.5832 30.0122 32.3118 30.6648 32.3106 31.3456V151.748C32.3118 152.429 32.5832 153.081 33.065 153.562C33.5469 154.043 34.2 154.313 34.8808 154.313H117.535C118.215 154.313 118.868 154.043 119.349 153.562C119.83 153.081 120.1 152.428 120.1 151.748V31.3456C120.1 30.6652 119.83 30.0126 119.349 29.5314C118.868 29.0503 118.215 28.78 117.535 28.78H34.8808Z" fill="#E0E0E0"/>
<path d="M343 182.357H0V182.412H343V182.357Z" fill="#E0E0E0"/>
<path d="M324.414 195.794H298.927V195.986H324.414V195.794Z" fill="#EBEBEB"/>
<path d="M233.089 197.879H226.398V198.071H233.089V197.879Z" fill="#EBEBEB"/>
<path d="M51.8204 189.94H18.5859V190.132H51.8204V189.94Z" fill="#EBEBEB"/>
<path d="M63.551 189.94H58.6758V190.132H63.551V189.94Z" fill="#EBEBEB"/>
<path d="M151.469 193.187H79.3887V193.379H151.469V193.187Z" fill="#EBEBEB"/>
<path d="M328 217.5C328 228.274 271.363 237 201.497 237C131.632 237 75 228.274 75 217.5C75 206.726 131.632 198 201.497 198C271.363 198 328 206.726 328 217.5Z" fill="#F5F5F5"/>
<path d="M116.25 98.3448H113.167V184.452H116.25V98.3448Z" fill="#263238"/>
<path d="M129.448 68.8972H101.103C100.408 68.8972 99.8452 69.4603 99.8452 70.1549V98.5004C99.8452 99.195 100.408 99.7581 101.103 99.7581H129.448C130.143 99.7581 130.706 99.195 130.706 98.5004V70.1549C130.706 69.4603 130.143 68.8972 129.448 68.8972Z" fill="url(#paint0_linear_8_448)"/>
<path d="M119.822 75.9172C120.9 76.3681 121.819 77.131 122.46 78.1079C123.062 79.135 123.379 80.304 123.379 81.4944C123.379 82.6849 123.062 83.8538 122.46 84.881C121.821 85.863 120.902 86.6308 119.822 87.0853C118.542 87.6193 117.165 87.8794 115.779 87.8491H111.75V93.0032H108.434V75.1672H115.779C117.164 75.1302 118.542 75.3858 119.822 75.9172ZM118.907 84.1492C119.261 83.8099 119.543 83.4024 119.735 82.9512C119.928 82.5001 120.027 82.0146 120.027 81.5241C120.027 81.0336 119.928 80.5482 119.735 80.0971C119.543 79.6459 119.261 79.2384 118.907 78.8991C118.157 78.2893 117.061 77.9844 115.619 77.9844H111.741V85.0639H115.619C117.055 85.0639 118.151 84.759 118.907 84.1492Z" fill="white"/>
<path d="M116.25 98.3448H113.167V184.452H116.25V98.3448Z" fill="white"/>
<path d="M129.448 68.8972H101.103C100.408 68.8972 99.8452 69.4603 99.8452 70.1549V98.5004C99.8452 99.195 100.408 99.7581 101.103 99.7581H129.448C130.143 99.7581 130.706 99.195 130.706 98.5004V70.1549C130.706 69.4603 130.143 68.8972 129.448 68.8972Z" fill="white"/>
<path d="M71.6777 79.425C72.839 78.1325 73.6247 76.5471 73.9498 74.8402C74.2748 73.1333 74.1268 71.3701 73.5218 69.7412C72.9169 68.1124 71.8779 66.6801 70.5174 65.5992C69.157 64.5184 67.5268 63.8302 65.8034 63.6092C64.0799 63.3882 62.3289 63.6428 60.7397 64.3454C59.1505 65.048 57.7838 66.1718 56.7874 67.5953C55.791 69.0188 55.2029 70.6876 55.0867 72.4213C54.9706 74.155 55.3308 75.8874 56.1284 77.431L55.104 80.1019L58.127 80.0607L58.2367 80.1705C60.1193 81.851 62.5916 82.7163 65.1113 82.5765C67.6311 82.4368 69.9925 81.3034 71.6777 79.425Z" fill="url(#paint1_linear_8_448)"/>
<path d="M75.0389 71.033C75.0105 71.0343 74.9828 71.0245 74.9614 71.0057C74.9401 70.987 74.9269 70.9607 74.9246 70.9324C74.7444 69.4067 74.1912 67.9489 73.3137 66.6878C72.4363 65.4268 71.2618 64.4012 69.8939 63.7019C69.8672 63.6873 69.8472 63.6631 69.8378 63.6342C69.8284 63.6053 69.8305 63.5739 69.8436 63.5464C69.8573 63.5201 69.8807 63.5001 69.9089 63.4907C69.937 63.4813 69.9678 63.4833 69.9945 63.4961C71.3921 64.2169 72.5912 65.2699 73.4867 66.5625C74.3822 67.8551 74.9466 69.3478 75.1304 70.9095C75.133 70.9244 75.1324 70.9397 75.1286 70.9543C75.1248 70.9689 75.1179 70.9826 75.1083 70.9943C75.0988 71.006 75.0868 71.0155 75.0733 71.0222C75.0597 71.0289 75.0449 71.0326 75.0298 71.033H75.0389Z" fill="url(#paint2_linear_8_448)"/>
<path d="M75.0988 73.8593H75.0713C75.0412 73.8517 75.0152 73.8326 74.999 73.8061C74.9827 73.7796 74.9775 73.7478 74.9844 73.7175C75.0922 73.2677 75.1046 72.8004 75.021 72.3455C75.0184 72.3305 75.0188 72.3151 75.0223 72.3002C75.0257 72.2853 75.0321 72.2713 75.0411 72.2589C75.05 72.2466 75.0614 72.2361 75.0744 72.2282C75.0875 72.2203 75.102 72.2151 75.1171 72.2129C75.1468 72.2075 75.1774 72.2141 75.2022 72.2313C75.2271 72.2484 75.2441 72.2747 75.2497 72.3043C75.3367 72.7867 75.3227 73.2819 75.2085 73.7587C75.2044 73.7854 75.1913 73.81 75.1713 73.8283C75.1514 73.8466 75.1258 73.8575 75.0988 73.8593Z" fill="url(#paint3_linear_8_448)"/>
<path d="M64.3924 77.1292L60.0249 73.8776L61.1591 72.3501L64.086 74.5316L68.1106 69.7341L69.5649 70.9552L64.3924 77.1292Z" fill="white"/>
<path d="M318.226 178.108L77.7329 183.743V142.61H320.536L318.226 178.108Z" fill="#263238"/>
<path d="M68.481 153.166V174.025C68.4809 176.202 69.1785 178.323 70.4715 180.075C71.7645 181.827 73.5848 183.119 75.6657 183.761L77.3624 184.278C78.4095 184.606 79.5033 184.76 80.6003 184.735L91.8278 184.475C90.6323 180.294 90.4105 175.896 91.1795 171.617C91.9485 167.338 93.6878 163.292 96.264 159.789C98.8401 156.287 102.185 153.422 106.041 151.413C109.897 149.404 114.161 148.306 118.508 148.203C122.854 148.099 127.167 148.993 131.114 150.815C135.061 152.638 138.539 155.341 141.279 158.716C144.019 162.092 145.949 166.05 146.921 170.288C147.893 174.526 147.881 178.93 146.886 183.162L261.174 180.445C260.99 179.11 260.9 177.764 260.904 176.416C260.875 172.651 261.595 168.918 263.019 165.432C264.444 161.947 266.547 158.779 269.205 156.113C271.863 153.446 275.024 151.333 278.505 149.897C281.986 148.461 285.717 147.73 289.482 147.746C293.247 147.762 296.972 148.526 300.44 149.992C303.908 151.458 307.051 153.598 309.685 156.288C312.32 158.978 314.395 162.164 315.79 165.661C317.185 169.159 317.871 172.899 317.81 176.663C317.81 177.217 317.769 177.766 317.769 178.31C317.915 178.25 318.075 178.191 318.226 178.118L322.132 176.371C324.019 175.518 325.621 174.139 326.744 172.399C327.868 170.659 328.466 168.632 328.466 166.561V124.075C328.466 122.114 327.931 120.191 326.918 118.513C325.905 116.835 324.452 115.466 322.717 114.553L293.343 99.1042C293.079 98.9635 292.862 98.7496 292.717 98.4883C292.572 98.2269 292.506 97.9293 292.526 97.6312C292.546 97.3331 292.652 97.0472 292.831 96.8079C293.01 96.5686 293.254 96.3861 293.535 96.2824L297.129 94.9928C297.309 94.9321 297.463 94.8123 297.565 94.6529C297.668 94.4935 297.714 94.304 297.694 94.1153C297.675 93.9267 297.593 93.7502 297.46 93.6146C297.328 93.4791 297.153 93.3926 296.965 93.3692C283.007 91.421 228.721 84.3232 200.184 87.8126C167.256 91.8417 135.7 120.407 135.7 120.407C111.461 119.492 88.8643 127.934 79.1322 132.165C77.5778 132.843 76.1824 133.838 75.0356 135.087C73.8888 136.336 73.0161 137.812 72.4735 139.418L69.1395 149.287C68.7142 150.537 68.4918 151.846 68.481 153.166Z" fill="url(#paint4_linear_8_448)"/>
<path d="M261.206 180.436C261.037 179.183 260.954 177.919 260.959 176.654C260.959 176.009 260.959 175.374 261.018 174.738L240.351 166.282C239.141 165.791 237.836 165.579 236.532 165.66L164.64 170.38C163.465 170.448 162.317 170.76 161.269 171.294L147.613 178.319C147.517 179.942 147.284 181.555 146.918 183.139L261.206 180.436Z" fill="#263238"/>
<path d="M328.475 166.552V165.468L316.786 169.044C317.469 171.523 317.813 174.083 317.81 176.654C317.81 177.208 317.769 177.756 317.769 178.301C317.915 178.241 318.075 178.182 318.226 178.108L322.141 176.361C324.029 175.509 325.63 174.13 326.754 172.39C327.877 170.65 328.475 168.623 328.475 166.552Z" fill="#263238"/>
<path d="M71.8013 181.516C72.9176 182.546 74.2506 183.313 75.7023 183.761L77.399 184.278C78.4462 184.606 79.5399 184.76 80.637 184.735L91.8691 184.475C91.463 183.055 91.1694 181.605 90.991 180.139L71.8013 181.516Z" fill="#263238"/>
<path d="M289.432 145.528C285.019 145.524 280.655 146.459 276.63 148.271C272.606 150.083 269.013 152.732 266.092 156.04C263.17 159.348 260.986 163.24 259.684 167.458C258.383 171.675 257.994 176.121 258.544 180.5L261.242 180.436C260.701 176.564 260.963 172.622 262.013 168.856C263.063 165.09 264.878 161.581 267.344 158.547C269.811 155.513 272.876 153.02 276.348 151.224C279.821 149.427 283.626 148.366 287.528 148.105C291.429 147.845 295.341 148.391 299.022 149.71C302.703 151.029 306.072 153.092 308.92 155.771C311.768 158.449 314.033 161.686 315.574 165.279C317.116 168.872 317.9 172.745 317.878 176.654C317.878 177.208 317.833 177.756 317.833 178.301C317.984 178.241 318.139 178.182 318.29 178.109L320.535 177.089V176.631C320.527 168.378 317.244 160.465 311.408 154.63C305.571 148.794 297.658 145.513 289.405 145.505L289.432 145.528Z" fill="#263238"/>
<path d="M119.226 145.528C114.467 145.527 109.771 146.616 105.499 148.714C101.227 150.811 97.4933 153.86 94.584 157.626C91.6746 161.392 89.6676 165.775 88.7173 170.438C87.7669 175.102 87.8985 179.921 89.1019 184.525L91.8459 184.465C90.6503 180.285 90.4285 175.887 91.1975 171.608C91.9665 167.328 93.7059 163.282 96.282 159.78C98.8582 156.278 102.203 153.412 106.059 151.404C109.915 149.395 114.18 148.297 118.526 148.193C122.873 148.09 127.185 148.984 131.132 150.806C135.08 152.629 138.557 155.331 141.297 158.707C144.037 162.083 145.967 166.041 146.939 170.279C147.911 174.517 147.899 178.921 146.904 183.153L149.648 183.084C150.606 178.551 150.54 173.861 149.454 169.357C148.368 164.852 146.29 160.647 143.372 157.048C140.454 153.449 136.769 150.547 132.586 148.554C128.403 146.561 123.828 145.527 119.194 145.528H119.226Z" fill="#263238"/>
<path d="M146.315 121.596C146.042 121.838 145.836 122.146 145.716 122.49C145.596 122.835 145.566 123.204 145.629 123.563C145.692 123.922 145.845 124.259 146.075 124.543C146.305 124.826 146.603 125.046 146.941 125.181L158.832 128.511C159.879 128.808 160.976 128.89 162.056 128.753L250.138 117.841C252.348 117.534 254.365 116.416 255.796 114.704L267.352 101.24C267.745 100.776 267.986 100.203 268.043 99.5981C268.203 98.066 267.243 96.6849 265.898 96.5111C244.806 93.7168 218.134 91.174 201.295 93.232C179.215 95.9211 156.993 112.504 146.315 121.596Z" fill="url(#paint5_linear_8_448)"/>
<path opacity="0.8" d="M146.713 121.596C146.44 121.838 146.234 122.146 146.114 122.49C145.994 122.835 145.964 123.204 146.027 123.563C146.09 123.922 146.243 124.259 146.473 124.543C146.703 124.826 147.001 125.046 147.339 125.181L159.23 128.511C160.27 128.805 161.359 128.888 162.431 128.753L184.882 127.216L248.547 122.854C250.692 122.579 254.003 118.641 256.349 115.445L267.727 101.24C268.123 100.778 268.366 100.204 268.423 99.5981C268.578 98.066 267.618 96.6849 266.278 96.5111C245.181 93.7168 218.514 91.174 201.675 93.232C179.613 95.9211 157.391 112.504 146.713 121.596Z" fill="white"/>
<g opacity="0.3">
<path d="M204.254 129.988C203.988 129.889 203.771 129.69 203.649 129.434C203.527 129.178 203.51 128.885 203.6 128.616C203.723 128.275 203.945 127.977 204.237 127.762C204.529 127.547 204.879 127.424 205.242 127.409L215.724 126.951C215.865 126.943 216.006 126.964 216.14 127.011C216.412 127.11 216.635 127.312 216.759 127.574C216.883 127.836 216.899 128.137 216.803 128.41C216.679 128.753 216.456 129.051 216.162 129.266C215.868 129.481 215.516 129.604 215.152 129.618L204.67 130.052C204.529 130.056 204.388 130.034 204.254 129.988Z" fill="black"/>
</g>
<path d="M282.216 99.9502C281.77 100.347 281.501 100.903 281.465 101.498C281.43 102.093 281.633 102.678 282.028 103.124L284.511 105.827C284.799 106.129 285.162 106.349 285.563 106.463L316.017 114.91C316.547 115.052 317.092 115.124 317.641 115.125H323.691C323.376 114.919 323.056 114.722 322.717 114.544L293.343 99.0813C292.987 98.9044 292.716 98.5938 292.589 98.2174C292.462 97.841 292.49 97.4297 292.666 97.0736L283.126 99.4609C282.788 99.5509 282.477 99.7185 282.216 99.9502Z" fill="url(#paint6_linear_8_448)"/>
<path d="M92.5827 136.13L82.192 134.996L76.2238 137.438C75.6042 137.691 75.0526 138.086 74.6134 138.591C74.1742 139.097 73.8596 139.698 73.6948 140.347C73.4984 141.106 73.6085 141.913 74.0012 142.592L74.1064 142.77C74.4325 143.332 74.9184 143.785 75.5023 144.07C76.0862 144.355 76.7418 144.46 77.3855 144.371L83.3765 143.548C83.9604 143.466 84.5141 143.238 84.9864 142.885L91.8967 137.657L92.5827 136.13Z" fill="white"/>
<path d="M135.746 120.384L137.401 120.841C138.034 121.022 138.702 121.044 139.346 120.905C139.99 120.766 140.589 120.471 141.092 120.046C150.723 111.9 167.466 99.4015 185.531 93.5796C185.612 93.5535 185.681 93.498 185.723 93.4241C185.766 93.3458 185.776 93.2538 185.751 93.1682C185.726 93.0826 185.668 93.0102 185.59 92.9668L183.345 91.8143C157.281 100.86 135.746 120.384 135.746 120.384Z" fill="url(#paint7_linear_8_448)"/>
<path opacity="0.8" d="M135.746 120.384L137.401 120.841C138.034 121.022 138.702 121.044 139.346 120.905C139.99 120.766 140.589 120.471 141.092 120.046C150.723 111.9 167.466 99.4015 185.531 93.5796C185.612 93.5535 185.681 93.498 185.723 93.4241C185.766 93.3458 185.776 93.2538 185.751 93.1682C185.726 93.0826 185.668 93.0102 185.59 92.9668L183.345 91.8143C157.281 100.86 135.746 120.384 135.746 120.384Z" fill="white"/>
<path opacity="0.2" d="M234.493 131.383L146.927 137.657L148.574 148.46C149.077 151.768 150.303 154.925 152.164 157.707L159.481 168.646L234.223 158.539L269.557 131.397L234.493 131.383Z" fill="white"/>
<path d="M289.405 200.358C302.499 200.358 313.113 189.743 313.113 176.65C313.113 163.556 302.499 152.942 289.405 152.942C276.311 152.942 265.697 163.556 265.697 176.65C265.697 189.743 276.311 200.358 289.405 200.358Z" fill="#263238"/>
<path opacity="0.4" d="M289.405 191.184C297.432 191.184 303.939 184.677 303.939 176.65C303.939 168.623 297.432 162.116 289.405 162.116C281.378 162.116 274.871 168.623 274.871 176.65C274.871 184.677 281.378 191.184 289.405 191.184Z" fill="white"/>
<g opacity="0.3">
<path d="M289.409 163.579H289.405C288.763 163.579 288.243 164.099 288.243 164.741V172.191C288.243 172.832 288.763 173.352 289.405 173.352H289.409C290.051 173.352 290.571 172.832 290.571 172.191V164.741C290.571 164.099 290.051 163.579 289.409 163.579Z" fill="white"/>
</g>
<g opacity="0.3">
<path d="M289.409 179.956H289.405C288.763 179.956 288.243 180.476 288.243 181.118V188.568C288.243 189.209 288.763 189.729 289.405 189.729H289.409C290.051 189.729 290.571 189.209 290.571 188.568V181.118C290.571 180.476 290.051 179.956 289.409 179.956Z" fill="white"/>
</g>
<g opacity="0.3">
<path d="M293.845 175.433C293.712 175.507 293.564 175.554 293.412 175.572C293.26 175.589 293.106 175.576 292.959 175.533C292.812 175.491 292.675 175.42 292.555 175.324C292.436 175.228 292.337 175.11 292.263 174.976C292.11 174.709 292.069 174.393 292.149 174.097C292.229 173.8 292.423 173.547 292.688 173.393L299.137 169.648C299.406 169.494 299.724 169.452 300.024 169.533C300.323 169.614 300.578 169.809 300.733 170.078C300.885 170.345 300.926 170.662 300.845 170.96C300.765 171.257 300.57 171.511 300.303 171.665L293.859 175.406L293.845 175.433Z" fill="white"/>
</g>
<g opacity="0.3">
<path d="M279.664 183.587C279.397 183.74 279.081 183.781 278.785 183.701C278.488 183.622 278.236 183.428 278.082 183.162C278.003 183.029 277.952 182.881 277.931 182.728C277.91 182.575 277.92 182.419 277.961 182.27C278.001 182.121 278.071 181.981 278.167 181.859C278.262 181.738 278.381 181.636 278.516 181.561L284.964 177.816C285.096 177.739 285.242 177.688 285.393 177.668C285.544 177.647 285.698 177.657 285.845 177.696C285.993 177.735 286.131 177.803 286.252 177.896C286.374 177.989 286.475 178.104 286.551 178.237C286.629 178.369 286.679 178.515 286.7 178.666C286.72 178.818 286.711 178.972 286.672 179.12C286.632 179.268 286.565 179.406 286.472 179.528C286.379 179.649 286.263 179.751 286.131 179.828L279.678 183.574L279.664 183.587Z" fill="white"/>
</g>
<g opacity="0.3">
<path d="M299.137 183.619L292.693 179.874C292.426 179.718 292.231 179.463 292.151 179.164C292.072 178.864 292.114 178.546 292.268 178.278C292.425 178.012 292.681 177.819 292.98 177.741C293.279 177.663 293.597 177.706 293.864 177.862L300.308 181.603C300.575 181.757 300.77 182.01 300.85 182.307C300.931 182.605 300.89 182.922 300.738 183.19C300.661 183.323 300.559 183.44 300.437 183.534C300.315 183.628 300.175 183.697 300.027 183.736C299.878 183.776 299.723 183.787 299.57 183.767C299.418 183.746 299.271 183.696 299.137 183.619Z" fill="white"/>
</g>
<g opacity="0.3">
<path d="M286.542 175.003C286.466 175.135 286.364 175.251 286.243 175.344C286.122 175.437 285.983 175.505 285.836 175.544C285.688 175.583 285.535 175.592 285.384 175.572C285.232 175.551 285.087 175.501 284.955 175.424L278.516 171.683C278.384 171.607 278.268 171.506 278.175 171.385C278.082 171.265 278.014 171.127 277.975 170.98C277.935 170.833 277.925 170.68 277.945 170.529C277.965 170.378 278.014 170.232 278.09 170.101C278.245 169.835 278.499 169.641 278.796 169.561C279.094 169.481 279.41 169.522 279.677 169.675L286.13 173.421C286.262 173.497 286.378 173.599 286.47 173.721C286.562 173.842 286.63 173.98 286.668 174.128C286.707 174.275 286.716 174.429 286.695 174.58C286.674 174.731 286.624 174.876 286.546 175.008L286.542 175.003Z" fill="white"/>
</g>
<path d="M287.457 176.645C287.457 176.389 287.507 176.136 287.605 175.9C287.703 175.664 287.847 175.45 288.028 175.269C288.209 175.089 288.423 174.945 288.66 174.848C288.896 174.751 289.149 174.701 289.405 174.701C289.791 174.701 290.169 174.816 290.49 175.031C290.811 175.245 291.061 175.55 291.209 175.907C291.357 176.264 291.396 176.656 291.32 177.035C291.245 177.414 291.059 177.762 290.786 178.035C290.513 178.308 290.165 178.494 289.786 178.57C289.407 178.645 289.015 178.606 288.658 178.458C288.301 178.311 287.996 178.06 287.781 177.739C287.567 177.418 287.452 177.04 287.452 176.654L287.457 176.645Z" fill="#263238"/>
<path d="M119.227 200.362C132.32 200.362 142.935 189.748 142.935 176.654C142.935 163.561 132.32 152.946 119.227 152.946C106.133 152.946 95.5186 163.561 95.5186 176.654C95.5186 189.748 106.133 200.362 119.227 200.362Z" fill="#263238"/>
<path opacity="0.4" d="M119.226 191.188C127.253 191.188 133.76 184.681 133.76 176.654C133.76 168.627 127.253 162.12 119.226 162.12C111.2 162.12 104.692 168.627 104.692 176.654C104.692 184.681 111.2 191.188 119.226 191.188Z" fill="white"/>
<g opacity="0.3">
<path d="M119.227 163.579H119.222C118.581 163.579 118.061 164.099 118.061 164.741V172.191C118.061 172.832 118.581 173.352 119.222 173.352H119.227C119.868 173.352 120.388 172.832 120.388 172.191V164.741C120.388 164.099 119.868 163.579 119.227 163.579Z" fill="white"/>
</g>
<g opacity="0.3">
<path d="M119.227 179.956H119.222C118.581 179.956 118.061 180.476 118.061 181.118V188.568C118.061 189.209 118.581 189.729 119.222 189.729H119.227C119.868 189.729 120.388 189.209 120.388 188.568V181.118C120.388 180.476 119.868 179.956 119.227 179.956Z" fill="white"/>
</g>
<g opacity="0.3">
<path d="M123.658 175.433C123.525 175.507 123.379 175.554 123.228 175.571C123.077 175.588 122.924 175.575 122.778 175.532C122.632 175.49 122.496 175.419 122.378 175.323C122.26 175.228 122.162 175.11 122.089 174.976C122.012 174.844 121.962 174.699 121.941 174.548C121.92 174.397 121.929 174.243 121.968 174.096C122.006 173.948 122.074 173.81 122.166 173.689C122.258 173.567 122.374 173.465 122.506 173.389L128.968 169.671C129.1 169.595 129.246 169.545 129.398 169.526C129.549 169.506 129.703 169.517 129.85 169.557C129.998 169.597 130.136 169.665 130.257 169.759C130.377 169.852 130.479 169.968 130.555 170.101C130.631 170.233 130.68 170.379 130.7 170.531C130.719 170.682 130.709 170.836 130.669 170.983C130.629 171.131 130.56 171.269 130.467 171.39C130.373 171.51 130.257 171.612 130.125 171.688L123.681 175.429L123.658 175.433Z" fill="white"/>
</g>
<g opacity="0.3">
<path d="M107.899 183.162C107.822 183.03 107.773 182.885 107.753 182.734C107.733 182.583 107.743 182.43 107.783 182.283C107.822 182.136 107.89 181.998 107.983 181.877C108.076 181.757 108.192 181.656 108.324 181.58L114.772 177.834C114.905 177.757 115.051 177.706 115.203 177.686C115.355 177.665 115.509 177.674 115.658 177.714C115.806 177.753 115.945 177.821 116.067 177.913C116.189 178.006 116.291 178.122 116.368 178.255C116.522 178.523 116.563 178.841 116.483 179.14C116.402 179.438 116.206 179.692 115.938 179.846L109.495 183.592C109.362 183.669 109.215 183.719 109.063 183.739C108.91 183.759 108.756 183.749 108.607 183.709C108.459 183.669 108.32 183.6 108.198 183.506C108.077 183.412 107.975 183.295 107.899 183.162Z" fill="white"/>
</g>
<g opacity="0.3">
<path d="M130.546 183.194C130.392 183.46 130.139 183.654 129.842 183.733C129.546 183.813 129.23 183.772 128.963 183.619L122.506 179.874C122.24 179.717 122.047 179.46 121.969 179.162C121.891 178.863 121.934 178.545 122.09 178.278C122.166 178.146 122.268 178.031 122.39 177.938C122.511 177.846 122.649 177.778 122.797 177.74C122.944 177.701 123.098 177.692 123.249 177.713C123.4 177.734 123.545 177.784 123.677 177.862L130.121 181.603C130.386 181.757 130.58 182.009 130.66 182.306C130.739 182.602 130.698 182.918 130.546 183.185V183.194Z" fill="white"/>
</g>
<g opacity="0.3">
<path d="M116.359 175.012C116.282 175.144 116.18 175.259 116.059 175.351C115.937 175.443 115.799 175.51 115.651 175.548C115.504 175.586 115.35 175.595 115.199 175.574C115.049 175.552 114.903 175.501 114.772 175.424L108.324 171.683C108.192 171.607 108.076 171.506 107.983 171.385C107.89 171.265 107.822 171.127 107.783 170.98C107.743 170.833 107.733 170.68 107.753 170.529C107.773 170.378 107.822 170.232 107.899 170.101C108.054 169.832 108.309 169.636 108.608 169.556C108.907 169.475 109.226 169.517 109.495 169.671L115.938 173.416C116.204 173.571 116.398 173.825 116.478 174.122C116.558 174.419 116.517 174.736 116.364 175.003L116.359 175.012Z" fill="white"/>
</g>
<path d="M119.227 174.701C119.613 174.701 119.991 174.816 120.312 175.031C120.633 175.245 120.883 175.55 121.031 175.907C121.179 176.264 121.217 176.656 121.142 177.035C121.067 177.414 120.881 177.762 120.608 178.035C120.334 178.308 119.987 178.494 119.608 178.57C119.229 178.645 118.836 178.606 118.479 178.458C118.123 178.311 117.818 178.06 117.603 177.739C117.388 177.418 117.274 177.04 117.274 176.654C117.275 176.137 117.481 175.641 117.847 175.275C118.213 174.909 118.709 174.703 119.227 174.701Z" fill="#263238"/>
<path opacity="0.3" d="M325.987 131.932C326.175 131.873 326.35 131.778 326.501 131.652C326.652 131.527 326.777 131.372 326.868 131.198C326.959 131.024 327.015 130.833 327.033 130.637C327.05 130.442 327.029 130.244 326.971 130.056C326.696 125.062 325.635 120.622 322.576 117.567C322.476 117.24 322.269 116.957 321.987 116.765C321.705 116.573 321.365 116.483 321.025 116.51L302.961 118.216C302.686 118.245 302.424 118.349 302.205 118.518C301.986 118.686 301.818 118.912 301.719 119.17C301.621 119.428 301.596 119.709 301.647 119.98C301.698 120.252 301.824 120.504 302.009 120.709L307.182 126.288C307.361 126.481 307.589 126.622 307.84 126.7L325.137 131.941C325.415 132.018 325.71 132.015 325.987 131.932Z" fill="black"/>
<path d="M145.647 122.73C145.516 123.225 145.577 123.751 145.817 124.204C146.057 124.656 146.458 125.002 146.941 125.172L158.832 128.502C159.848 128.829 160.921 128.938 161.983 128.822L165.82 128.524L162.353 109.76C154.208 115.111 153.664 115.358 146.346 121.587C145.992 121.879 145.746 122.281 145.647 122.73Z" fill="#263238"/>
<path d="M223.037 92.6146L215.573 125.158L225.337 124.454L229.792 92.921C227.517 92.7869 225.266 92.6847 223.037 92.6146Z" fill="#263238"/>
<path d="M254.012 118.372L267.732 101.24C268.137 100.773 268.385 100.191 268.441 99.5753C268.596 98.0432 267.631 96.6621 266.287 96.4974C263.479 96.1133 260.488 95.7474 257.501 95.3861" fill="#263238"/>
<path d="M156.449 126.037C155.885 126.044 155.325 125.94 154.801 125.73C154.277 125.521 153.8 125.21 153.396 124.816C152.993 124.422 152.671 123.952 152.449 123.433C152.227 122.914 152.11 122.357 152.104 121.793C152.093 120.812 152.416 119.858 153.021 119.086C153.625 118.315 154.475 117.772 155.429 117.548L161.155 116.208L162.614 125.812L156.563 126.046L156.449 126.037Z" fill="url(#paint8_linear_8_448)"/>
<path opacity="0.3" d="M160.936 125.872L162.614 125.803L161.155 116.208L159.522 116.593L160.936 125.872Z" fill="black"/>
<path opacity="0.6" d="M217.691 167.014H217.668C217.653 167.011 217.639 167.005 217.627 166.997C217.615 166.989 217.604 166.978 217.596 166.966C217.588 166.953 217.582 166.94 217.58 166.925C217.577 166.91 217.578 166.895 217.581 166.881C217.645 166.584 223.901 137.209 224.702 133.203C225.008 131.671 225.122 128.73 225.031 124.463C225.031 124.433 225.043 124.404 225.064 124.382C225.086 124.361 225.115 124.349 225.145 124.349C225.175 124.349 225.203 124.36 225.225 124.381C225.246 124.401 225.258 124.429 225.26 124.459C225.351 128.744 225.26 131.698 224.926 133.249C224.125 137.255 217.864 166.634 217.805 166.927C217.798 166.952 217.783 166.974 217.762 166.989C217.742 167.005 217.717 167.014 217.691 167.014Z" fill="black"/>
<path opacity="0.6" d="M161.279 171.422C161.26 171.422 161.241 171.417 161.224 171.409C161.208 171.4 161.193 171.387 161.182 171.372C161.105 171.253 153.028 159.303 150.252 154.3C147.403 149.155 145.555 124.5 145.478 123.453C145.476 123.423 145.486 123.393 145.506 123.37C145.525 123.347 145.553 123.333 145.583 123.329C145.598 123.328 145.614 123.33 145.628 123.335C145.643 123.34 145.656 123.347 145.668 123.358C145.68 123.368 145.689 123.38 145.695 123.394C145.702 123.408 145.706 123.423 145.706 123.439C145.706 123.69 147.627 149.086 150.453 154.19C153.197 159.179 161.292 171.111 161.375 171.244C161.383 171.256 161.389 171.271 161.392 171.286C161.395 171.3 161.395 171.316 161.392 171.331C161.389 171.346 161.383 171.36 161.375 171.372C161.366 171.385 161.355 171.396 161.343 171.404C161.324 171.417 161.301 171.423 161.279 171.422Z" fill="black"/>
<path opacity="0.6" d="M82.1919 135.11C82.1694 135.111 82.1473 135.105 82.1285 135.092C82.1097 135.08 82.0951 135.062 82.0867 135.041C82.076 135.013 82.0766 134.981 82.0885 134.953C82.1005 134.925 82.1227 134.903 82.1507 134.891C88.343 132.357 108.219 127.573 112.856 126.837C118.724 125.895 138.773 120.946 138.974 120.892C139.005 120.885 139.036 120.89 139.063 120.906C139.089 120.922 139.109 120.948 139.116 120.978C139.12 120.993 139.12 121.008 139.117 121.023C139.115 121.038 139.109 121.052 139.101 121.065C139.093 121.078 139.083 121.089 139.07 121.098C139.058 121.106 139.044 121.112 139.029 121.116C138.828 121.166 118.769 126.114 112.893 127.061C108.365 127.788 88.2744 132.631 82.2513 135.105L82.1919 135.11Z" fill="black"/>
<path opacity="0.8" d="M282.216 99.9502C281.77 100.347 281.501 100.903 281.465 101.498C281.43 102.093 281.633 102.678 282.028 103.124L284.511 105.827C284.799 106.129 285.162 106.349 285.563 106.463L316.017 114.91C316.547 115.052 317.092 115.124 317.641 115.125H323.691C323.376 114.919 323.056 114.722 322.717 114.544L293.343 99.0813C292.987 98.9044 292.716 98.5938 292.589 98.2174C292.462 97.841 292.49 97.4297 292.666 97.0736L283.126 99.4609C282.788 99.5509 282.477 99.7185 282.216 99.9502Z" fill="white"/>
<path d="M206.362 118.449C206.362 118.449 205.974 115.952 207.368 111.589L207.14 111.47C207.332 110.862 207.538 110.3 207.725 109.81L201.615 113.359C201.716 114.768 201.135 117.475 200.806 118.609C200.806 118.609 199.987 120.667 202.749 120.832C204.771 120.937 206.362 118.449 206.362 118.449Z" fill="#B97964"/>
<path opacity="0.2" d="M201.46 115.317L204.94 114.631C204.597 115.696 203.609 116.949 201.199 116.986C201.33 116.437 201.418 115.879 201.46 115.317Z" fill="black"/>
<path d="M207.858 106.874C207.346 110.675 207.135 112.82 205.063 114.649C201.949 117.356 197.463 115.321 196.831 111.448C196.26 107.949 197.188 102.301 201.039 101.112C201.889 100.845 202.792 100.798 203.665 100.974C204.538 101.15 205.352 101.544 206.032 102.119C206.712 102.693 207.236 103.431 207.556 104.262C207.875 105.093 207.979 105.992 207.858 106.874Z" fill="#B97964"/>
<path d="M208.672 102.319C208.301 100.179 203.033 99.7764 201.483 100.746C201.249 100.888 204.259 102.685 204.076 102.598L205.507 103.216C205.736 103.179 206.166 103.476 206.344 104.199C206.344 104.199 205.754 110.039 207.291 111.85C208.663 111.297 208.914 108.983 209.436 107.633C210.209 105.644 211.178 102.662 208.672 102.319Z" fill="#263238"/>
<path d="M209.134 110.167C208.955 110.61 208.689 111.012 208.352 111.351C208.015 111.689 207.614 111.957 207.172 112.138C205.992 112.623 205.654 111.347 205.85 110.153C206.024 109.079 206.436 107.78 207.68 107.807C208.924 107.835 209.564 109.065 209.134 110.167Z" fill="#B97964"/>
<path d="M202.315 107.583C202.288 107.972 202.059 108.274 201.803 108.251C201.547 108.228 201.346 107.899 201.391 107.505C201.437 107.112 201.647 106.815 201.904 106.838C202.16 106.861 202.343 107.19 202.315 107.583Z" fill="#263238"/>
<path d="M198.483 107.382C198.455 107.771 198.226 108.073 197.97 108.05C197.714 108.027 197.513 107.698 197.559 107.304C197.604 106.911 197.819 106.614 198.071 106.636C198.323 106.659 198.51 107.016 198.483 107.382Z" fill="#263238"/>
<path d="M199.74 107.254C199.74 107.254 198.368 109.083 197.911 109.87C198.418 110.4 199.374 110.24 199.374 110.24L199.74 107.254Z" fill="#A24E3F"/>
<path d="M203.404 105.809C203.373 105.82 203.339 105.822 203.307 105.815C203.275 105.809 203.245 105.794 203.221 105.772C203.053 105.613 202.852 105.495 202.631 105.428C202.41 105.36 202.177 105.345 201.949 105.383C201.902 105.395 201.852 105.387 201.81 105.362C201.769 105.338 201.738 105.298 201.725 105.251C201.719 105.228 201.718 105.203 201.721 105.18C201.724 105.156 201.733 105.133 201.745 105.113C201.757 105.092 201.774 105.075 201.793 105.061C201.812 105.047 201.834 105.037 201.858 105.031C202.143 104.974 202.438 104.985 202.718 105.065C202.998 105.145 203.255 105.29 203.468 105.489C203.501 105.523 203.52 105.569 203.52 105.617C203.52 105.664 203.501 105.71 203.468 105.745C203.453 105.772 203.431 105.794 203.404 105.809Z" fill="#263238"/>
<path d="M200.71 111.754H200.549C200.504 111.749 200.462 111.727 200.432 111.692C200.402 111.657 200.387 111.612 200.389 111.566C200.395 111.522 200.418 111.481 200.453 111.452C200.487 111.423 200.532 111.408 200.577 111.411C200.864 111.417 201.149 111.364 201.414 111.257C201.68 111.149 201.921 110.988 202.123 110.784C202.138 110.768 202.157 110.755 202.178 110.747C202.199 110.738 202.221 110.733 202.244 110.733C202.267 110.733 202.289 110.738 202.31 110.747C202.331 110.755 202.349 110.768 202.365 110.784C202.394 110.82 202.407 110.865 202.403 110.91C202.399 110.956 202.377 110.997 202.342 111.027C201.904 111.459 201.324 111.717 200.71 111.754Z" fill="#263238"/>
<path opacity="0.2" d="M206.513 110.181C206.498 110.179 206.484 110.173 206.471 110.165C206.458 110.158 206.447 110.147 206.438 110.135C206.43 110.122 206.424 110.108 206.421 110.093C206.418 110.078 206.418 110.063 206.422 110.048C206.488 109.701 206.646 109.377 206.879 109.111C207.07 108.877 207.334 108.716 207.629 108.653C207.788 108.622 207.953 108.639 208.102 108.703C208.252 108.767 208.378 108.874 208.466 109.01C208.481 109.036 208.485 109.067 208.477 109.096C208.47 109.125 208.451 109.15 208.425 109.166C208.412 109.173 208.397 109.177 208.382 109.179C208.367 109.181 208.352 109.179 208.337 109.175C208.323 109.171 208.31 109.164 208.298 109.154C208.286 109.145 208.276 109.133 208.269 109.12C208.205 109.013 208.108 108.928 207.994 108.879C207.879 108.83 207.751 108.818 207.629 108.845C207.385 108.903 207.167 109.042 207.012 109.239C206.807 109.475 206.669 109.763 206.614 110.071C206.612 110.098 206.601 110.124 206.583 110.144C206.564 110.164 206.54 110.177 206.513 110.181Z" fill="black"/>
<path d="M196.91 105.612C196.875 105.601 196.845 105.58 196.823 105.553C196.805 105.535 196.792 105.515 196.782 105.493C196.773 105.47 196.768 105.446 196.768 105.422C196.768 105.398 196.773 105.374 196.782 105.352C196.792 105.329 196.805 105.309 196.823 105.292C197.04 105.101 197.3 104.965 197.581 104.894C197.861 104.823 198.155 104.82 198.437 104.885C198.483 104.9 198.522 104.932 198.545 104.974C198.568 105.017 198.573 105.067 198.561 105.113C198.555 105.137 198.544 105.159 198.53 105.178C198.515 105.197 198.497 105.213 198.476 105.224C198.454 105.236 198.431 105.243 198.407 105.245C198.383 105.247 198.359 105.245 198.336 105.237C198.112 105.186 197.879 105.19 197.657 105.249C197.435 105.308 197.23 105.42 197.06 105.575C197.039 105.592 197.015 105.603 196.989 105.61C196.963 105.616 196.936 105.617 196.91 105.612Z" fill="#263238"/>
<path d="M209.577 100.719C209.34 99.8451 208.242 99.5981 207.387 99.7261C207.487 98.6789 206.157 98.002 205.301 97.9837C204.865 97.9273 204.423 98.0402 204.067 98.2993C204.135 98.2993 203.824 97.7688 203.609 97.5447C203.247 97.1413 202.773 96.8555 202.247 96.7243C201.721 96.5931 201.168 96.6223 200.659 96.8084C200.15 97.0253 199.712 97.3815 199.396 97.8362C199.079 98.2908 198.898 98.8254 198.871 99.3786C198.74 99.2371 198.582 99.123 198.406 99.0429C198.23 98.9629 198.04 98.9183 197.847 98.912C197.654 98.9056 197.462 98.9375 197.281 99.0058C197.101 99.0741 196.936 99.1775 196.795 99.31C196.529 99.6121 196.383 100.001 196.383 100.403C196.383 100.805 196.529 101.194 196.795 101.496C196.627 101.506 196.463 101.549 196.312 101.622C196.161 101.695 196.026 101.798 195.915 101.923C195.69 102.177 195.575 102.509 195.595 102.847C195.615 103.186 195.768 103.502 196.022 103.728C196.275 103.953 196.608 104.068 196.946 104.048C196.946 104.821 196.973 105.79 196.969 106.568L198.158 103.783C198.698 103.618 198.812 103.385 198.954 102.809C199.306 103.559 199.919 103.531 200.714 103.545C201.12 103.542 201.516 103.426 201.86 103.212C202.204 102.997 202.482 102.691 202.663 102.328C202.828 102.721 203.096 103.061 203.439 103.313C203.782 103.565 204.187 103.72 204.611 103.76C205.037 103.765 205.449 103.611 205.766 103.327C206.084 103.044 206.284 102.651 206.326 102.228C206.552 102.6 206.903 102.879 207.316 103.016C207.729 103.153 208.177 103.137 208.58 102.973C208.975 102.763 209.287 102.427 209.468 102.018C209.649 101.609 209.687 101.152 209.577 100.719Z" fill="#263238"/>
<path d="M200.454 117.855L185.865 122.73L172.446 122.044L171.93 126.224C171.93 126.224 175.936 127.066 179.842 127.596L192.391 126.736C196.575 125.744 200.705 124.536 200.705 124.536L200.454 117.855Z" fill="#B97964"/>
<path d="M197.376 126.613L198.881 117.873L204.556 116.885C204.808 116.849 209.418 116.469 210.803 121.527L211.114 125.552L197.376 126.613Z" fill="#263238"/>
<path d="M201.99 126.197C201.674 126.197 192.638 127.07 192.638 127.07L191.005 120.612C193.577 119.551 196.206 118.635 198.88 117.868C203.083 116.734 207.025 116.382 207.931 118.326C209.655 122.067 201.99 126.197 201.99 126.197Z" fill="#263238"/>
<path d="M168.042 120.132C167.786 120.288 164.745 123.434 164.745 123.434L165.335 127.326L169.158 123.379L168.042 120.132Z" fill="#263238"/>
<path d="M172.62 128.259C172.295 128.418 171.921 128.442 171.579 128.327C171.236 128.211 170.953 127.965 170.791 127.642L164.722 115.353C164.563 115.028 164.539 114.654 164.655 114.312C164.77 113.969 165.016 113.686 165.339 113.524C165.664 113.365 166.039 113.341 166.381 113.456C166.724 113.572 167.007 113.818 167.169 114.141L173.233 126.434C173.391 126.758 173.415 127.131 173.3 127.472C173.186 127.814 172.941 128.096 172.62 128.259Z" fill="#263238"/>
<path d="M176.988 122.378L171.994 121.71L170.549 119.963C170.549 119.963 168.01 119.734 167.466 120.187C166.922 120.64 166.373 122.081 166.373 122.081C166.373 122.081 165.715 123.261 166.831 123.882C166.831 123.882 166.112 124.934 167.393 125.675C167.393 125.675 166.451 126.206 167.805 126.764C168.323 126.969 168.877 127.07 169.435 127.059C169.992 127.048 170.542 126.926 171.052 126.7C171.799 126.516 172.572 126.458 173.338 126.526L177.88 127.326L176.988 122.378Z" fill="#B97964"/>
<path d="M254.012 87.1952C249.658 86.5915 244.211 86.1067 238.677 85.8232C238.653 85.8273 238.627 85.8259 238.603 85.8191C238.579 85.8124 238.556 85.8005 238.537 85.7841C238.518 85.7678 238.502 85.7475 238.492 85.7247C238.481 85.7018 238.476 85.6769 238.476 85.6517C238.476 85.6265 238.481 85.6016 238.492 85.5787C238.502 85.5559 238.518 85.5356 238.537 85.5192C238.556 85.5029 238.579 85.491 238.603 85.4842C238.627 85.4775 238.653 85.4761 238.677 85.4802C244.225 85.7546 249.681 86.2394 254.044 86.8522C254.085 86.8611 254.121 86.8843 254.146 86.9175C254.171 86.9508 254.183 86.992 254.18 87.0335C254.177 87.0751 254.16 87.1143 254.131 87.1439C254.101 87.1736 254.063 87.1918 254.021 87.1952H254.012Z" fill="url(#paint9_linear_8_448)"/>
<path d="M258.425 87.6525L255.727 87.3781C255.705 87.3764 255.683 87.3703 255.663 87.3601C255.643 87.35 255.626 87.336 255.611 87.319C255.597 87.302 255.586 87.2823 255.579 87.2611C255.572 87.2398 255.57 87.2174 255.571 87.1952C255.572 87.1723 255.578 87.1499 255.588 87.1293C255.599 87.1088 255.613 87.0906 255.631 87.076C255.648 87.0613 255.669 87.0506 255.691 87.0443C255.713 87.0381 255.736 87.0365 255.759 87.0397C256.646 87.1266 257.547 87.2135 258.457 87.3095C258.502 87.3142 258.544 87.3364 258.573 87.3715C258.602 87.4065 258.616 87.4516 258.613 87.497C258.607 87.5419 258.584 87.5829 258.55 87.6118C258.515 87.6406 258.47 87.6552 258.425 87.6525Z" fill="url(#paint10_linear_8_448)"/>
<path d="M105.704 207.78L110.368 202.077L114 174.596H118.664L123.421 202.105L127.825 207.78H105.704Z" fill="url(#paint11_linear_8_448)"/>
<path d="M111.196 195.821H122.337L120.732 186.542H112.422L111.196 195.821Z" fill="white"/>
<path opacity="0.3" d="M110.368 202.077L123.421 202.105L127.825 207.78H105.704L110.368 202.077Z" fill="black"/>
<path d="M196.768 207.78L201.432 202.077L205.064 174.596H209.728L214.485 202.105L218.889 207.78H196.768Z" fill="url(#paint12_linear_8_448)"/>
<path d="M202.26 195.821H213.401L211.796 186.542H203.486L202.26 195.821Z" fill="white"/>
<path opacity="0.3" d="M201.432 202.077L214.485 202.105L218.889 207.78H196.768L201.432 202.077Z" fill="black"/>
<path d="M277.048 206.724L281.713 201.021L285.344 173.54H290.009L294.765 201.048L299.17 206.724H277.048Z" fill="url(#paint13_linear_8_448)"/>
<path d="M282.541 194.765H293.681L292.076 185.485H283.766L282.541 194.765Z" fill="white"/>
<path opacity="0.3" d="M281.713 201.021L294.765 201.048L299.17 206.724H277.048L281.713 201.021Z" fill="black"/>
<path d="M23.2007 200.28L27.2069 200.673L30.1659 190.534L24.0742 189.871L23.2007 200.28Z" fill="#EEC1BB"/>
<path d="M27.7831 198.908H26.3562C26.197 198.909 26.0403 198.948 25.8988 199.021C25.7573 199.094 25.6351 199.199 25.5422 199.329C24.719 200.458 24.097 200.033 23.2006 198.972C22.629 198.908 22.4781 199.562 22.4323 199.736L21.3622 203.623C21.3184 203.779 21.3381 203.946 21.4169 204.087C21.4958 204.229 21.6273 204.333 21.7829 204.378C21.8363 204.403 21.8934 204.42 21.9521 204.428H33.2848C35.0867 204.428 35.4617 202.599 34.7209 202.443C31.3823 201.707 29.0179 200.724 27.9889 199.754C27.7968 199.557 27.9935 199.434 27.7831 198.908Z" fill="#263238"/>
<path d="M30.8886 200.01C30.9616 199.958 31.0215 199.889 31.0636 199.81C31.1056 199.731 31.1287 199.643 31.131 199.553C31.1375 199.504 31.1298 199.454 31.1087 199.409C31.0876 199.365 31.0541 199.327 31.0121 199.301C30.5548 198.986 28.7758 199.818 28.5791 199.919C28.5679 199.922 28.5577 199.928 28.549 199.936C28.5403 199.944 28.5334 199.954 28.5288 199.964C28.5229 199.984 28.5247 200.006 28.5341 200.025C28.5434 200.043 28.5595 200.058 28.5791 200.065C29.0167 200.171 29.4644 200.229 29.9145 200.239C30.2553 200.268 30.5965 200.188 30.8886 200.01ZM30.8886 199.429C30.9066 199.44 30.9207 199.455 30.9289 199.474C30.9372 199.493 30.9391 199.514 30.9344 199.534C30.9315 199.601 30.914 199.666 30.8832 199.726C30.8524 199.785 30.809 199.837 30.756 199.877C30.349 200.179 29.384 200.047 28.8444 199.951C29.599 199.626 30.6417 199.256 30.9024 199.429H30.8886Z" fill="url(#paint14_linear_8_448)"/>
<path d="M28.6382 200.079C29.1733 199.855 30.2983 198.972 30.2389 198.506C30.2389 198.405 30.1611 198.291 29.9142 198.259C28.9355 198.144 28.5147 199.905 28.5147 199.978C28.507 199.991 28.5029 200.005 28.5029 200.019C28.5029 200.034 28.507 200.048 28.5147 200.061C28.524 200.065 28.5342 200.067 28.5444 200.067C28.5547 200.067 28.5649 200.065 28.5742 200.061L28.6382 200.079ZM29.8821 198.4C30.0651 198.4 30.0651 198.487 30.0651 198.51C30.1154 198.794 29.3013 199.525 28.7159 199.832C28.8394 199.425 29.1961 198.396 29.8181 198.396L29.8821 198.4Z" fill="url(#paint15_linear_8_448)"/>
<path d="M27.5634 200.907C27.5442 200.913 27.5233 200.913 27.504 200.907C27.491 200.899 27.4798 200.889 27.4708 200.877C27.4619 200.865 27.4556 200.851 27.4521 200.837C27.4487 200.822 27.4483 200.807 27.4509 200.792C27.4535 200.778 27.4592 200.764 27.4674 200.751C27.6092 200.526 27.7985 200.334 28.0221 200.19C28.2456 200.045 28.498 199.951 28.7617 199.914C28.7911 199.911 28.8206 199.92 28.8443 199.937C28.8679 199.955 28.8841 199.981 28.8897 200.01C28.8937 200.04 28.886 200.071 28.8682 200.096C28.8503 200.12 28.8236 200.137 28.7937 200.143C28.563 200.174 28.342 200.255 28.1461 200.381C27.9502 200.506 27.7841 200.673 27.6595 200.87C27.6474 200.883 27.6325 200.893 27.6158 200.9C27.5991 200.906 27.5812 200.908 27.5634 200.907Z" fill="url(#paint16_linear_8_448)"/>
<path d="M28.4508 201.574C28.4315 201.58 28.4107 201.58 28.3914 201.574C28.3662 201.558 28.3483 201.533 28.3414 201.504C28.3346 201.475 28.3394 201.444 28.3548 201.419C28.4966 201.193 28.6859 201.002 28.9095 200.857C29.133 200.713 29.3854 200.619 29.649 200.582C29.6792 200.579 29.7092 200.588 29.733 200.607C29.7568 200.625 29.7726 200.652 29.7771 200.682C29.781 200.712 29.7732 200.742 29.7552 200.766C29.7373 200.79 29.7106 200.806 29.6811 200.81C29.451 200.843 29.2306 200.925 29.035 201.051C28.8393 201.176 28.6728 201.342 28.5469 201.538C28.5351 201.551 28.5201 201.561 28.5034 201.568C28.4867 201.574 28.4686 201.576 28.4508 201.574Z" fill="url(#paint17_linear_8_448)"/>
<path d="M29.5576 202.141C29.5383 202.148 29.5174 202.148 29.4981 202.141C29.4852 202.134 29.4739 202.124 29.465 202.112C29.4561 202.1 29.4497 202.086 29.4463 202.071C29.4429 202.057 29.4424 202.042 29.4451 202.027C29.4477 202.012 29.4533 201.998 29.4615 201.986C29.6034 201.761 29.7927 201.569 30.0162 201.424C30.2398 201.28 30.4922 201.186 30.7558 201.149C30.7859 201.146 30.816 201.155 30.8397 201.174C30.8635 201.193 30.8793 201.22 30.8838 201.25C30.8878 201.279 30.8799 201.309 30.862 201.333C30.844 201.357 30.8174 201.373 30.7878 201.378C30.5575 201.41 30.337 201.492 30.1412 201.617C29.9455 201.743 29.7791 201.909 29.6536 202.105C29.6416 202.118 29.6266 202.128 29.6099 202.134C29.5933 202.141 29.5753 202.143 29.5576 202.141Z" fill="url(#paint18_linear_8_448)"/>
<path opacity="0.3" d="M28.6018 195.894L28.2359 197.138L23.5254 196.415L23.6123 195.396L28.6018 195.894Z" fill="black"/>
<path d="M46.5107 200.28L50.517 200.673L53.4759 190.534L47.3843 189.871L46.5107 200.28Z" fill="#EEC1BB"/>
<path d="M51.0932 198.908H49.6663C49.5071 198.909 49.3503 198.948 49.2088 199.021C49.0674 199.094 48.9452 199.199 48.8522 199.329C48.029 200.458 47.4071 200.033 46.5107 198.972C45.939 198.908 45.7881 199.562 45.7424 199.736L44.6722 203.623C44.6285 203.779 44.6482 203.946 44.727 204.087C44.8058 204.229 44.9374 204.333 45.093 204.378C45.1506 204.405 45.2125 204.422 45.2759 204.428H56.604C58.4059 204.428 58.781 202.599 58.0401 202.443C54.7015 201.707 52.3371 200.724 51.3081 199.754C51.1069 199.557 51.3036 199.434 51.0932 198.908Z" fill="#263238"/>
<path d="M54.1987 200.01C54.2717 199.958 54.3316 199.889 54.3736 199.81C54.4157 199.731 54.4388 199.643 54.4411 199.553C54.4476 199.504 54.4399 199.454 54.4188 199.409C54.3977 199.365 54.3641 199.327 54.3222 199.301C53.8648 198.986 52.0904 199.818 51.8892 199.919C51.878 199.922 51.8677 199.928 51.8591 199.936C51.8504 199.944 51.8435 199.954 51.8389 199.964C51.8329 199.984 51.8348 200.006 51.8441 200.025C51.8535 200.043 51.8696 200.058 51.8892 200.065C52.3283 200.171 52.7775 200.229 53.2291 200.239C53.5684 200.268 53.9081 200.188 54.1987 200.01ZM54.1987 199.429C54.2166 199.44 54.2307 199.455 54.239 199.474C54.2472 199.493 54.2491 199.514 54.2444 199.534C54.2415 199.601 54.2241 199.666 54.1933 199.726C54.1625 199.785 54.119 199.837 54.0661 199.877C53.659 200.179 52.6941 200.047 52.1544 199.951C52.909 199.626 53.9655 199.256 54.2124 199.429H54.1987Z" fill="url(#paint19_linear_8_448)"/>
<path d="M51.9485 200.079C52.4836 199.855 53.6086 198.972 53.5492 198.506C53.5492 198.405 53.4714 198.291 53.229 198.259C52.2458 198.144 51.825 199.905 51.825 199.978C51.8204 199.993 51.8201 200.008 51.8241 200.023C51.8282 200.037 51.8364 200.051 51.8479 200.061C51.8572 200.065 51.8673 200.067 51.8776 200.067C51.8879 200.067 51.8981 200.065 51.9073 200.061L51.9485 200.079ZM53.1924 198.4C53.3754 198.4 53.3754 198.487 53.3754 198.51C53.4257 198.794 52.6116 199.525 52.0262 199.832C52.1497 199.425 52.4836 198.396 53.1284 198.396L53.1924 198.4Z" fill="url(#paint20_linear_8_448)"/>
<path d="M50.874 200.907C50.8547 200.913 50.8338 200.913 50.8145 200.907C50.8016 200.899 50.7903 200.889 50.7814 200.877C50.7725 200.865 50.7661 200.851 50.7627 200.837C50.7593 200.822 50.7588 200.807 50.7615 200.792C50.7641 200.778 50.7697 200.764 50.7779 200.751C50.9198 200.526 51.1091 200.334 51.3326 200.19C51.5562 200.045 51.8086 199.951 52.0722 199.914C52.1017 199.911 52.1311 199.92 52.1548 199.937C52.1785 199.955 52.1947 199.981 52.2003 200.01C52.2043 200.04 52.1966 200.071 52.1787 200.096C52.1608 200.12 52.1342 200.137 52.1042 200.143C51.8736 200.174 51.6526 200.255 51.4566 200.381C51.2607 200.506 51.0946 200.673 50.97 200.87C50.958 200.883 50.943 200.893 50.9263 200.9C50.9097 200.906 50.8917 200.908 50.874 200.907Z" fill="url(#paint21_linear_8_448)"/>
<path d="M51.7609 201.574C51.7415 201.58 51.7208 201.58 51.7014 201.574C51.6762 201.558 51.6583 201.533 51.6515 201.504C51.6446 201.475 51.6494 201.444 51.6648 201.419C51.8067 201.194 51.996 201.002 52.2195 200.857C52.4431 200.713 52.6955 200.619 52.9591 200.582C52.9741 200.58 52.9894 200.581 53.004 200.585C53.0186 200.589 53.0323 200.596 53.0442 200.605C53.0561 200.615 53.066 200.626 53.0734 200.64C53.0808 200.653 53.0855 200.667 53.0872 200.682C53.0911 200.712 53.0832 200.742 53.0653 200.766C53.0473 200.79 53.0207 200.806 52.9911 200.811C52.761 200.843 52.5407 200.925 52.345 201.051C52.1494 201.176 51.9829 201.342 51.8569 201.538C51.8457 201.552 51.8308 201.563 51.8139 201.569C51.797 201.576 51.7787 201.577 51.7609 201.574Z" fill="url(#paint22_linear_8_448)"/>
<path d="M52.8676 202.141C52.8484 202.148 52.8275 202.148 52.8082 202.141C52.7952 202.134 52.784 202.124 52.775 202.112C52.7661 202.1 52.7598 202.086 52.7563 202.071C52.7529 202.057 52.7525 202.042 52.7551 202.027C52.7577 202.012 52.7634 201.998 52.7716 201.986C52.9134 201.761 53.1027 201.569 53.3263 201.424C53.5498 201.28 53.8022 201.186 54.0659 201.149C54.096 201.146 54.126 201.155 54.1498 201.174C54.1736 201.193 54.1894 201.22 54.1939 201.25C54.1978 201.279 54.19 201.309 54.172 201.333C54.1541 201.357 54.1275 201.373 54.0979 201.378C53.8676 201.41 53.647 201.492 53.4513 201.617C53.2555 201.743 53.0892 201.909 52.9637 202.105C52.9516 202.118 52.9367 202.128 52.92 202.134C52.9033 202.141 52.8854 202.143 52.8676 202.141Z" fill="url(#paint23_linear_8_448)"/>
<path opacity="0.3" d="M51.9118 195.894L51.546 197.138L46.8354 196.415L46.9178 195.396L51.9118 195.894Z" fill="black"/>
<path d="M55.0722 123.882C55.0722 123.882 58.3878 138.517 59.9702 151.322C60.455 155.214 60.5464 160.419 59.6912 164.247L53.2885 196.05L45.2349 195.245C46.5017 181.525 48.2625 164.603 48.7701 157.414C47.0002 148.981 43.2272 138.769 39.5137 128.602L55.0722 123.882Z" fill="url(#paint24_linear_8_448)"/>
<path d="M28.6202 159.957C28.7986 159.161 29.0776 157.551 29.448 155.429H29.416C29.6767 152.617 30.1615 139.583 31.0487 131.268C31.7347 125.973 33.0884 122.392 34.4467 120.635L34.6433 120.388C34.8674 120.109 35.0046 119.931 35.0046 119.931C35.2653 120 35.5214 120.059 35.7775 120.114L36.0656 120.178C42.058 121.358 48.2387 121.18 54.1532 119.657C55.0404 121.847 55.7035 126.517 56.3484 131.346C55.3422 132.453 50.9244 133.884 45.8571 134.836L44.412 141.371C43.6528 145.423 42.6741 149.397 41.8463 152.973L40.982 156.893C40.9271 157.153 40.8768 157.405 40.8265 157.657C40.3691 159.911 29.9236 196.214 29.9236 196.214L23.1094 195.816C23.1094 195.816 26.1552 170.7 28.6202 159.957Z" fill="url(#paint25_linear_8_448)"/>
<path opacity="0.2" d="M44.3205 141.984C44.2931 142.116 47.4395 130.674 47.4395 130.674C47.4395 130.674 50.092 140.891 46.0675 147.28L44.3205 141.984Z" fill="black"/>
<path d="M37.5474 90.3554C37.5474 90.3554 39.148 91.5856 41.206 93.36C41.6373 93.7296 42.1082 94.0501 42.61 94.3159C43.982 95.0339 45.194 95.4455 45.5278 94.7961C45.6001 94.65 45.6568 94.4967 45.697 94.3387C45.9806 93.2457 45.8663 91.7136 44.9836 91.0139C43.9912 90.2227 43.511 89.5459 43.6894 88.4757C43.8073 87.8456 43.9991 87.2315 44.261 86.6464L43.479 85.7317L39.3904 81.6157C39.491 84.3414 39.7014 88.8599 37.5474 90.3554Z" fill="#EEC1BB"/>
<path opacity="0.2" d="M43.657 88.7226C42.532 88.0549 41.2972 86.8933 41.4481 85.5716C41.497 85.0867 41.6029 84.6093 41.7637 84.1493L44.0504 87.1768C43.8653 87.6768 43.7335 88.195 43.657 88.7226Z" fill="black"/>
<path d="M38.2329 77.1567C38.6171 81.3596 38.6903 83.1432 40.858 85.343C44.1188 88.6586 49.1403 87.5428 50.0047 83.3764C50.7822 79.6309 50.0047 73.3883 45.8887 71.6184C45.0156 71.2105 44.0493 71.0434 43.0899 71.1344C42.1305 71.2254 41.2129 71.5713 40.4321 72.1361C39.6513 72.701 39.0357 73.4643 38.649 74.347C38.2624 75.2298 38.1187 76.1998 38.2329 77.1567Z" fill="#EEC1BB"/>
<path d="M43.4468 78.483C43.4468 78.8763 43.712 79.1965 43.9864 79.2056C44.2608 79.2148 44.4712 78.8946 44.4438 78.5013C44.4163 78.108 44.1785 77.7833 43.9041 77.7787C43.6297 77.7742 43.4468 78.0897 43.4468 78.483Z" fill="#263238"/>
<path d="M47.819 78.4235C47.819 78.8031 48.0843 79.1187 48.3587 79.1233C48.6331 79.1278 48.8435 78.826 48.816 78.4418C48.7886 78.0577 48.5508 77.7467 48.2764 77.7421C48.002 77.7375 47.8007 78.0394 47.819 78.4235Z" fill="#263238"/>
<path d="M42.7973 76.9738C42.8243 76.9779 42.8519 76.9759 42.878 76.968C42.9041 76.9601 42.9281 76.9465 42.9482 76.9281C43.1283 76.7569 43.3472 76.6321 43.5863 76.5644C43.8253 76.4966 44.0772 76.488 44.3202 76.5393C44.3449 76.5476 44.371 76.5506 44.3968 76.5481C44.4226 76.5455 44.4476 76.5374 44.4701 76.5245C44.4926 76.5115 44.5121 76.4939 44.5273 76.4728C44.5424 76.4517 44.5529 76.4276 44.5581 76.4021C44.5709 76.3476 44.5624 76.2903 44.5344 76.2418C44.5063 76.1934 44.4608 76.1575 44.4071 76.1415C44.0995 76.0658 43.7778 76.068 43.4712 76.1479C43.1646 76.2277 42.8827 76.3827 42.651 76.5988C42.6127 76.6388 42.5913 76.692 42.5913 76.7474C42.5913 76.8028 42.6127 76.8561 42.651 76.8961C42.6688 76.9183 42.691 76.9366 42.7162 76.95C42.7413 76.9633 42.7689 76.9714 42.7973 76.9738Z" fill="#263238"/>
<path d="M49.168 76.7679C49.2067 76.7762 49.2471 76.7726 49.2837 76.7575C49.3204 76.7425 49.3516 76.7167 49.3734 76.6836C49.3952 76.6504 49.4064 76.6115 49.4056 76.5719C49.4049 76.5323 49.3922 76.4938 49.3692 76.4615C49.2 76.1741 48.9675 75.9292 48.6893 75.7453C48.4111 75.5614 48.0946 75.4435 47.764 75.4005C47.7372 75.3992 47.7104 75.4035 47.6854 75.4131C47.6604 75.4228 47.6377 75.4376 47.6188 75.4565C47.5998 75.4755 47.585 75.4982 47.5754 75.5232C47.5657 75.5482 47.5614 75.575 47.5627 75.6017C47.5648 75.6565 47.5869 75.7087 47.6248 75.7483C47.6627 75.7879 47.7139 75.8122 47.7685 75.8167C48.0297 75.8534 48.279 75.9491 48.4977 76.0964C48.7164 76.2438 48.8987 76.439 49.0308 76.6673C49.0622 76.7169 49.1112 76.7529 49.168 76.7679Z" fill="#263238"/>
<path d="M40.0215 79.791C40.0215 79.791 41.3203 77.8336 40.7852 74.0148C40.7352 73.7082 40.8059 73.394 40.9823 73.1383C41.1588 72.8825 41.4274 72.705 41.7319 72.6428C43.5612 72.2907 45.9714 70.004 48.9303 74.5454C48.9303 74.5454 47.5171 69.1031 39.2623 71.2937C31.9129 73.2465 36.9436 79.4754 37.6982 80.1157C38.4528 80.7559 40.0215 79.791 40.0215 79.791Z" fill="#263238"/>
<path d="M36.9573 80.5822C37.4016 81.3611 38.1368 81.9318 39.0016 82.1691C40.1129 82.4481 40.6892 80.6599 40.3096 79.544C40.1304 79.0425 39.7781 78.6215 39.3162 78.3566C38.8543 78.0917 38.313 78.0003 37.7897 78.0988C36.7241 78.3138 36.3902 79.576 36.9573 80.5822Z" fill="#EEC1BB"/>
<path d="M46.7625 82.5258C46.4743 83.0239 46.2221 83.542 46.0079 84.0761L45.7107 84.0075C44.3753 83.6966 43.8813 83.0929 43.6893 82.5532C43.5781 82.1195 43.6201 81.6607 43.8082 81.2544C44.421 81.8444 45.6375 82.2331 46.3052 82.4114C46.5842 82.4938 46.7625 82.5258 46.7625 82.5258Z" fill="#263238"/>
<path d="M46.305 82.4115L46.0718 82.8688C44.8141 82.5716 43.968 82.192 43.6616 81.7164C43.6893 81.558 43.7385 81.4041 43.808 81.259C44.4208 81.8627 45.6464 82.2332 46.305 82.4115Z" fill="white"/>
<path d="M45.7333 84.0075C44.3979 83.6966 43.904 83.0929 43.7119 82.5532C44.2191 82.6797 44.6994 82.8966 45.1296 83.1935C45.4119 83.3942 45.6233 83.6792 45.7333 84.0075Z" fill="#DC5753"/>
<path d="M46.6938 78.3046C47.0703 79.2021 47.5376 80.0588 48.0887 80.8611C48.1188 80.9013 48.139 80.9482 48.1477 80.9977C48.1563 81.0473 48.1532 81.0982 48.1385 81.1463C48.1238 81.1944 48.0979 81.2383 48.0631 81.2746C48.0282 81.3109 47.9853 81.3384 47.9378 81.355C47.57 81.459 47.1806 81.459 46.8128 81.355L46.6938 78.3046Z" fill="#D4827D"/>
<path d="M43.8403 77.7696L44.8053 77.5409C44.8053 77.5409 44.2794 78.2635 43.8403 77.7696Z" fill="#263238"/>
<path d="M48.1802 77.7467L49.1451 77.5181C49.1451 77.5181 48.6192 78.2452 48.1802 77.7467Z" fill="#263238"/>
<path d="M49.6622 76.3289C49.6622 76.3289 52.2095 73.3151 50.5128 70.8409C49.8726 69.9263 48.6835 69.7662 47.6682 69.3134C45.2809 68.2616 43.3464 68.0466 40.3006 71.033C37.1312 74.1383 36.5596 75.181 40.0536 79.0089C40.0536 79.0089 39.6786 78.5104 40.9683 77.3717C42.258 76.2329 43.7123 75.2176 42.9943 74.1154C43.2944 74.2343 43.5585 74.4292 43.7605 74.681C43.9626 74.9327 44.0957 75.2327 44.1467 75.5515L46.0355 75.0347C45.9518 74.5115 45.7535 74.0134 45.4547 73.5758C46.0158 73.9133 46.4657 74.4078 46.749 74.9981L48.3862 75.3045C48.3862 75.3045 48.1438 73.8045 47.6819 73.2694C47.6819 73.2648 49.182 74.8014 49.6622 76.3289Z" fill="#263238"/>
<path opacity="0.2" d="M39.4543 80.573C39.4273 80.5762 39.4001 80.5697 39.3774 80.5546C39.3548 80.5395 39.3383 80.5168 39.3309 80.4907C39.3003 80.1203 39.138 79.7731 38.8735 79.512C38.602 79.2545 38.2459 79.1049 37.872 79.0912C37.842 79.0889 37.8141 79.0754 37.7937 79.0533C37.7734 79.0313 37.7621 79.0023 37.7622 78.9723C37.7622 78.9571 37.7653 78.942 37.7713 78.9281C37.7774 78.9141 37.7863 78.9016 37.7975 78.8913C37.8087 78.881 37.8219 78.8731 37.8363 78.8681C37.8507 78.8632 37.866 78.8613 37.8811 78.8626C38.3112 78.8778 38.7207 79.0499 39.0325 79.3465C39.3443 79.6431 39.5366 80.0436 39.5732 80.4724C39.5758 80.502 39.5668 80.5315 39.548 80.5545C39.5292 80.5776 39.5022 80.5924 39.4726 80.5959L39.4543 80.573Z" fill="black"/>
<path d="M54.4592 100.728L55.7947 105.475C56.252 107.062 56.6727 108.644 57.1346 110.204C57.3633 110.986 57.592 111.754 57.8435 112.49C57.9624 112.861 58.0813 113.231 58.2048 113.57L58.3877 114.027L58.4655 114.201C58.4789 114.225 58.4896 114.251 58.4975 114.278C58.4563 114.278 58.5798 114.521 58.7582 114.708C58.9656 114.926 59.1904 115.126 59.4305 115.307C59.9427 115.733 60.5738 116.176 61.15 116.606L60.6653 118.934C59.8052 118.969 58.9451 118.866 58.1179 118.628C57.659 118.497 57.2169 118.313 56.8008 118.079C56.2436 117.782 55.7556 117.371 55.3693 116.872C55.2654 116.726 55.1722 116.573 55.0904 116.414L54.8891 116.044C54.7748 115.82 54.6742 115.586 54.5827 115.385C54.3906 114.955 54.226 114.553 54.0385 114.141C53.7275 113.336 53.4394 112.531 53.165 111.731C52.6208 110.13 52.0811 108.53 51.6283 106.906C51.1756 105.283 50.7137 103.705 50.2563 102.077L54.4592 100.728Z" fill="#EEC1BB"/>
<path d="M51.2216 92.9302C53.4302 95.383 55.0147 98.3324 55.8406 101.528L47.9288 103.421C47.9288 103.421 45.7336 97.6499 46.6482 95.537C47.5629 93.3326 48.9852 91.2152 51.2216 92.9302Z" fill="#263238"/>
<g opacity="0.3">
<path d="M51.7245 96.6848C52.1041 97.3438 52.3962 98.0495 52.5934 98.784C52.8614 99.878 53.0313 100.994 53.101 102.118L51.5781 102.552C51.6787 100.517 51.6787 98.7199 51.7245 96.6848Z" fill="black"/>
</g>
<path d="M31.8397 102.74L29.3335 94.2107C30.9159 91.8463 38.7546 90.0306 38.7546 90.0306L42.7699 91.4392L43.9041 90.3096C43.9041 90.3096 45.8844 90.7669 47.5628 91.3066C49.8495 92.0429 51.0568 92.6374 51.5965 93.8951C51.5965 93.8951 52.5432 96.6848 51.9761 102.429C51.8206 104.011 51.9761 112.225 52.4334 114.937L55.1042 123.393C45.6694 130.742 32.4662 123.882 32.4662 123.882C32.8915 122.584 34.2956 118.6 34.4968 117.333C34.3596 115.714 34.5517 113.217 33.8657 110.391C33.7742 109.842 32.0684 103.27 31.8397 102.74Z" fill="#263238"/>
<path opacity="0.3" d="M32.6306 105.086C32.6306 105.086 36.2481 100.513 35.6307 98.6331L31.9126 102.118L32.6306 105.086Z" fill="black"/>
<path d="M30.4496 93.3601C28.4693 94.0232 26.4937 100.289 26.4937 100.289L32.3155 104.13C32.3155 104.13 35.7272 99.0676 35.1098 96.4516C34.5839 94.2427 32.9649 92.5094 30.4496 93.3601Z" fill="#263238"/>
<path d="M31.9401 103.883C31.9401 103.883 28.3546 111.589 28.4232 111.891C28.6473 112.993 40.131 112.248 40.131 112.248L40.4054 115.33C36.9733 116.368 33.4235 116.966 29.841 117.109C24.3118 117.219 21.7919 114.32 23.1273 110.867C24.5588 107.208 27.161 100.728 27.161 100.728L31.9401 103.883Z" fill="#EEC1BB"/>
<path opacity="0.3" d="M28.4234 111.891C27.6313 111.779 26.8247 111.94 26.1367 112.349C26.1367 112.349 26.2511 111.841 27.1886 111.493C27.6535 111.36 28.1373 111.306 28.62 111.333L28.4234 111.891Z" fill="black"/>
<path d="M39.2074 111.69C39.2074 111.69 42.9118 112.568 43.2639 113.3C43.6161 114.032 42.459 113.986 42.459 113.986C42.459 113.986 43.7258 114.109 43.7487 114.653C43.7487 115.307 42.5642 115.262 42.5642 115.262C42.5642 115.262 43.5932 115.403 43.5795 115.888C43.5658 116.373 42.2075 116.437 42.2075 116.437C42.2075 116.437 42.9163 116.675 42.7151 117.009C42.5139 117.343 39.6098 117.466 38.7455 116.958C37.8811 116.451 37.8308 112.696 37.9817 111.877C38.1326 111.059 38.2058 110.62 39.2119 109.367V111.69H39.2074Z" fill="#EEC1BB"/>
<path opacity="0.2" d="M42.4589 114.05L40.2591 113.73C40.2438 113.726 40.2302 113.718 40.2209 113.705C40.2116 113.692 40.2073 113.677 40.2088 113.661C40.2093 113.653 40.2114 113.646 40.215 113.639C40.2186 113.632 40.2236 113.626 40.2296 113.622C40.2357 113.617 40.2426 113.614 40.2501 113.612C40.2575 113.61 40.2652 113.609 40.2728 113.611L42.4726 113.926C42.4871 113.931 42.4996 113.94 42.508 113.952C42.5163 113.965 42.52 113.98 42.5183 113.995C42.5172 114.01 42.5104 114.024 42.4994 114.034C42.4883 114.044 42.4739 114.05 42.4589 114.05Z" fill="black"/>
<path opacity="0.2" d="M42.5002 115.321L40.3599 115.184C40.3324 115.184 40.3096 115.152 40.3096 115.12C40.3096 115.104 40.3158 115.089 40.327 115.078C40.3381 115.067 40.3533 115.061 40.369 115.061L42.5048 115.198C42.5197 115.2 42.5333 115.208 42.5426 115.22C42.552 115.232 42.5564 115.247 42.5551 115.262C42.5557 115.269 42.5548 115.277 42.5523 115.284C42.5498 115.291 42.5459 115.298 42.5407 115.304C42.5356 115.309 42.5293 115.314 42.5223 115.317C42.5153 115.32 42.5078 115.321 42.5002 115.321Z" fill="black"/>
<path opacity="0.2" d="M42.1251 116.496L40.5336 116.442C40.5258 116.441 40.5181 116.439 40.5112 116.435C40.5042 116.432 40.4979 116.427 40.4928 116.421C40.4877 116.415 40.4839 116.408 40.4814 116.401C40.479 116.393 40.4781 116.385 40.4787 116.378C40.4798 116.362 40.4864 116.348 40.4973 116.337C40.5082 116.326 40.5227 116.319 40.5382 116.318L42.1297 116.373C42.1442 116.376 42.1571 116.384 42.1663 116.396C42.1755 116.408 42.1803 116.422 42.18 116.437C42.1806 116.445 42.1797 116.452 42.1772 116.459C42.1747 116.467 42.1708 116.473 42.1656 116.479C42.1605 116.484 42.1542 116.489 42.1472 116.492C42.1402 116.495 42.1327 116.497 42.1251 116.496Z" fill="black"/>
<path d="M60.4961 111.932C60.6402 110.21 61.371 108.589 62.5662 107.341C63.7615 106.092 65.3489 105.291 67.0634 105.072L66.3408 106.28L67.7128 105.461L61.3879 113.419L60.4961 111.932Z" fill="url(#paint26_linear_8_448)"/>
<path opacity="0.8" d="M60.4961 111.932C60.6402 110.21 61.371 108.589 62.5662 107.341C63.7615 106.092 65.3489 105.291 67.0634 105.072L66.3408 106.28L67.7128 105.461L61.3879 113.419L60.4961 111.932Z" fill="white"/>
<path d="M50.5721 105.415L52.749 105.347L63.1716 108.882L53.6728 123.393L44.3249 121.061C44.1977 121.026 44.0787 120.966 43.9746 120.885C43.8706 120.804 43.7836 120.703 43.7186 120.589C43.6535 120.474 43.6118 120.348 43.5958 120.217C43.5798 120.086 43.5898 119.953 43.6252 119.826C43.6477 119.748 43.6799 119.672 43.7212 119.602L47.4942 112.774C47.5343 112.704 47.5555 112.626 47.5555 112.545C47.5555 112.465 47.5343 112.386 47.4942 112.317L46.982 111.402C46.9303 111.31 46.9032 111.206 46.9032 111.1C46.9032 110.994 46.9303 110.89 46.982 110.798L49.5156 106.101C49.618 105.906 49.769 105.74 49.954 105.62C50.1391 105.5 50.3519 105.429 50.5721 105.415Z" fill="url(#paint27_linear_8_448)"/>
<path d="M63.1717 108.882L69.1079 105.072L59.3484 119.57L53.6729 123.393L63.1717 108.882Z" fill="url(#paint28_linear_8_448)"/>
<path opacity="0.2" d="M63.1717 108.882L69.1079 105.072L59.3484 119.57L53.6729 123.393L63.1717 108.882Z" fill="black"/>
<path d="M62.0053 115.628C62.0053 115.628 59.7187 115.019 59.1927 115.417C58.6668 115.815 59.3802 116.19 59.3802 116.19C59.3802 116.19 58.5845 115.829 58.3512 116.213C58.0631 116.67 58.8086 117.059 58.8086 117.059C58.8086 117.059 58.1454 116.798 57.9534 117.15C57.7613 117.503 58.5388 118.024 58.5388 118.024C58.5388 118.024 58.0265 117.946 58.0082 118.253C57.99 118.559 59.6272 119.684 60.3544 119.625C61.0815 119.565 62.641 116.913 62.8971 116.277C63.1532 115.641 63.1167 115.143 62.6502 114.704L62.0191 115.646L62.0053 115.628Z" fill="#EEC1BB"/>
<path opacity="0.2" d="M59.3574 116.231L60.7751 116.776C60.7877 116.777 60.8006 116.775 60.8114 116.768C60.8223 116.761 60.8305 116.751 60.8346 116.739C60.8417 116.731 60.8456 116.72 60.8456 116.709C60.8456 116.698 60.8417 116.688 60.8346 116.68L59.4168 116.14C59.4111 116.138 59.4051 116.137 59.399 116.137C59.393 116.138 59.3871 116.14 59.3819 116.143C59.3766 116.146 59.3721 116.15 59.3687 116.155C59.3652 116.16 59.3629 116.166 59.362 116.172C59.357 116.175 59.3528 116.179 59.3497 116.184C59.3466 116.189 59.3448 116.195 59.3443 116.2C59.3439 116.206 59.3448 116.212 59.3471 116.217C59.3494 116.223 59.3529 116.228 59.3574 116.231Z" fill="black"/>
<path opacity="0.2" d="M58.8086 117.123L60.1211 117.772C60.1211 117.772 60.1623 117.772 60.176 117.745C60.18 117.741 60.1832 117.737 60.1854 117.731C60.1876 117.726 60.1887 117.721 60.1887 117.715C60.1887 117.71 60.1876 117.704 60.1854 117.699C60.1832 117.694 60.18 117.689 60.176 117.686L58.8635 117.036C58.8635 117.036 58.8223 117.036 58.8086 117.064C58.8046 117.067 58.8014 117.072 58.7992 117.077C58.797 117.082 58.7959 117.088 58.7959 117.093C58.7959 117.099 58.797 117.104 58.7992 117.109C58.8014 117.115 58.8046 117.119 58.8086 117.123Z" fill="black"/>
<path opacity="0.2" d="M58.539 118.093L59.4948 118.609C59.5064 118.613 59.5187 118.612 59.5296 118.607C59.5405 118.602 59.5493 118.593 59.5543 118.582C59.5583 118.578 59.5615 118.574 59.5636 118.568C59.5658 118.563 59.5669 118.558 59.5669 118.552C59.5669 118.547 59.5658 118.541 59.5636 118.536C59.5615 118.531 59.5583 118.526 59.5543 118.523L58.5939 117.992C58.5939 117.992 58.5481 117.992 58.5344 118.015C58.5207 118.038 58.539 118.084 58.539 118.093Z" fill="black"/>
<path d="M38.5852 103.431H44.0503V100.732H38.5852V103.431Z" fill="url(#paint29_linear_8_448)"/>
<path d="M42.1436 102.081C42.1436 102.205 42.1803 102.326 42.2492 102.429C42.318 102.533 42.4159 102.613 42.5303 102.66C42.6448 102.708 42.7708 102.72 42.8924 102.696C43.0139 102.672 43.1255 102.612 43.2132 102.524C43.3008 102.437 43.3605 102.325 43.3846 102.204C43.4088 102.082 43.3964 101.956 43.349 101.842C43.3015 101.727 43.2212 101.629 43.1182 101.56C43.0152 101.492 42.894 101.455 42.7701 101.455C42.6877 101.454 42.6059 101.47 42.5296 101.501C42.4533 101.533 42.384 101.579 42.3257 101.637C42.2674 101.695 42.2213 101.765 42.19 101.841C42.1588 101.917 42.143 101.999 42.1436 102.081Z" fill="white"/>
<path d="M39.3261 102.305H41.4893V101.848H39.3261V102.305Z" fill="white"/>
<path d="M45.3949 90.671L43.657 88.9834L42.7698 91.4347L38.9007 88.3523L36.9434 90.5018L42.2393 95.1208L46.4193 96.6849L47.1785 93.4058L45.3949 90.671Z" fill="#263238"/>
<path opacity="0.3" d="M45.3949 90.6709C45.5184 90.8584 45.3949 93.7076 45.3949 93.7076L42.7698 91.7411L41.8002 93.886L37.1309 90.6846L41.91 94.8464L42.7698 92.3173L45.6967 94.8464L45.3949 90.6709Z" fill="black"/>
<path d="M38.5212 82.8642C38.9658 82.8642 39.3261 82.5038 39.3261 82.0593C39.3261 81.6148 38.9658 81.2544 38.5212 81.2544C38.0767 81.2544 37.7163 81.6148 37.7163 82.0593C37.7163 82.5038 38.0767 82.8642 38.5212 82.8642Z" fill="url(#paint30_linear_8_448)"/>
</g>
<defs>
<linearGradient id="paint0_linear_8_448" x1="115.276" y1="68.8972" x2="115.276" y2="99.7581" gradientUnits="userSpaceOnUse">
<stop stop-color="#2241BC"/>
<stop offset="1" stop-color="#101E56"/>
</linearGradient>
<linearGradient id="paint1_linear_8_448" x1="64.5917" y1="63.5319" x2="64.5917" y2="82.5912" gradientUnits="userSpaceOnUse">
<stop stop-color="#2241BC"/>
<stop offset="1" stop-color="#101E56"/>
</linearGradient>
<linearGradient id="paint2_linear_8_448" x1="72.482" y1="63.4849" x2="72.482" y2="71.0331" gradientUnits="userSpaceOnUse">
<stop stop-color="#2241BC"/>
<stop offset="1" stop-color="#101E56"/>
</linearGradient>
<linearGradient id="paint3_linear_8_448" x1="75.1437" y1="72.2111" x2="75.1437" y2="73.8593" gradientUnits="userSpaceOnUse">
<stop stop-color="#2241BC"/>
<stop offset="1" stop-color="#101E56"/>
</linearGradient>
<linearGradient id="paint4_linear_8_448" x1="198.473" y1="86.8622" x2="198.473" y2="184.738" gradientUnits="userSpaceOnUse">
<stop stop-color="#2241BC"/>
<stop offset="1" stop-color="#101E56"/>
</linearGradient>
<linearGradient id="paint5_linear_8_448" x1="206.829" y1="92.483" x2="206.829" y2="128.817" gradientUnits="userSpaceOnUse">
<stop stop-color="#2241BC"/>
<stop offset="1" stop-color="#101E56"/>
</linearGradient>
<linearGradient id="paint6_linear_8_448" x1="302.576" y1="97.0736" x2="302.576" y2="115.125" gradientUnits="userSpaceOnUse">
<stop stop-color="#2241BC"/>
<stop offset="1" stop-color="#101E56"/>
</linearGradient>
<linearGradient id="paint7_linear_8_448" x1="160.755" y1="91.8143" x2="160.755" y2="120.995" gradientUnits="userSpaceOnUse">
<stop stop-color="#2241BC"/>
<stop offset="1" stop-color="#101E56"/>
</linearGradient>
<linearGradient id="paint8_linear_8_448" x1="157.359" y1="116.208" x2="157.359" y2="126.046" gradientUnits="userSpaceOnUse">
<stop stop-color="#2241BC"/>
<stop offset="1" stop-color="#101E56"/>
</linearGradient>
<linearGradient id="paint9_linear_8_448" x1="246.328" y1="85.4779" x2="246.328" y2="87.1952" gradientUnits="userSpaceOnUse">
<stop stop-color="#2241BC"/>
<stop offset="1" stop-color="#101E56"/>
</linearGradient>
<linearGradient id="paint10_linear_8_448" x1="257.092" y1="87.0381" x2="257.092" y2="87.6528" gradientUnits="userSpaceOnUse">
<stop stop-color="#2241BC"/>
<stop offset="1" stop-color="#101E56"/>
</linearGradient>
<linearGradient id="paint11_linear_8_448" x1="116.764" y1="174.596" x2="116.764" y2="207.78" gradientUnits="userSpaceOnUse">
<stop stop-color="#2241BC"/>
<stop offset="1" stop-color="#101E56"/>
</linearGradient>
<linearGradient id="paint12_linear_8_448" x1="207.828" y1="174.596" x2="207.828" y2="207.78" gradientUnits="userSpaceOnUse">
<stop stop-color="#2241BC"/>
<stop offset="1" stop-color="#101E56"/>
</linearGradient>
<linearGradient id="paint13_linear_8_448" x1="288.109" y1="173.54" x2="288.109" y2="206.724" gradientUnits="userSpaceOnUse">
<stop stop-color="#2241BC"/>
<stop offset="1" stop-color="#101E56"/>
</linearGradient>
<linearGradient id="paint14_linear_8_448" x1="29.8293" y1="199.23" x2="29.8293" y2="200.245" gradientUnits="userSpaceOnUse">
<stop stop-color="#2241BC"/>
<stop offset="1" stop-color="#101E56"/>
</linearGradient>
<linearGradient id="paint15_linear_8_448" x1="29.372" y1="198.253" x2="29.372" y2="200.079" gradientUnits="userSpaceOnUse">
<stop stop-color="#2241BC"/>
<stop offset="1" stop-color="#101E56"/>
</linearGradient>
<linearGradient id="paint16_linear_8_448" x1="28.17" y1="199.914" x2="28.17" y2="200.911" gradientUnits="userSpaceOnUse">
<stop stop-color="#2241BC"/>
<stop offset="1" stop-color="#101E56"/>
</linearGradient>
<linearGradient id="paint17_linear_8_448" x1="29.0582" y1="200.581" x2="29.0582" y2="201.579" gradientUnits="userSpaceOnUse">
<stop stop-color="#2241BC"/>
<stop offset="1" stop-color="#101E56"/>
</linearGradient>
<linearGradient id="paint18_linear_8_448" x1="30.1641" y1="201.148" x2="30.1641" y2="202.146" gradientUnits="userSpaceOnUse">
<stop stop-color="#2241BC"/>
<stop offset="1" stop-color="#101E56"/>
</linearGradient>
<linearGradient id="paint19_linear_8_448" x1="53.1394" y1="199.23" x2="53.1394" y2="200.245" gradientUnits="userSpaceOnUse">
<stop stop-color="#2241BC"/>
<stop offset="1" stop-color="#101E56"/>
</linearGradient>
<linearGradient id="paint20_linear_8_448" x1="52.6864" y1="198.253" x2="52.6864" y2="200.079" gradientUnits="userSpaceOnUse">
<stop stop-color="#2241BC"/>
<stop offset="1" stop-color="#101E56"/>
</linearGradient>
<linearGradient id="paint21_linear_8_448" x1="51.4805" y1="199.914" x2="51.4805" y2="200.911" gradientUnits="userSpaceOnUse">
<stop stop-color="#2241BC"/>
<stop offset="1" stop-color="#101E56"/>
</linearGradient>
<linearGradient id="paint22_linear_8_448" x1="52.3683" y1="200.581" x2="52.3683" y2="201.579" gradientUnits="userSpaceOnUse">
<stop stop-color="#2241BC"/>
<stop offset="1" stop-color="#101E56"/>
</linearGradient>
<linearGradient id="paint23_linear_8_448" x1="53.4742" y1="201.148" x2="53.4742" y2="202.146" gradientUnits="userSpaceOnUse">
<stop stop-color="#2241BC"/>
<stop offset="1" stop-color="#101E56"/>
</linearGradient>
<linearGradient id="paint24_linear_8_448" x1="49.9247" y1="123.882" x2="49.9247" y2="196.05" gradientUnits="userSpaceOnUse">
<stop stop-color="#2241BC"/>
<stop offset="1" stop-color="#101E56"/>
</linearGradient>
<linearGradient id="paint25_linear_8_448" x1="39.7289" y1="119.657" x2="39.7289" y2="196.214" gradientUnits="userSpaceOnUse">
<stop stop-color="#2241BC"/>
<stop offset="1" stop-color="#101E56"/>
</linearGradient>
<linearGradient id="paint26_linear_8_448" x1="64.1045" y1="105.072" x2="64.1045" y2="113.419" gradientUnits="userSpaceOnUse">
<stop stop-color="#2241BC"/>
<stop offset="1" stop-color="#101E56"/>
</linearGradient>
<linearGradient id="paint27_linear_8_448" x1="53.38" y1="105.347" x2="53.38" y2="123.393" gradientUnits="userSpaceOnUse">
<stop stop-color="#2241BC"/>
<stop offset="1" stop-color="#101E56"/>
</linearGradient>
<linearGradient id="paint28_linear_8_448" x1="61.3904" y1="105.072" x2="61.3904" y2="123.393" gradientUnits="userSpaceOnUse">
<stop stop-color="#2241BC"/>
<stop offset="1" stop-color="#101E56"/>
</linearGradient>
<linearGradient id="paint29_linear_8_448" x1="41.3177" y1="103.431" x2="41.3177" y2="100.732" gradientUnits="userSpaceOnUse">
<stop stop-color="#2241BC"/>
<stop offset="1" stop-color="#101E56"/>
</linearGradient>
<linearGradient id="paint30_linear_8_448" x1="38.5212" y1="81.2544" x2="38.5212" y2="82.8642" gradientUnits="userSpaceOnUse">
<stop stop-color="#2241BC"/>
<stop offset="1" stop-color="#101E56"/>
</linearGradient>
<clipPath id="clip0_8_448">
<rect width="343" height="237" fill="white"/>
</clipPath>
</defs>
</svg>
