<svg width="187" height="185" viewBox="0 0 187 185" fill="none" xmlns="http://www.w3.org/2000/svg">
<path d="M181.464 46.7763L186.958 43.9377C185.906 41.8909 184.771 39.8492 183.578 37.8752L178.287 41.068C179.401 42.9273 180.474 44.8492 181.464 46.7763Z" fill="white"/>
<path d="M174.417 35.1305L179.474 31.5628C174.885 25.0576 169.641 19.1461 163.729 13.8232C157.812 8.50028 151.385 3.89612 144.443 0.0211182L141.438 5.43258C147.979 9.08362 154.031 13.417 159.594 18.4274C165.161 23.4378 170.099 29.0055 174.417 35.1305Z" fill="white"/>
<path d="M5.49479 137.427L0 140.261C1.05208 142.308 2.19271 144.349 3.38021 146.328L8.67708 143.13C7.55729 141.271 6.48438 139.354 5.49479 137.427Z" fill="white"/>
<path d="M12.5417 149.073L7.48438 152.636C12.0729 159.141 17.3229 165.058 23.2344 170.381C29.1458 175.703 35.5729 180.302 42.5156 184.177L45.5208 178.766C38.9844 175.115 32.9323 170.787 27.3646 165.776C21.7969 160.761 16.8594 155.193 12.5417 149.073Z" fill="white"/>
<path d="M93.4793 0.000308401C91.2241 0.000308401 88.9689 0.0836417 86.7137 0.250308C84.4637 0.416975 82.2189 0.666975 79.9846 0.9951C77.7502 1.32843 75.5314 1.73989 73.3283 2.23989C71.1252 2.73468 68.9429 3.3076 66.7814 3.96385C64.62 4.6201 62.4898 5.35968 60.3804 6.17218C58.2762 6.98468 56.1981 7.87531 54.1616 8.84406C52.12 9.8076 50.1148 10.8493 48.1512 11.9639C46.1825 13.0784 44.2658 14.2659 42.3856 15.5211C40.5106 16.7764 38.6773 18.0993 36.9012 19.4951C35.12 20.8857 33.3908 22.3389 31.7189 23.8597C30.047 25.3753 28.4325 26.9534 26.8752 28.5941C25.3179 30.2295 23.8231 31.9222 22.3908 33.6722C20.9585 35.4222 19.5887 37.2191 18.2918 39.068C16.9898 40.917 15.7606 42.8128 14.5991 44.7503C13.4377 46.693 12.3491 48.6722 11.3335 50.693C10.3179 52.7086 9.38038 54.7659 8.5158 56.8545C7.65122 58.943 6.86476 61.0628 6.15642 63.2086C5.44809 65.3597 4.81788 67.5264 4.27101 69.7243C3.71892 71.917 3.25538 74.1253 2.86996 76.3545C2.47934 78.5836 2.17725 80.8232 1.95851 83.0732C1.73455 85.3232 1.59913 87.5784 1.54184 89.8389C1.48455 92.0993 1.5158 94.3597 1.62517 96.6201C1.73455 98.8805 1.92726 101.131 2.2033 103.375C2.47934 105.62 2.83871 107.849 3.28142 110.068C3.71892 112.287 4.24496 114.485 4.84392 116.667C5.44809 118.844 6.13038 121 6.8908 123.131C7.65122 125.256 8.48976 127.354 9.40121 129.422C10.3179 131.49 11.3075 133.521 12.3752 135.516C13.4377 137.511 14.5731 139.464 15.7814 141.375C16.9898 143.287 18.2658 145.146 19.6095 146.964C20.9585 148.782 22.3648 150.547 23.8439 152.256C25.3179 153.969 26.8543 155.625 28.4481 157.224C29.5158 158.292 30.6043 159.328 31.7189 160.344C32.8335 161.354 33.9741 162.339 35.1356 163.297C36.3023 164.25 37.4845 165.177 38.6981 166.078C39.9064 166.974 41.1356 167.844 42.3856 168.677C43.6356 169.516 44.9064 170.323 46.1981 171.099C47.4898 171.87 48.8023 172.615 50.1252 173.328C51.4533 174.037 52.7971 174.714 54.1616 175.36C55.521 176 56.896 176.615 58.2866 177.188C59.6773 177.766 61.0783 178.308 62.495 178.818C63.9168 179.323 65.3439 179.797 66.7814 180.235C68.2241 180.672 69.6721 181.073 71.1356 181.443C72.5939 181.808 74.0627 182.136 75.5366 182.433C77.0158 182.724 78.495 182.985 79.9846 183.203C81.4741 183.427 82.9689 183.61 84.4637 183.756C85.9637 183.907 87.4637 184.016 88.9689 184.089C90.4689 184.162 91.9741 184.203 93.4793 184.203C94.9846 184.203 96.4898 184.162 97.995 184.089C99.495 184.016 100.995 183.907 102.495 183.756C103.99 183.61 105.485 183.427 106.974 183.203C108.464 182.985 109.943 182.724 111.422 182.433C112.896 182.136 114.365 181.808 115.828 181.443C117.287 181.073 118.735 180.672 120.177 180.235C121.615 179.797 123.047 179.323 124.464 178.818C125.88 178.308 127.281 177.766 128.672 177.188C130.063 176.615 131.438 176 132.802 175.36C134.162 174.714 135.505 174.037 136.834 173.323C138.162 172.615 139.469 171.87 140.761 171.099C142.052 170.323 143.323 169.516 144.573 168.677C145.823 167.844 147.057 166.974 148.266 166.078C149.474 165.177 150.662 164.25 151.823 163.297C152.985 162.339 154.125 161.354 155.24 160.344C156.354 159.328 157.448 158.292 158.511 157.224C159.573 156.162 160.61 155.068 161.62 153.953C162.636 152.834 163.615 151.693 164.573 150.526C165.526 149.365 166.453 148.177 167.349 146.964C168.245 145.756 169.11 144.521 169.948 143.271C170.781 142.016 171.589 140.74 172.36 139.448C173.136 138.157 173.875 136.844 174.589 135.516C175.297 134.188 175.974 132.839 176.615 131.479C177.261 130.115 177.87 128.74 178.448 127.344C179.021 125.953 179.563 124.547 180.068 123.131C180.578 121.709 181.047 120.276 181.485 118.834C181.922 117.391 182.323 115.943 182.688 114.479C183.057 113.016 183.386 111.547 183.677 110.068C183.974 108.589 184.229 107.104 184.453 105.615C184.672 104.125 184.854 102.625 185.005 101.125C185.151 99.6253 185.261 98.1253 185.333 96.6201C185.412 95.1149 185.448 93.6097 185.448 92.0993C185.448 90.5941 185.412 89.0889 185.333 87.5836C185.261 86.0732 185.151 84.5732 185.005 83.0732C184.854 81.5732 184.672 80.0784 184.453 78.5889C184.229 77.0941 183.974 75.6097 183.677 74.1305C183.386 72.6566 183.057 71.1826 182.688 69.7243C182.323 68.2607 181.922 66.8076 181.485 65.3649C181.047 63.9222 180.578 62.4899 180.068 61.0732C179.563 59.6514 179.021 58.2451 178.448 56.8545C177.87 55.4639 177.261 54.0836 176.615 52.7243C175.974 51.3597 175.297 50.0159 174.589 48.6826C173.875 47.3545 173.136 46.042 172.36 44.7503C171.589 43.4586 170.781 42.1878 169.948 40.9326C169.11 39.6774 168.245 38.4482 167.349 37.2347C166.453 36.0264 165.526 34.8389 164.573 33.6722C163.615 32.5055 162.636 31.3649 161.62 30.2503C160.61 29.1305 159.573 28.042 158.511 26.9743C154.25 22.6878 149.61 18.8545 144.594 15.4899C139.573 12.1201 134.276 9.28156 128.693 6.96385C123.11 4.65135 117.36 2.90656 111.432 1.73468C105.505 0.562809 99.521 -0.0153169 93.4793 0.000308401ZM93.4793 174.334C48.2033 174.334 11.3648 137.443 11.3648 92.0993C11.3648 46.7555 48.2033 9.8701 93.4793 9.8701C138.755 9.8701 175.594 46.7555 175.594 92.0993C175.594 137.443 138.755 174.334 93.4793 174.334Z" fill="white"/>
<path d="M83.625 92.0992C83.625 92.7502 83.6875 93.3909 83.8177 94.0263C83.9427 94.6617 84.1302 95.2763 84.375 95.8752C84.625 96.4742 84.9271 97.0419 85.2865 97.5836C85.6458 98.12 86.0573 98.62 86.5104 99.0784C86.9688 99.5367 87.4687 99.943 88.0052 100.308C88.5417 100.667 89.1094 100.969 89.7083 101.219C90.3073 101.464 90.9219 101.651 91.5573 101.776C92.1927 101.906 92.8333 101.969 93.4792 101.969C94.125 101.969 94.7656 101.906 95.401 101.776C96.0365 101.651 96.651 101.464 97.25 101.219C97.849 100.969 98.4167 100.667 98.9531 100.308C99.4896 99.943 99.9896 99.5367 100.448 99.0784C100.906 98.62 101.312 98.12 101.672 97.5836C102.031 97.0419 102.333 96.4742 102.583 95.8752C102.833 95.2763 103.016 94.6617 103.146 94.0263C103.271 93.3909 103.333 92.7502 103.333 92.0992C103.333 91.4534 103.271 90.8127 103.146 90.1773C103.016 89.5419 102.833 88.9221 102.583 88.3232C102.333 87.7242 102.031 87.1565 101.672 86.62C101.312 86.0784 100.906 85.5784 100.448 85.12C99.9896 84.6669 99.4896 84.2555 98.9531 83.8961C98.4167 83.5367 97.849 83.2294 97.25 82.9846C96.651 82.7346 96.0365 82.5471 95.401 82.4221C94.7656 82.2971 94.125 82.2346 93.4792 82.2346C92.8333 82.2346 92.1927 82.2971 91.5573 82.4221C90.9219 82.5523 90.3073 82.7398 89.7083 82.9846C89.1146 83.2346 88.5469 83.5367 88.0104 83.9013C87.4688 84.2607 86.974 84.6669 86.5156 85.1252C86.0573 85.5836 85.651 86.0836 85.2917 86.62C84.9323 87.1617 84.625 87.7294 84.3802 88.3284C84.1302 88.9221 83.9427 89.5419 83.8177 90.1773C83.6927 90.8127 83.625 91.4534 83.625 92.0992ZM96.7656 95.3909H90.1927V88.8127H96.7656V95.3909Z" fill="white"/>
<path d="M18.1407 86.516C18.0052 88.3597 17.9375 90.2243 17.9375 92.0993C17.9323 97.2868 18.4584 102.422 19.5105 107.506L47.5886 103.99C48.6875 103.849 49.7969 103.771 50.9063 103.745C52.0157 103.719 53.125 103.75 54.2344 103.839C55.3438 103.927 56.4427 104.073 57.5365 104.276C58.6302 104.474 59.7084 104.735 60.7761 105.047C61.8438 105.354 62.8907 105.724 63.9219 106.141C64.948 106.558 65.9584 107.032 66.9375 107.552C67.9167 108.073 68.8698 108.646 69.7969 109.261C70.7188 109.881 71.6094 110.547 72.4636 111.256C73.3178 111.969 74.1355 112.719 74.9167 113.511C75.6928 114.308 76.4323 115.136 77.125 116.006C77.823 116.875 78.4688 117.776 79.073 118.714C79.6719 119.646 80.2292 120.61 80.7292 121.604C81.2344 122.594 81.6875 123.61 82.0886 124.651C82.4896 125.688 82.8334 126.745 83.1302 127.818C83.4219 128.891 83.6563 129.974 83.8386 131.073C84.0209 132.172 84.1511 133.276 84.2188 134.386L86.2813 167.407C88.6511 167.636 91.0521 167.756 93.4792 167.756C95.9063 167.756 98.3073 167.636 100.677 167.407L102.74 134.391C102.807 133.276 102.938 132.172 103.12 131.073C103.302 129.979 103.537 128.891 103.828 127.818C104.125 126.745 104.469 125.688 104.87 124.651C105.271 123.61 105.724 122.594 106.224 121.604C106.729 120.615 107.281 119.651 107.885 118.714C108.49 117.776 109.135 116.875 109.833 116.006C110.526 115.136 111.26 114.308 112.042 113.511C112.818 112.719 113.635 111.964 114.495 111.256C115.349 110.547 116.24 109.881 117.161 109.261C118.083 108.641 119.036 108.073 120.021 107.552C121 107.026 122.005 106.558 123.036 106.141C124.068 105.719 125.115 105.354 126.182 105.042C127.25 104.729 128.328 104.474 129.422 104.276C130.516 104.073 131.615 103.927 132.724 103.839C133.833 103.75 134.943 103.719 136.052 103.745C137.161 103.766 138.271 103.849 139.375 103.99L167.448 107.5C168.5 102.422 169.026 97.2868 169.026 92.0993C169.026 90.2243 168.953 88.3597 168.818 86.516C152.479 75.7347 123.839 69.0732 93.4792 69.0732C63.1198 69.0732 34.4792 75.7347 18.1407 86.516ZM70.4896 95.391H60.6355V88.8128H70.4896V95.391ZM116.469 88.8128H126.323V95.391H116.469V88.8128ZM109.901 92.0993C109.901 93.1826 109.797 94.2503 109.589 95.3076C109.375 96.3701 109.063 97.3962 108.651 98.3962C108.24 99.391 107.734 100.339 107.135 101.24C106.536 102.136 105.854 102.964 105.094 103.729C104.328 104.495 103.5 105.177 102.604 105.776C101.708 106.375 100.76 106.881 99.7657 107.297C98.7657 107.709 97.7396 108.021 96.6823 108.229C95.625 108.443 94.5573 108.547 93.4792 108.547C92.4011 108.547 91.3334 108.443 90.2761 108.229C89.2188 108.021 88.1927 107.709 87.1927 107.297C86.198 106.881 85.25 106.375 84.3542 105.776C83.4584 105.177 82.6302 104.495 81.8698 103.729C81.1042 102.964 80.4219 102.136 79.823 101.24C79.224 100.339 78.7188 99.391 78.3073 98.3962C77.8959 97.3962 77.5834 96.3701 77.375 95.3076C77.1615 94.2503 77.0573 93.1826 77.0573 92.0993C77.0573 91.0212 77.1615 89.9535 77.375 88.891C77.5834 87.8337 77.8959 86.8024 78.3073 85.8076C78.7188 84.8076 79.224 83.8597 79.823 82.9639C80.4219 82.0628 81.1042 81.2347 81.8698 80.4691C82.6302 79.7087 83.4584 79.0264 84.3542 78.4274C85.25 77.8232 86.198 77.318 87.1927 76.9066C88.1927 76.4899 89.2188 76.1826 90.2761 75.9691C91.3334 75.7607 92.4011 75.6514 93.4792 75.6514C94.5573 75.6566 95.625 75.7607 96.6823 75.9743C97.7396 76.1826 98.7657 76.4951 99.7605 76.9118C100.755 77.3232 101.703 77.8337 102.599 78.4326C103.495 79.0316 104.323 79.7139 105.089 80.4743C105.849 81.2399 106.531 82.068 107.13 82.9691C107.729 83.8649 108.234 84.8128 108.646 85.8076C109.063 86.8076 109.375 87.8337 109.583 88.891C109.797 89.9535 109.901 91.0212 109.901 92.0993Z" fill="white"/>
</svg>
